<?xml version="1.0" standalone="no"?>
<!DOCTYPE svg PUBLIC "-//W3C//DTD SVG 20010904//EN"
 "http://www.w3.org/TR/2001/REC-SVG-20010904/DTD/svg10.dtd">
<svg version="1.0" xmlns="http://www.w3.org/2000/svg"
 width="768.000000pt" height="1024.000000pt" viewBox="0 0 768.000000 1024.000000"
 preserveAspectRatio="xMidYMid meet">
<metadata>
Created by potrace 1.16, written by Peter Selinger 2001-2019
</metadata>
<g transform="translate(0.000000,1024.000000) scale(0.100000,-0.100000)"
fill="#000000" stroke="none">
<path d="M6265 10163 c-22 -42 -53 -95 -70 -117 -44 -61 -67 -116 -60 -147 5
-20 -2 -38 -27 -74 -18 -26 -43 -66 -56 -89 -13 -22 -35 -57 -50 -76 -44 -56
-63 -90 -60 -105 4 -20 24 -2 78 70 25 33 51 66 58 74 8 8 11 24 8 37 -5 20
-3 23 15 21 12 -1 24 5 27 13 5 13 3 13 -11 1 -25 -20 -20 -3 14 51 25 39 36
48 60 48 15 0 32 6 36 14 4 8 17 15 28 18 15 3 19 10 17 32 -4 30 16 89 27 82
4 -3 8 -98 9 -213 2 -114 5 -222 8 -239 3 -18 1 -42 -6 -54 -8 -15 -8 -25 -1
-34 6 -8 10 -33 9 -57 -1 -24 1 -87 5 -139 4 -52 9 -162 12 -245 3 -82 9 -242
15 -355 5 -113 12 -493 15 -845 3 -352 8 -785 11 -962 4 -233 3 -323 -5 -323
-6 0 -11 -7 -11 -16 0 -9 5 -12 12 -8 8 5 9 -3 5 -29 -3 -23 -1 -37 6 -40 7
-2 9 -7 6 -11 -4 -4 -13 0 -22 8 -22 22 -25 11 -15 -45 5 -28 7 -54 4 -57 -3
-3 -6 4 -6 16 0 15 -5 20 -15 16 -17 -7 -20 -40 -5 -49 6 -3 10 -22 10 -41 0
-21 -4 -33 -10 -29 -6 3 -8 18 -5 33 3 15 2 20 -1 12 -4 -8 -13 -23 -21 -32
-11 -12 -13 -29 -9 -60 9 -63 6 -133 -5 -136 -5 -2 -9 -19 -9 -38 0 -62 -20
-124 -40 -124 -16 0 -80 -53 -80 -66 0 -2 -9 -13 -21 -25 -16 -16 -18 -23 -8
-35 6 -8 18 -14 25 -14 8 0 14 -7 14 -16 0 -8 3 -13 8 -11 4 3 15 -13 24 -35
14 -32 14 -37 3 -28 -8 7 -15 18 -15 25 0 22 -37 47 -59 40 -12 -3 -21 -11
-21 -17 0 -6 3 -8 7 -5 3 4 12 -5 20 -19 16 -33 16 -35 -2 -28 -12 5 -13 1 -4
-27 7 -19 19 -40 27 -46 14 -12 14 -13 0 -13 -17 0 -78 -55 -78 -70 0 -5 -3
-10 -7 -13 -5 -2 -2 -2 5 0 7 1 32 -7 54 -18 23 -12 53 -24 67 -27 27 -6 1097
-9 1344 -4 l137 3 0 2385 0 2384 -687 0 -688 0 -40 -77z"/>
<path d="M0 8946 l0 -124 48 -20 c26 -11 63 -31 82 -44 20 -14 150 -82 290
-152 140 -70 283 -142 318 -161 63 -34 63 -34 110 -19 26 9 65 20 87 25 22 5
46 12 54 15 9 3 -14 22 -60 51 -41 25 -76 49 -79 52 -3 4 -25 15 -49 26 -24
11 -60 31 -80 46 -20 14 -41 28 -46 30 -9 4 -119 67 -155 89 -101 62 -188 113
-245 145 -38 21 -77 43 -85 50 -8 7 -46 30 -85 51 -38 21 -76 44 -83 51 -7 7
-15 13 -18 13 -2 0 -4 -56 -4 -124z"/>
<path d="M3921 8508 c-46 -4 -89 -12 -95 -17 -10 -8 -50 -15 -139 -27 -15 -2
-35 -10 -43 -19 -9 -9 -29 -19 -45 -22 -16 -3 -32 -10 -35 -14 -3 -5 -23 -9
-46 -9 -30 0 -41 -4 -45 -18 -2 -10 -27 -28 -56 -41 -28 -13 -58 -31 -66 -38
-8 -8 -30 -25 -50 -38 -40 -25 -156 -138 -241 -234 -61 -69 -79 -102 -32 -57
29 27 52 28 52 3 0 -7 -13 -28 -28 -47 -27 -34 -73 -108 -101 -162 -8 -16 -19
-24 -27 -21 -18 7 -17 12 1 56 23 56 17 57 -15 2 l-29 -50 25 -13 c14 -7 24
-19 21 -25 -21 -59 -51 -168 -49 -180 1 -4 -5 -21 -13 -37 -8 -16 -15 -40 -15
-53 0 -12 -4 -27 -9 -32 -5 -6 -11 -23 -12 -40 -2 -16 -7 -35 -11 -41 -5 -7
-8 -29 -8 -50 1 -38 -16 -130 -40 -209 -14 -43 -8 -294 10 -435 5 -41 9 -100
10 -130 0 -50 -1 -53 -14 -34 -8 11 -23 58 -33 105 -22 102 -25 455 -5 614 7
55 14 118 17 140 7 68 52 218 93 313 22 51 36 92 32 92 -5 0 -12 -9 -15 -20
-3 -11 -12 -26 -18 -32 -34 -35 -56 -76 -50 -96 5 -20 2 -22 -46 -22 -37 0
-53 4 -57 15 -4 8 -15 15 -25 15 -10 0 -19 -7 -19 -15 0 -11 -12 -15 -49 -15
-48 0 -50 1 -56 33 -4 17 -12 43 -17 56 -9 24 -9 24 -52 -24 -42 -48 -44 -49
-109 -53 -67 -4 -67 -4 -78 25 -7 22 -25 38 -62 57 -29 14 -59 26 -66 26 -8 0
-39 12 -70 27 -45 23 -70 28 -126 28 -63 0 -80 -5 -169 -48 -107 -52 -188 -73
-245 -62 -19 4 -77 27 -128 51 -52 24 -98 44 -103 44 -6 0 -37 9 -70 21 -83
28 -142 30 -172 3 -59 -53 -183 -104 -252 -104 -22 0 -72 12 -111 27 -75 28
-205 102 -205 115 0 5 -10 22 -22 38 -18 25 -29 30 -64 30 l-42 0 -7 -62 c-3
-35 -8 -75 -11 -90 l-6 -28 -101 0 -102 0 -55 45 c-30 25 -58 45 -62 45 -3 0
-13 3 -22 6 -15 6 -16 -162 -16 -1856 l0 -1861 23 7 c82 25 141 81 152 144 14
79 71 145 143 166 30 9 80 27 111 41 41 19 77 26 136 29 44 1 121 7 170 13 50
6 101 11 115 11 24 1 25 1 5 16 -16 12 -20 26 -20 67 0 75 32 201 71 282 29
60 34 81 34 145 1 127 17 252 39 296 22 44 69 89 110 106 56 23 132 27 561 29
245 1 550 4 679 8 l234 6 -4 480 c-5 602 -4 740 5 1205 7 388 8 390 50 390 16
0 18 -8 15 -92 -4 -89 -3 -93 17 -96 23 -3 23 -4 40 136 l7 53 36 -3 c33 -3
36 -5 34 -33 -1 -16 -9 -61 -17 -100 -8 -38 -17 -97 -20 -130 -9 -82 -23 -156
-48 -245 -48 -168 -9 -486 70 -576 15 -18 34 -42 42 -54 12 -18 22 -21 53 -17
20 3 37 1 37 -3 0 -5 12 -23 28 -41 20 -24 31 -55 44 -118 29 -147 46 -225 56
-251 11 -29 29 -165 39 -295 6 -74 8 -83 13 -50 l6 40 9 -29 c4 -16 9 -61 9
-99 l1 -70 690 8 c749 8 880 10 1357 13 255 2 319 5 330 16 8 8 23 16 34 19
17 4 17 5 -3 6 -16 1 -20 6 -16 22 3 11 9 16 12 11 3 -6 15 -12 26 -14 17 -2
19 2 17 25 -1 15 2 27 8 27 5 0 10 -10 10 -22 0 -19 2 -20 10 -8 5 8 10 26 10
39 0 16 4 21 14 18 18 -7 26 14 25 61 -1 20 -3 29 -6 19 -4 -14 -8 -16 -19 -6
-7 6 -11 16 -8 21 9 13 -37 60 -53 54 -18 -7 -16 19 3 38 16 16 10 41 -7 31
-5 -4 -9 8 -9 24 0 20 -5 30 -12 29 -9 -2 -13 16 -14 64 -1 47 -6 72 -18 83
-16 16 -29 53 -25 71 1 5 -1 22 -6 37 -5 18 -3 33 4 40 14 14 15 30 1 22 -5
-3 -11 -3 -11 2 -1 4 -3 17 -5 28 -1 11 -6 65 -9 120 l-7 100 35 53 c45 68 50
119 45 412 -3 186 -7 222 -25 270 -11 30 -30 99 -43 153 -12 54 -24 97 -25 95
-2 -2 1 -115 6 -253 6 -137 7 -323 3 -411 -7 -179 -24 -245 -24 -96 0 77 -3
95 -19 111 -25 25 -32 102 -23 246 5 80 10 109 20 107 16 -3 15 32 -3 144 -36
220 -112 451 -176 532 -24 32 -24 54 1 70 11 7 20 17 20 24 0 7 -6 6 -17 -4
-34 -29 -43 -30 -53 -6 -23 50 -67 115 -107 157 -34 35 -41 55 -23 66 14 9 12
26 -2 24 -25 -3 -36 1 -42 16 -7 19 -1 19 18 -1 13 -13 16 -13 16 -1 0 8 -26
36 -57 63 -32 27 -64 54 -71 61 -6 6 -21 14 -31 18 -11 3 -22 12 -25 20 -3 8
-10 15 -16 15 -13 0 -122 71 -136 88 -5 8 -17 12 -25 11 -7 -2 -57 11 -109 28
-52 17 -116 36 -142 43 -27 7 -48 15 -48 19 0 3 -24 6 -53 7 -28 0 -101 3
-162 6 -60 2 -148 1 -194 -4z m77 -250 c-25 -21 -35 -23 -41 -5 -3 9 -7 9 -20
-2 -21 -17 -22 -41 -2 -41 8 0 15 5 15 10 0 6 11 10 24 10 14 0 28 -4 31 -10
3 -6 -5 -10 -19 -10 -25 0 -44 -29 -32 -49 4 -5 -15 -9 -41 -9 -73 0 -73 0
-73 -24 0 -19 2 -20 10 -8 9 13 11 13 19 0 7 -10 5 -20 -5 -31 -18 -20 -18
-35 2 -43 17 -7 9 -29 -9 -23 -17 5 -38 -19 -31 -37 3 -9 1 -16 -5 -16 -6 0
-11 8 -12 18 0 11 -2 12 -6 4 -7 -19 18 -44 39 -39 33 9 21 -31 -14 -48 -45
-20 -65 -34 -103 -72 -18 -18 -42 -33 -54 -33 -16 0 -21 -6 -21 -25 0 -16 -6
-25 -16 -25 -8 0 -12 5 -9 10 3 6 1 10 -5 10 -6 0 -16 -11 -22 -25 -13 -30
-32 -34 -23 -5 5 15 3 18 -8 14 -10 -4 -15 1 -14 13 2 12 -4 17 -17 15 -13 -2
-16 0 -10 10 5 7 10 28 11 46 1 19 8 41 15 50 10 14 10 15 -2 5 -8 -7 -22 -13
-33 -13 -14 0 -17 5 -12 20 9 29 -13 25 -27 -5 -6 -13 -20 -28 -32 -31 -11 -4
-27 -14 -34 -23 -7 -9 -5 0 4 19 18 37 58 80 76 80 5 0 8 7 4 15 -3 8 -1 15 4
15 17 0 50 34 50 52 0 10 23 34 50 55 28 20 50 40 50 44 0 4 7 9 14 12 10 4
14 1 10 -11 -2 -9 2 -4 9 11 14 29 34 47 52 47 6 -1 2 -5 -7 -11 -26 -14 -22
-39 5 -39 38 0 49 13 37 45 -22 57 -11 63 110 65 25 1 30 4 20 10 -11 7 -11
10 -2 11 27 3 31 4 38 11 4 4 24 7 45 6 38 -1 38 -1 17 -20z m647 -200 c19
-17 35 -38 35 -46 0 -8 6 -12 13 -9 7 3 19 -4 26 -15 10 -17 10 -19 -6 -17
-21 3 -93 -22 -93 -32 0 -16 34 -19 42 -4 11 19 38 20 38 0 0 -8 -7 -15 -15
-15 -8 0 -15 -8 -15 -19 0 -23 -66 -37 -88 -19 -10 9 -16 8 -23 -3 -5 -8 -9
-9 -9 -3 0 13 -78 94 -91 94 -12 0 -32 41 -23 48 4 4 9 1 11 -5 3 -7 12 -13
20 -13 14 0 14 2 1 18 -15 18 -13 52 4 52 5 0 21 -9 35 -20 34 -27 57 -26 50
1 -4 14 1 23 16 29 33 13 35 13 72 -22z m-383 -174 c104 -59 236 -173 223
-194 -4 -7 2 -14 14 -17 12 -3 21 -12 21 -20 0 -20 30 -77 46 -86 8 -4 14 -13
14 -19 0 -11 64 -102 93 -130 9 -10 17 -23 17 -30 0 -6 7 -20 17 -30 13 -15
14 -24 6 -53 -11 -33 -10 -35 12 -35 27 0 85 -71 85 -105 0 -27 -39 -60 -67
-56 -22 2 -28 -7 -23 -38 1 -9 -5 -12 -19 -8 -27 7 -27 -4 -1 -21 26 -16 25
-28 -1 -42 -17 -9 -23 -8 -34 7 -13 17 -14 17 -20 1 -6 -15 -15 -17 -64 -12
-31 4 -61 11 -67 16 -7 5 -23 4 -40 -3 -16 -7 -33 -12 -39 -12 -5 1 -26 -17
-45 -40 l-35 -40 40 7 c22 4 44 12 49 17 17 16 35 10 42 -16 8 -32 21 -42 67
-50 34 -7 40 -4 70 27 32 35 57 39 57 11 0 -22 -33 -60 -48 -55 -6 2 -12 -2
-12 -8 0 -9 11 -11 35 -7 26 4 35 2 35 -9 0 -8 8 -14 19 -14 25 0 71 38 71 58
0 22 78 58 93 43 7 -7 11 -79 11 -189 1 -154 -1 -181 -16 -195 -9 -9 -22 -33
-28 -52 -6 -19 -16 -35 -21 -35 -5 0 -9 -9 -9 -21 0 -21 -39 -101 -52 -107 -5
-2 -8 -11 -8 -21 0 -22 -23 -71 -32 -71 -5 0 -8 -7 -8 -15 0 -8 -18 -24 -40
-35 -22 -11 -47 -34 -55 -50 -9 -17 -20 -30 -26 -30 -6 0 -9 -6 -6 -14 3 -8
-1 -17 -10 -20 -9 -4 -17 1 -20 14 -4 15 -14 20 -38 20 -18 0 -65 7 -104 16
-80 18 -99 13 -61 -18 24 -19 24 -20 5 -34 -23 -17 -35 -18 -35 -3 0 7 -21 10
-60 7 -64 -3 -77 6 -52 35 18 20 17 22 -22 31 -26 6 -28 5 -17 -8 9 -11 10
-16 2 -16 -6 0 -11 -9 -11 -20 0 -11 -6 -20 -14 -20 -22 0 -30 20 -9 21 16 1
16 2 1 6 -9 2 -20 13 -23 24 -4 10 -12 19 -20 19 -7 0 -20 6 -27 14 -15 15
-65 10 -168 -17 -57 -15 -94 -12 -68 4 27 18 -14 27 -103 23 -84 -3 -89 -2
-89 17 0 30 -20 64 -30 50 -4 -8 -11 -2 -20 18 -6 16 -23 37 -36 46 -13 8 -24
21 -24 27 0 17 -63 97 -77 98 -6 0 -17 14 -25 30 -7 17 -16 30 -20 30 -4 0
-14 13 -22 28 -11 20 -14 61 -13 154 2 114 4 129 22 142 26 20 52 20 105 1 58
-20 90 -20 90 3 1 16 1 16 14 0 18 -24 35 -23 29 2 -3 11 0 20 6 20 6 0 11 6
11 13 0 8 11 19 25 25 14 6 33 27 42 47 9 19 22 35 28 35 16 0 65 -24 65 -32
0 -3 14 -9 30 -13 17 -4 30 -11 30 -16 0 -12 27 -12 34 0 3 5 -15 21 -41 37
-27 15 -52 33 -56 41 -5 7 -13 10 -19 7 -6 -4 -13 -2 -17 4 -3 5 -34 12 -69
15 -35 3 -70 11 -78 18 -11 9 -21 9 -37 2 -28 -13 -59 1 -51 21 3 8 0 24 -6
37 -7 12 -12 40 -12 62 1 29 -5 45 -21 58 -14 12 -17 18 -8 19 7 0 11 6 8 15
-9 22 15 60 38 59 11 0 30 -5 42 -12 12 -7 29 -12 39 -12 9 0 32 -9 51 -21 22
-14 42 -19 58 -15 21 5 25 3 25 -16 0 -19 2 -20 10 -8 8 12 10 9 10 -12 0 -16
4 -28 10 -28 5 0 32 -16 60 -36 l50 -36 0 -59 c0 -50 4 -64 25 -84 13 -14 29
-25 34 -25 15 0 42 70 35 92 -3 11 0 18 8 18 8 1 4 8 -9 19 -13 11 -23 22 -23
25 0 3 -9 15 -20 26 -11 11 -20 17 -20 14 0 -3 -8 2 -17 12 -13 13 -14 19 -5
22 30 10 -4 92 -38 92 -5 0 -10 4 -10 8 0 13 -51 36 -77 35 -13 0 -23 3 -23 8
0 10 -74 31 -98 28 -9 -1 -25 1 -34 4 -10 4 -25 9 -34 12 -8 3 -12 10 -9 16 4
6 -2 13 -14 16 -12 3 -21 13 -20 22 1 30 27 86 38 83 6 -1 11 5 11 14 0 13 7
15 30 11 23 -5 30 -3 30 8 0 11 -7 14 -25 9 -19 -5 -25 -2 -25 10 0 9 8 16 20
16 14 0 21 9 26 38 7 39 40 102 54 102 4 0 11 11 14 25 4 14 11 25 17 25 6 0
28 18 50 40 22 22 45 40 50 40 6 0 20 12 32 26 25 32 74 54 122 54 19 0 35 5
35 10 0 6 -9 10 -20 10 -21 0 -28 19 -7 21 22 1 61 9 65 14 3 2 27 2 54 0 36
-4 77 -20 150 -61z m-312 -1870 c52 -9 50 -9 71 -18 36 -16 64 -15 204 10 17
3 53 6 80 8 28 1 67 6 88 10 44 10 47 0 12 -38 -16 -17 -34 -26 -55 -26 -18 0
-29 -4 -25 -10 3 -5 -5 -15 -19 -21 -14 -7 -23 -15 -21 -20 12 -18 -48 -49
-97 -49 -30 0 -47 4 -43 10 3 6 2 10 -2 10 -5 0 -14 -9 -21 -20 l-13 -21 -29
21 c-16 11 -35 19 -42 18 -7 -2 -12 4 -10 14 1 10 -6 19 -19 23 -17 6 -19 9
-8 16 10 6 11 9 2 9 -7 0 -13 7 -13 15 0 9 -9 15 -24 15 -30 0 -88 24 -79 33
3 4 1 7 -5 7 -7 0 -12 5 -12 11 0 6 8 8 18 5 9 -2 37 -8 62 -12z m398 -253
c18 -11 22 -77 5 -74 -7 2 -10 -3 -7 -11 3 -9 -11 -21 -41 -36 -42 -20 -51
-21 -127 -11 -59 8 -85 8 -94 0 -11 -9 -18 -8 -29 1 -8 7 -22 10 -30 6 -20 -7
-65 14 -65 31 0 13 12 17 39 14 7 -2 10 2 6 8 -8 14 -4 14 34 -2 27 -11 41
-12 83 -1 28 8 59 20 68 29 9 8 23 15 31 15 9 0 24 6 35 14 11 9 29 12 43 9
17 -4 22 -2 17 6 -8 13 13 15 32 2z"/>
<path d="M4545 7280 c-11 -5 -31 -9 -45 -9 -41 -2 -123 -48 -127 -72 -2 -16 1
-20 14 -15 9 4 20 1 24 -5 5 -8 38 0 115 29 60 22 119 43 132 47 35 10 26 25
-15 25 -21 0 -47 2 -58 5 -11 2 -29 0 -40 -5z"/>
<path d="M3930 6599 c0 -5 -4 -8 -8 -5 -4 2 -18 -11 -31 -30 -19 -28 -24 -48
-25 -104 0 -42 5 -75 12 -82 15 -15 101 -26 213 -27 66 -1 97 4 130 19 52 23
76 25 95 6 15 -16 54 -10 54 8 0 6 3 21 6 34 4 13 3 22 -2 21 -5 -1 -22 3 -37
9 -40 17 -67 15 -103 -7 -42 -26 -118 -25 -162 1 -26 16 -45 19 -88 16 -32 -3
-54 -1 -54 5 0 6 -3 8 -6 4 -9 -9 -34 19 -34 38 0 23 20 58 42 73 19 14 24 32
8 32 -5 0 -10 -5 -10 -11z"/>
<path d="M380 4210 c0 -5 5 -10 10 -10 6 0 10 -4 10 -9 0 -5 -9 -7 -20 -4 -11
3 -20 0 -20 -6 0 -6 10 -11 23 -11 16 0 18 -3 8 -9 -11 -7 -11 -9 0 -14 8 -3
-1 -6 -19 -6 l-33 -1 21 -30 c29 -41 52 -51 150 -67 47 -8 89 -18 94 -23 14
-14 116 -13 155 1 43 15 230 -22 321 -63 106 -48 158 -64 295 -92 72 -15 174
-38 228 -52 107 -26 131 -29 122 -14 -3 6 -15 10 -26 10 -10 0 -28 9 -40 21
-11 11 -27 18 -35 15 -14 -5 -86 7 -124 21 -8 4 -23 5 -32 4 -10 -1 -18 3 -18
9 0 7 -6 10 -13 7 -8 -3 -40 6 -73 19 -32 13 -63 24 -67 24 -4 0 -28 9 -52 20
-24 11 -67 21 -97 24 -29 2 -97 15 -152 30 -54 14 -109 26 -122 26 -12 0 -26
5 -29 10 -3 6 -19 10 -35 10 -16 0 -46 9 -65 20 -20 11 -40 18 -46 15 -13 -9
-11 9 3 23 7 7 9 12 4 12 -4 0 -14 -7 -22 -15 -20 -19 -34 -19 -34 1 0 8 -4
13 -9 10 -10 -6 -10 26 0 34 3 3 -4 16 -17 29 l-23 25 -10 -26 c-5 -14 -16
-28 -23 -31 -10 -4 -10 -8 2 -16 13 -10 13 -11 0 -12 -10 0 -8 -3 5 -9 18 -8
17 -9 -7 -9 -19 -1 -28 4 -28 14 0 8 -7 15 -16 15 -19 0 -39 20 -39 39 0 20
-24 26 -31 7 -7 -19 -24 -21 -24 -3 0 14 -31 47 -43 47 -4 0 -7 -4 -7 -10z"/>
<path d="M309 3703 c-1 -5 -1 -12 0 -16 1 -4 -3 -16 -8 -26 -9 -16 -3 -19 57
-29 72 -12 206 -23 312 -26 40 0 78 -8 99 -19 19 -9 51 -17 73 -17 21 0 71 -9
111 -19 40 -11 104 -25 142 -31 39 -6 104 -21 145 -34 98 -32 313 -77 450 -96
75 -10 150 -36 150 -52 0 -4 10 -8 23 -8 22 0 22 0 1 13 -11 6 -36 22 -54 34
-19 12 -55 25 -80 29 -25 4 -60 13 -79 20 -18 8 -44 14 -56 14 -13 0 -36 6
-52 14 -66 33 -133 49 -262 65 -44 6 -121 24 -173 41 -51 17 -133 37 -183 45
-49 8 -128 28 -175 45 -64 22 -110 31 -185 35 -55 2 -127 9 -160 15 -72 12
-95 13 -96 3z"/>
<path d="M135 3296 c-18 -13 -16 -15 25 -34 38 -18 101 -31 230 -48 14 -2 72
-8 130 -14 106 -10 213 -27 240 -38 23 -9 47 -11 150 -12 52 -1 141 -7 198
-14 101 -12 139 -6 87 14 -14 5 -40 10 -58 11 -31 1 -209 26 -396 55 -52 8
-110 22 -130 30 -48 21 -120 33 -266 44 -66 5 -136 12 -156 14 -22 4 -43 0
-54 -8z"/>
<path d="M0 2650 l0 -220 150 0 150 0 -6 -82 c-4 -46 -11 -87 -16 -93 -6 -6
-7 8 -2 39 l7 49 -37 -7 c-32 -6 -38 -4 -43 12 -5 20 -46 45 -57 35 -3 -4 -6
-13 -6 -20 0 -10 7 -12 23 -8 14 5 18 4 12 -2 -5 -5 -32 -15 -60 -21 -27 -6
-58 -14 -67 -17 -13 -5 -18 -2 -18 11 -1 11 -7 30 -15 44 -13 24 -14 21 -15
-42 0 -65 12 -89 25 -49 9 29 42 15 47 -20 4 -28 3 -29 -34 -29 l-38 0 0 -595
0 -595 93 5 c50 3 217 7 370 9 154 3 280 6 282 8 3 3 21 300 30 488 3 63 10
192 16 285 5 94 11 213 14 265 2 52 9 154 14 225 13 161 7 197 -34 206 -47 10
-100 44 -98 63 0 10 -4 15 -12 12 -7 -2 -21 1 -31 8 -11 8 -35 17 -54 21 -77
15 -167 47 -204 72 -35 23 -43 24 -76 14 -66 -19 -81 -14 -192 69 -59 44 -110
80 -113 80 -3 0 -5 -99 -5 -220z"/>
<path d="M942 194 c4 -4 2 -14 -5 -22 -10 -13 -9 -14 10 -4 27 15 36 15 28 2
-4 -6 10 -10 34 -10 22 0 43 -4 46 -10 8 -13 45 -13 45 0 0 12 68 3 86 -11 6
-5 15 -4 21 2 7 7 17 8 25 3 19 -13 347 -14 387 -2 27 8 35 8 42 -4 10 -18 53
-16 75 3 9 8 18 9 22 3 8 -10 9 -10 312 -18 113 -3 234 -8 270 -12 90 -10 152
-7 161 8 7 10 11 10 21 0 15 -15 178 -17 178 -2 0 6 12 10 28 9 24 0 25 -1 7
-9 -19 -8 -18 -9 5 -11 88 -7 197 -5 208 3 8 7 12 7 12 -2 0 -9 14 -11 51 -8
31 3 46 2 37 -4 -8 -5 5 -8 37 -8 28 1 68 -3 89 -9 29 -7 48 -6 71 3 19 8 39
10 52 5 12 -4 156 -11 320 -15 164 -3 302 -9 307 -12 5 -3 6 1 1 8 -8 13 23
11 85 -4 22 -6 23 -5 5 4 -16 8 -11 9 20 5 68 -10 99 -15 125 -22 14 -3 142
-7 285 -9 415 -6 540 -9 551 -17 6 -3 55 -4 108 -1 53 3 96 1 96 -3 0 -4 18
-9 40 -10 22 0 40 2 40 5 0 11 73 8 90 -3 10 -6 311 -10 845 -11 863 -2 860 0
-60 30 -269 9 -535 18 -590 21 -96 5 -320 13 -995 35 -173 6 -517 17 -765 25
-247 8 -625 19 -840 25 -214 6 -525 15 -689 21 -164 5 -342 10 -395 9 -53 0
-116 1 -141 4 -25 2 -184 7 -355 10 -170 4 -341 9 -380 12 -38 3 -67 2 -63 -2z"/>
</g>
</svg>
