<?xml version="1.0" standalone="no"?>
<!DOCTYPE svg PUBLIC "-//W3C//DTD SVG 20010904//EN"
 "http://www.w3.org/TR/2001/REC-SVG-20010904/DTD/svg10.dtd">
<svg version="1.0" xmlns="http://www.w3.org/2000/svg"
 width="768.000000pt" height="1024.000000pt" viewBox="0 0 768.000000 1024.000000"
 preserveAspectRatio="xMidYMid meet">
<metadata>
Created by potrace 1.16, written by Peter Selinger 2001-2019
</metadata>
<g transform="translate(0.000000,1024.000000) scale(0.100000,-0.100000)"
fill="#000000" stroke="none">
<path d="M0 8767 l0 -1475 51 -7 c27 -4 53 -4 56 -1 4 3 -1 6 -10 6 -10 0 -17
5 -17 10 0 6 12 10 26 10 19 0 25 -4 20 -15 -4 -10 3 -17 22 -21 51 -11 47
-12 -35 -13 -45 -1 -85 4 -88 9 -15 25 -25 5 -25 -49 0 -48 3 -60 18 -64 16
-4 16 -5 0 -6 -14 -1 -18 -10 -18 -45 0 -48 10 -56 82 -56 20 0 40 -5 44 -11
5 -9 -4 -10 -30 -5 -21 4 -51 4 -67 1 l-29 -7 2 -511 c3 -481 4 -512 20 -511
10 1 18 -3 18 -8 0 -6 -9 -8 -20 -5 -21 5 -28 -7 -10 -18 6 -3 10 -11 10 -16
0 -6 -4 -8 -9 -5 -5 4 -9 -33 -9 -86 0 -60 4 -96 11 -100 9 -6 9 -8 0 -8 -10
0 -12 -592 -13 -2750 l0 -2750 20 12 c14 9 19 20 15 34 -3 14 1 24 10 28 8 3
20 26 26 51 6 25 16 46 23 47 6 0 18 1 26 2 16 1 28 36 12 36 -6 0 -8 9 -5 20
3 12 0 20 -6 20 -7 0 -9 5 -6 10 5 8 11 7 21 -1 7 -6 22 -8 31 -4 17 6 17 7 1
16 -20 11 -24 40 -6 37 7 -2 12 5 10 15 -2 11 4 17 15 17 12 0 14 3 6 11 -14
14 9 99 30 110 8 5 13 23 12 44 0 21 4 35 11 35 7 0 15 13 19 29 5 22 11 28
22 24 12 -5 15 -2 10 10 -4 10 -2 17 5 17 7 0 7 4 -1 14 -8 10 -9 16 -1 21 5
3 10 1 10 -5 0 -6 5 -8 11 -5 6 4 8 14 5 22 -4 9 -1 22 5 29 6 7 8 18 4 24 -3
5 1 13 10 16 9 4 14 12 11 19 -8 21 6 26 19 8 11 -14 13 -11 19 21 4 20 4 45
1 55 -4 15 -1 17 18 14 15 -3 24 0 25 9 1 7 4 26 8 42 5 19 2 31 -7 37 -10 6
-8 9 9 9 13 0 20 4 17 10 -3 6 -1 10 4 10 6 0 10 10 8 23 -1 12 3 21 10 20 6
-1 14 11 18 26 3 16 16 40 28 53 13 13 23 35 24 48 1 13 6 26 10 29 5 3 20 22
33 41 13 19 30 39 37 43 7 4 13 16 13 26 0 10 11 30 24 44 13 14 21 29 18 32
-4 4 7 19 25 33 27 23 30 30 22 52 -10 24 -10 24 -39 -20 -17 -25 -30 -50 -30
-56 0 -21 -28 -23 -53 -3 -14 10 -31 19 -39 20 -7 0 -4 4 7 9 33 13 -7 23 -49
12 -27 -8 -38 -7 -47 4 -13 16 -33 19 -24 4 3 -5 2 -10 -4 -10 -12 0 -25 20
-14 21 31 5 63 4 63 -3 0 -4 7 -8 15 -8 8 0 15 5 15 10 0 6 11 8 25 4 16 -4
25 -2 25 6 0 7 -7 10 -15 6 -8 -3 -15 -1 -15 4 0 6 7 10 15 10 8 0 15 7 15 15
0 9 6 15 13 14 25 -3 38 1 32 11 -3 5 -1 10 4 10 12 0 14 -11 5 -34 -3 -9 -12
-16 -20 -16 -22 0 -16 -27 7 -33 12 -3 18 -10 14 -16 -3 -6 1 -11 10 -11 9 0
14 4 10 9 -3 5 3 12 12 14 14 4 13 5 -4 6 -33 2 -39 22 -14 43 13 10 27 16 31
13 4 -3 10 1 13 8 4 10 -2 13 -19 9 -14 -3 -24 0 -24 8 0 7 -12 10 -32 8 -29
-3 -32 -1 -31 25 2 52 5 62 12 32 9 -41 37 -45 43 -6 3 22 0 31 -10 31 -7 0
-12 6 -9 13 2 6 11 11 21 9 10 -2 16 4 16 18 0 18 -3 19 -20 10 -16 -9 -18 -8
-14 5 8 20 41 19 53 -2 5 -10 13 -15 17 -11 4 4 1 14 -5 22 -10 11 -8 15 6 19
10 3 3 5 -15 6 -21 1 -31 5 -26 12 3 6 17 9 30 6 13 -2 24 0 24 4 0 5 8 9 18
9 17 0 43 24 56 51 3 8 4 2 1 -13 -3 -15 0 -30 5 -33 6 -4 8 -15 5 -26 -4 -10
-2 -19 4 -19 5 0 13 25 16 55 6 41 11 55 24 56 10 0 11 2 4 6 -7 2 -13 12 -13
20 0 9 6 13 14 10 9 -4 3 12 -14 36 -29 43 -24 63 12 51 15 -4 18 1 18 30 0
24 4 35 13 34 6 -2 10 4 8 12 -2 8 -3 23 -3 33 0 9 -3 15 -9 12 -5 -4 -9 3 -9
14 0 12 -4 21 -10 21 -14 0 -12 17 3 23 7 2 25 -6 41 -19 l28 -25 -27 -117
c-14 -64 -35 -153 -46 -197 -11 -44 -23 -90 -26 -102 -8 -32 11 -29 28 4 8 16
18 33 22 38 4 6 23 33 41 60 18 28 51 78 74 112 23 34 42 66 42 72 0 5 9 16
19 23 11 8 19 20 18 28 -3 34 27 130 41 130 11 0 13 -8 8 -37 -6 -35 -5 -36 8
-20 8 11 12 25 9 32 -2 8 14 33 36 55 42 43 51 64 29 73 -7 3 -3 6 9 6 12 1
25 6 28 12 5 7 -3 9 -21 7 -19 -2 -36 5 -54 22 -15 14 -48 36 -74 49 -25 13
-46 27 -46 32 0 4 -13 12 -30 18 -16 5 -30 14 -30 19 0 5 -18 21 -40 36 -26
17 -37 31 -34 41 4 8 1 15 -5 15 -6 0 -16 11 -21 25 -6 16 -18 25 -32 26 -23
1 -23 1 1 8 18 5 30 1 47 -16 13 -13 28 -23 34 -23 15 0 12 36 -5 50 -18 15
-20 -1 -3 -18 9 -9 9 -12 1 -12 -16 0 -24 15 -28 51 -2 16 -11 36 -20 45 -8 8
-15 20 -15 26 0 6 -3 8 -6 5 -9 -8 16 -67 27 -67 5 0 9 -4 9 -10 0 -17 -38
-11 -49 8 -9 16 -12 15 -28 -8 -10 -14 -16 -34 -15 -45 2 -17 1 -17 -7 -5 -16
23 -13 50 7 51 10 0 12 3 5 6 -7 2 -13 9 -13 15 0 6 7 7 16 4 13 -5 15 -2 11
14 -3 11 -1 23 4 26 5 3 9 -4 9 -16 0 -12 3 -19 7 -17 5 3 8 20 8 39 0 29 -3
33 -28 33 -34 -1 -34 0 2 18 25 13 29 12 40 -4 6 -10 11 -28 11 -39 0 -25 11
-25 44 1 26 21 34 39 16 39 -5 0 -10 -7 -10 -16 0 -8 -4 -13 -8 -10 -5 3 -7
19 -4 36 3 21 10 30 22 30 10 0 20 -3 23 -7 2 -5 2 -2 1 5 -2 6 4 12 13 12 12
0 14 3 7 10 -6 6 -9 23 -6 39 3 24 8 28 38 27 36 -1 48 -16 39 -50 -6 -19 -5
-20 6 -3 6 11 9 30 6 43 -2 14 0 27 5 30 4 3 8 2 7 -3 -3 -20 2 -34 11 -28 6
4 -4 -21 -21 -55 -22 -41 -36 -57 -43 -50 -19 19 -27 10 -11 -13 14 -21 13
-27 -5 -65 -11 -22 -20 -46 -20 -52 0 -5 -5 -10 -11 -10 -6 0 -9 -6 -6 -14 3
-8 1 -30 -4 -50 -9 -33 -7 -37 28 -70 59 -54 253 -150 253 -125 0 5 -6 9 -13
9 -18 0 -67 24 -67 33 0 10 7 9 31 -6 17 -10 22 -9 30 6 7 11 17 16 28 12 14
-4 22 2 31 25 17 42 32 38 24 -7 l-6 -38 18 25 c10 14 26 33 35 43 10 10 19
27 22 38 4 16 2 17 -14 9 -10 -6 -22 -18 -27 -27 -5 -8 -14 -13 -21 -9 -16 10
-14 36 4 42 23 9 18 26 -6 19 -17 -6 -20 -3 -17 12 2 11 12 18 25 18 12 0 25
3 29 8 13 13 44 8 44 -8 0 -8 5 -15 10 -15 6 0 10 5 10 10 0 12 12 28 54 73
16 18 24 33 17 35 -14 5 -15 23 0 20 6 -2 12 28 14 81 3 46 7 92 10 102 4 11
2 19 -4 19 -6 0 -11 5 -11 10 0 6 5 9 12 8 14 -4 41 103 29 115 -5 5 -12 4
-15 -2 -4 -6 -17 -11 -29 -10 -14 0 -17 2 -7 6 8 2 29 11 47 19 40 18 59 19
45 1 -11 -13 -12 -21 -13 -79 -1 -17 -7 -28 -15 -28 -10 0 -13 -7 -8 -25 3
-14 2 -31 -4 -38 -7 -8 -6 -18 4 -31 13 -19 14 -19 14 7 0 17 5 27 15 27 18 0
18 -5 4 -32 -6 -11 -8 -22 -5 -25 18 -18 96 120 96 170 0 20 4 39 10 42 5 3
10 15 10 26 0 10 5 19 10 19 6 0 10 6 10 14 0 7 8 20 17 27 15 12 16 12 9 -6
-7 -19 -6 -19 10 -3 23 23 11 34 -20 20 -23 -10 -25 -9 -31 19 -4 17 -4 33 -1
36 3 4 6 -3 6 -15 0 -25 3 -26 31 -11 14 7 18 16 14 30 -4 13 -2 19 8 19 11 0
13 -7 9 -22 -5 -21 -4 -22 12 -9 9 8 14 16 12 19 -3 3 3 17 14 32 11 16 20 34
20 42 -1 7 -7 2 -15 -12 -7 -14 -17 -25 -22 -26 -4 0 -25 -8 -45 -17 -39 -18
-62 -22 -40 -9 15 10 5 42 -13 42 -16 0 -30 -28 -34 -67 0 -7 -8 -13 -17 -13
-21 0 -47 -27 -39 -41 5 -6 13 -2 22 11 9 12 18 18 22 13 3 -5 17 -14 31 -20
l25 -11 -35 -15 c-31 -14 -35 -19 -35 -54 0 -32 -4 -39 -23 -41 -21 -3 -22 -1
-13 16 18 33 4 52 -32 45 -18 -3 -43 -12 -55 -20 -27 -17 -112 -26 -112 -12 0
15 -30 10 -36 -5 -4 -12 -39 -24 -89 -31 -5 0 -23 -7 -40 -15 -16 -7 -39 -15
-50 -17 -10 -2 -22 -9 -26 -15 -4 -6 -13 -8 -21 -5 -18 6 -45 -9 -35 -20 5 -4
12 -1 17 7 7 11 10 12 10 2 0 -7 4 -10 10 -7 6 4 7 -1 3 -11 -4 -10 -8 -13
-10 -7 -3 7 -10 10 -18 7 -19 -8 -29 14 -15 31 19 23 4 17 -25 -9 -15 -14 -32
-23 -39 -20 -7 3 -19 -2 -26 -11 -16 -20 -26 -19 -34 2 -4 10 -4 14 0 11 6 -7
34 15 34 25 0 3 -13 3 -30 1 -24 -4 -29 -2 -24 11 5 12 14 15 31 10 16 -4 33
1 50 15 30 23 51 27 33 5 -8 -9 -9 -15 -2 -15 18 0 24 18 12 39 -9 18 -7 19
17 17 16 -2 35 -4 43 -5 13 -1 13 -3 0 -12 -12 -9 -12 -10 3 -5 10 3 21 6 23
6 3 0 2 5 -1 10 -3 5 -15 10 -25 10 -23 0 -46 32 -55 75 -5 27 -4 26 13 -9 17
-35 24 -39 58 -41 22 -1 49 4 60 11 24 14 35 9 27 -12 -8 -22 20 -26 63 -8 21
9 58 16 81 15 23 -1 58 5 79 14 20 8 46 15 58 15 34 0 53 21 59 66 6 49 -6 75
-25 56 -6 -6 -22 -12 -34 -12 -26 0 -40 -16 -22 -23 8 -4 7 -6 -4 -6 -9 -1
-19 -7 -21 -13 -4 -10 -8 -10 -14 -2 -4 6 -19 14 -33 18 -19 6 -21 5 -10 -3
12 -9 10 -11 -10 -11 -18 0 -21 -3 -11 -9 10 -6 5 -11 -18 -16 -18 -4 -35 -13
-37 -20 -3 -7 -13 -16 -21 -19 -12 -5 -13 -3 -5 7 8 10 5 12 -16 11 -14 0 -27
-6 -28 -13 -1 -6 0 -7 3 -1 6 13 23 3 23 -13 0 -7 -11 -20 -24 -29 l-24 -18 2
48 c3 58 11 73 33 65 11 -4 14 -3 9 5 -5 9 0 9 21 1 21 -8 30 -7 38 4 5 7 15
12 22 10 6 -2 14 0 16 4 7 11 -111 10 -135 -1 -10 -5 -18 -19 -18 -32 0 -13
-4 -24 -10 -24 -20 0 -10 43 16 66 16 16 38 24 62 25 20 0 46 4 57 9 37 15
-12 24 -57 11 -22 -7 -43 -10 -46 -7 -3 3 2 6 11 6 10 0 17 4 17 9 0 5 12 14
27 19 16 6 21 11 13 11 -12 1 -15 10 -12 42 3 24 8 36 12 29 5 -8 9 -8 13 4 3
8 2 18 -3 21 -10 6 -2 35 9 35 3 0 11 -11 18 -25 6 -14 7 -25 2 -25 -5 0 -9
-18 -9 -40 l0 -39 25 23 c28 26 33 41 10 32 -20 -7 -19 14 1 43 12 17 13 26 5
34 -6 6 -11 18 -11 26 1 14 2 14 13 -1 12 -15 14 -15 26 4 9 15 9 23 0 34 -9
11 -7 14 10 14 26 0 40 -32 35 -80 -3 -29 -2 -32 7 -16 11 17 7 74 -7 110 -4
10 -1 16 8 16 15 0 48 65 48 94 0 9 4 15 8 12 5 -3 22 9 38 26 19 21 23 29 12
25 -12 -4 -18 -1 -18 8 0 18 17 28 25 15 4 -6 13 -5 25 2 10 7 16 16 13 21 -3
5 -10 3 -15 -4 -7 -10 -8 -8 -3 8 3 12 1 24 -5 28 -5 3 -10 11 -10 16 0 6 4 8
9 5 10 -7 21 16 22 47 0 18 3 16 15 -11 8 -18 12 -38 8 -44 -4 -6 1 -8 12 -6
11 2 20 13 22 26 2 12 8 19 14 16 6 -4 5 2 -2 15 -7 13 -9 39 -4 66 6 40 13
50 36 46 4 0 4 16 2 37 -4 27 -3 33 5 22 8 -12 15 -10 43 15 18 17 35 31 37
33 3 1 4 39 2 83 -1 63 1 80 11 77 7 -3 13 -11 14 -19 4 -56 2 -54 23 -30 12
14 25 20 32 15 9 -5 11 -1 7 14 -4 12 -2 25 3 28 6 3 7 14 4 25 -4 10 -2 19 3
19 6 0 12 -6 14 -12 3 -8 9 -5 16 9 9 16 9 29 0 54 -6 19 -12 68 -12 110 -1
42 -4 75 -8 72 -5 -2 -8 13 -8 34 0 21 -2 47 -5 58 -5 22 39 84 52 71 4 -4 0
-21 -10 -38 -10 -17 -15 -33 -13 -36 7 -7 36 18 36 31 0 6 8 19 17 29 16 18
16 18 0 12 -10 -3 -17 -1 -17 5 0 6 11 11 25 11 14 0 25 5 25 11 0 9 -16 7
-57 -8 -7 -3 -13 0 -13 6 0 6 12 13 27 17 47 9 74 24 68 34 -3 6 -15 10 -27
10 -11 0 -34 11 -50 25 -16 14 -34 23 -39 19 -5 -3 -9 0 -9 5 0 6 7 11 16 11
14 0 14 3 4 15 -10 12 -9 15 6 16 11 1 22 1 27 0 4 0 7 19 7 43 0 48 8 60 30
46 11 -7 10 -11 -3 -25 -21 -20 -21 -26 -2 -51 8 -10 15 -26 15 -35 0 -16 34
-32 44 -21 11 10 6 50 -6 55 -8 3 -12 21 -11 48 1 25 -5 54 -14 67 -13 22 -13
25 4 38 27 20 29 18 25 -26 -3 -25 0 -40 7 -40 6 0 11 5 11 10 0 6 6 10 14 10
18 0 26 22 26 76 0 31 6 50 20 64 11 11 20 28 20 38 0 10 5 23 11 29 14 14 17
80 5 112 -6 17 -5 22 4 16 15 -9 37 21 45 65 4 19 12 38 18 42 8 5 6 8 -5 8
-9 0 -20 -9 -23 -20 -3 -11 -13 -20 -22 -20 -12 0 -13 3 -4 14 6 7 10 22 9 32
-2 11 1 19 7 19 5 0 9 -3 8 -7 -2 -5 4 -8 12 -8 8 0 14 3 14 8 -3 19 2 33 10
28 5 -3 12 14 16 39 3 25 10 43 14 40 5 -2 6 6 4 19 -3 16 2 28 17 39 21 14
21 16 4 35 -13 15 -20 17 -29 9 -7 -7 -10 -16 -7 -21 3 -5 0 -6 -6 -2 -7 4
-12 2 -12 -3 0 -6 -10 -11 -22 -10 -23 0 -23 0 -2 9 25 10 39 40 24 50 -6 4
-8 15 -4 26 5 15 4 16 -5 4 -5 -8 -13 -11 -16 -8 -11 11 5 28 26 28 33 0 10
20 -24 21 l-32 1 38 10 c27 7 37 15 37 30 0 10 -4 17 -9 14 -5 -3 -14 1 -21 9
-10 12 -9 15 7 15 18 0 20 5 15 51 -3 35 -1 50 6 45 6 -3 15 6 20 21 7 19 11
22 11 10 1 -15 3 -16 15 -5 8 7 12 16 9 21 -2 4 0 7 6 7 6 0 18 17 27 37 10
20 20 31 22 24 2 -7 -1 -18 -7 -24 -6 -6 -11 -18 -11 -27 0 -8 7 -2 15 14 8
15 15 35 15 42 0 8 6 17 14 20 8 3 18 19 21 35 4 16 11 31 16 34 5 4 9 13 9
20 0 11 -8 13 -30 9 -16 -4 -55 -3 -87 1 -48 6 -54 9 -35 16 15 6 31 5 43 -1
27 -15 55 3 69 44 6 19 10 41 9 48 -4 31 2 58 12 58 6 0 9 -7 5 -15 -3 -8 -2
-15 3 -15 11 0 22 40 15 52 -7 11 -31 10 -37 -2 -3 -6 -4 -5 -3 2 3 14 54 20
61 7 3 -4 14 -5 25 -2 24 6 16 23 -11 23 -13 0 -19 7 -19 23 0 33 -13 48 -30
37 -23 -15 -30 -12 -30 11 0 12 -5 19 -12 16 -7 -2 -12 -13 -10 -25 2 -11 -2
-23 -8 -27 -16 -10 -12 -23 11 -30 31 -10 15 -18 -21 -10 -23 5 -28 10 -20 19
16 20 40 109 34 128 -3 10 -11 15 -20 11 -24 -9 -16 12 13 34 16 11 42 48 58
81 17 34 35 63 42 66 8 3 10 -1 6 -11 -5 -13 1 -15 35 -11 30 2 42 0 42 -10 0
-25 38 7 50 43 6 19 16 36 21 36 5 1 14 2 20 3 19 2 37 56 19 56 -5 0 -10 -6
-10 -14 0 -13 -22 -15 -58 -7 -2 1 8 12 22 25 27 24 34 46 16 46 -5 0 -10 5
-10 11 0 5 5 7 12 3 8 -5 9 -2 4 11 -5 15 -4 16 9 5 8 -7 16 -10 16 -6 1 3 2
9 3 14 3 16 18 32 26 27 4 -3 11 2 14 11 9 23 8 24 -19 24 -14 0 -25 3 -25 8
1 14 41 55 47 48 4 -4 1 -11 -7 -16 -8 -6 -10 -10 -5 -10 6 0 3 -5 -5 -10 -12
-8 -11 -10 6 -10 12 0 24 -7 28 -15 3 -8 1 -15 -4 -15 -6 0 -10 -7 -10 -15 0
-8 -6 -15 -13 -15 -8 0 -14 -7 -14 -15 0 -8 4 -15 8 -15 9 0 39 28 40 38 1 4
3 27 5 51 2 25 10 48 16 53 8 5 0 8 -22 9 -35 1 -35 1 -6 8 17 3 29 11 28 16
-5 28 25 92 47 100 13 5 14 4 4 -6 -18 -18 -16 -49 1 -49 8 0 18 5 21 10 3 6
19 10 36 10 16 0 30 5 30 10 1 6 3 15 4 20 1 6 3 17 4 25 0 8 7 15 15 15 38 0
21 36 -30 66 -11 7 -18 21 -17 33 2 15 -1 20 -9 15 -6 -4 -8 -3 -5 3 3 5 25
16 49 23 24 8 45 17 48 21 3 4 12 0 20 -9 13 -14 12 -15 -2 -10 -10 4 -19 1
-22 -8 -3 -8 -11 -14 -18 -14 -9 0 -8 3 2 10 13 8 12 10 -3 10 -20 0 -62 -38
-52 -48 3 -4 9 -2 13 3 4 6 18 10 32 10 22 0 26 -4 24 -28 -2 -24 0 -26 13
-15 9 7 24 31 34 54 13 32 24 44 47 49 17 3 33 12 36 20 3 9 0 12 -10 8 -23
-9 -16 21 8 32 50 23 73 95 29 95 -26 0 -61 -29 -61 -51 0 -20 -15 -26 -25 -9
-3 6 -1 10 4 10 6 0 11 9 11 21 0 11 4 18 9 15 5 -3 14 8 21 24 12 29 30 41
30 20 0 -7 13 -8 36 -4 27 5 35 4 30 -5 -10 -16 -4 -14 32 13 24 17 29 25 18
29 -8 3 -20 -1 -26 -9 -14 -16 -30 -19 -30 -4 0 6 15 17 33 25 17 8 28 14 22
15 -13 0 16 20 30 20 6 0 3 -5 -5 -10 -21 -13 -6 -12 24 1 14 7 23 16 20 20
-3 5 3 9 13 9 25 1 53 24 53 44 0 10 8 16 25 16 14 0 30 9 37 20 7 11 18 20
25 20 7 0 13 7 13 15 0 8 5 15 11 15 6 0 27 14 46 30 36 32 48 36 58 20 8 -14
25 -3 20 13 -3 7 17 25 43 42 64 40 81 48 121 51 19 2 37 7 40 12 8 13 97 29
171 31 16 1 32 12 45 31 11 16 24 30 28 30 9 0 68 24 99 41 28 14 34 11 64
-28 15 -21 21 -32 12 -25 -14 11 -17 8 -26 -18 -6 -16 -17 -30 -25 -30 -7 0
-20 -11 -27 -25 -7 -14 -18 -25 -24 -25 -16 0 -94 -40 -106 -56 -7 -7 -19 -14
-26 -14 -19 0 -64 -40 -64 -57 0 -7 -4 -13 -9 -13 -5 0 -7 -9 -4 -19 3 -13 -2
-21 -16 -26 -12 -3 -26 -15 -31 -26 -22 -40 -51 -16 -58 50 -1 8 -8 11 -18 7
-8 -3 -12 -2 -9 4 3 6 -1 10 -9 10 -10 0 -16 9 -16 25 0 18 5 25 19 25 11 0
22 -6 25 -12 3 -7 4 2 3 20 -3 27 0 32 14 30 10 -2 25 6 33 17 12 15 18 17 24
7 9 -13 42 -7 42 8 0 20 -36 17 -100 -7 -8 -4 -21 -5 -27 -4 -7 1 -13 -8 -13
-19 0 -13 -8 -24 -19 -27 -10 -2 -24 -16 -30 -29 -6 -13 -16 -24 -23 -24 -7 0
-13 -11 -13 -25 0 -14 5 -25 11 -25 6 0 17 -7 25 -16 11 -14 13 -14 21 0 14
25 41 19 60 -13 19 -35 6 -54 -30 -44 -16 4 -22 1 -22 -11 0 -10 -4 -14 -10
-11 -5 3 -10 2 -10 -4 0 -6 -7 -8 -15 -5 -8 4 -15 10 -15 16 0 11 -25 38 -36
38 -4 0 1 -9 12 -21 18 -20 18 -21 -1 -35 -25 -18 -34 -18 -42 4 -4 9 -10 19
-13 22 -4 3 -12 14 -19 25 -11 18 -12 17 -8 -12 2 -18 0 -30 -4 -27 -13 8 -36
-52 -32 -83 5 -30 5 -30 46 -21 23 5 45 15 50 23 4 8 14 12 22 9 10 -4 15 1
15 16 0 18 5 21 28 19 17 -2 44 7 67 21 22 14 57 35 79 48 22 12 50 32 61 42
12 11 29 20 38 20 9 0 19 5 22 10 4 6 -6 10 -22 10 -22 1 -25 3 -12 10 18 11
89 30 139 37 19 3 40 10 47 15 7 5 17 7 24 3 8 -6 7 -10 -2 -16 -11 -7 -10 -9
4 -9 10 0 19 6 21 13 15 48 17 51 26 38 4 -8 6 -20 3 -28 -3 -7 2 -13 11 -13
18 0 20 17 6 55 -8 20 -15 25 -29 20 -11 -3 -22 -1 -26 5 -3 5 3 10 14 10 11
0 23 5 26 10 3 6 19 10 36 10 38 0 37 19 -1 33 -16 6 -30 15 -30 20 0 5 7 7
14 4 11 -4 13 -1 9 11 -4 9 5 3 20 -14 15 -18 27 -35 27 -39 0 -3 7 -13 15
-21 28 -28 10 -46 -24 -25 -24 15 -40 -16 -28 -50 l11 -28 15 22 c9 12 15 25
13 30 -1 4 3 7 8 7 6 0 10 -5 10 -11 0 -5 5 -7 10 -4 6 4 8 10 5 15 -6 9 10
27 53 62 12 10 22 14 22 8 0 -5 -4 -12 -10 -15 -20 -13 -8 -31 41 -62 28 -18
55 -33 59 -33 9 0 18 -51 12 -68 -7 -22 -22 -1 -22 30 0 23 -4 29 -16 24 -9
-3 -24 -6 -35 -6 -14 0 -19 -7 -19 -25 0 -22 3 -24 28 -19 27 6 29 4 24 -25
-4 -32 5 -40 26 -19 6 6 13 10 15 7 2 -2 18 -24 36 -48 17 -24 31 -39 31 -32
0 9 5 8 15 -3 8 -8 12 -22 9 -30 -4 -11 8 -29 37 -56 24 -22 46 -40 49 -40 4
0 4 -16 2 -35 -2 -19 -9 -35 -14 -35 -6 0 -8 6 -5 14 3 8 -5 26 -19 41 -20 22
-27 24 -45 14 -12 -6 -42 -9 -65 -6 -36 4 -44 2 -44 -12 -1 -11 -5 -8 -15 9
-7 14 -10 29 -5 35 5 6 7 27 5 47 -6 64 -26 78 -43 30 -5 -16 -17 -29 -26 -29
-18 0 -21 13 -6 22 16 10 11 45 -7 52 -9 4 -18 2 -20 -4 -2 -6 -13 -21 -24
-34 -17 -20 -18 -24 -4 -31 8 -5 27 -11 42 -13 79 -12 80 -13 53 -64 -20 -40
-50 -56 -50 -26 0 8 4 15 8 15 5 0 9 13 10 30 1 27 -1 28 -19 17 -15 -9 -19
-19 -15 -39 4 -21 0 -30 -15 -39 l-21 -11 23 -24 c12 -13 32 -24 44 -24 13 0
32 -13 46 -32 13 -17 30 -37 37 -44 6 -7 12 -17 12 -22 0 -6 5 -12 12 -14 7
-3 3 -16 -13 -37 l-24 -33 -3 33 c-3 24 -6 29 -13 18 -7 -11 -9 -9 -9 9 0 18
-4 22 -17 18 -10 -3 -22 -2 -28 2 -15 10 -35 49 -35 67 0 8 -5 15 -11 15 -5 0
-7 -4 -4 -10 3 -5 1 -10 -4 -10 -6 0 -11 5 -11 11 0 22 -30 39 -72 39 l-43 1
28 15 c15 8 31 12 36 9 5 -3 15 -3 23 0 15 6 18 70 3 70 -6 0 -9 -10 -7 -22 2
-16 -1 -21 -11 -17 -8 3 -20 -2 -27 -11 -17 -21 -41 -20 -33 3 5 13 1 12 -19
-6 -14 -12 -33 -24 -44 -26 -10 -2 -46 -17 -79 -32 -33 -16 -65 -29 -71 -29
-6 0 -18 -6 -27 -14 -9 -7 -21 -10 -27 -6 -7 4 -18 -2 -26 -14 -9 -12 -19 -19
-23 -17 -4 3 -21 -8 -36 -24 -15 -16 -32 -27 -36 -24 -4 2 -13 -5 -19 -16 -6
-11 -15 -18 -20 -15 -5 3 -11 1 -14 -4 -3 -5 -15 -7 -26 -4 -11 3 -20 0 -20
-6 0 -6 -13 -17 -30 -26 -16 -9 -30 -22 -30 -31 0 -8 -14 -23 -30 -32 -17 -9
-32 -24 -35 -33 -3 -9 -18 -19 -33 -22 -17 -4 -33 -16 -40 -32 -6 -14 -23 -30
-37 -35 -15 -6 -25 -17 -25 -30 0 -17 -3 -19 -19 -10 -25 13 -48 4 -55 -23 -5
-21 -5 -21 -27 -1 l-22 19 5 -32 c2 -18 1 -30 -4 -27 -4 3 -8 0 -8 -5 0 -6
-11 -11 -24 -11 -22 0 -36 -16 -36 -42 0 -7 5 -6 14 1 10 9 15 8 19 -3 9 -23
-12 -36 -39 -24 -20 9 -28 7 -50 -15 -29 -29 -84 -112 -84 -127 0 -6 12 -10
26 -10 20 0 25 -4 20 -16 -3 -9 -6 -18 -6 -20 0 -2 -8 -4 -19 -4 -13 0 -21
-10 -25 -34 -4 -22 -14 -37 -26 -41 -11 -4 -17 -12 -13 -21 3 -8 0 -21 -7 -29
-6 -8 -9 -18 -6 -23 3 -6 -1 -15 -8 -21 -12 -10 -13 -8 -9 10 4 16 2 20 -8 17
-8 -2 -15 -16 -17 -30 -2 -16 -11 -28 -23 -31 -11 -3 -19 -14 -19 -26 0 -12
-8 -29 -17 -39 -10 -10 -19 -27 -21 -37 -5 -29 -26 -47 -45 -39 -20 7 -23 44
-4 44 6 0 19 5 27 10 13 9 13 11 1 19 -13 8 -13 12 -1 26 8 10 23 21 35 25 18
8 18 9 1 9 -12 1 -16 6 -12 17 3 9 6 21 6 27 0 7 4 6 9 -2 8 -12 11 -9 16 11
8 32 49 73 64 63 6 -3 11 -1 11 4 0 6 -3 11 -8 11 -13 0 -7 73 7 96 17 26 51
49 51 34 0 -5 -4 -10 -8 -10 -12 0 -44 -59 -37 -70 11 -18 44 7 38 30 -3 11 0
20 6 20 14 0 14 30 1 50 -9 13 -11 13 -20 0 -5 -8 -10 -10 -10 -4 0 7 -12 14
-26 17 -22 4 -25 2 -20 -15 3 -12 -3 -28 -14 -40 -14 -16 -22 -18 -38 -9 -11
6 -22 17 -26 26 -3 8 -10 15 -16 15 -6 0 -8 -5 -4 -11 5 -9 -1 -10 -21 -5 -25
6 -26 6 -12 -9 9 -8 14 -22 11 -30 -4 -8 -2 -15 4 -15 6 0 4 -13 -5 -31 -19
-39 -5 -58 22 -29 10 11 13 20 7 20 -17 0 -15 16 4 34 21 22 68 22 60 0 -3 -9
-6 -20 -6 -25 0 -5 -7 -9 -15 -9 -18 0 -20 -16 -2 -23 7 -3 5 -6 -5 -6 -11 -1
-18 -9 -18 -22 0 -11 -4 -18 -9 -14 -6 3 -13 -10 -17 -30 -4 -25 -11 -35 -25
-35 -11 0 -19 -7 -19 -15 0 -8 4 -15 8 -15 5 0 -3 -25 -17 -55 -14 -30 -30
-55 -34 -55 -17 0 -18 32 -2 50 13 14 14 23 6 37 -6 10 -11 14 -11 8 0 -5 -7
0 -15 12 -9 12 -12 29 -8 40 7 17 6 17 -11 0 -10 -10 -16 -26 -13 -37 4 -16 2
-17 -14 -7 -10 6 -18 16 -18 22 2 20 -1 35 -8 35 -10 0 -9 -68 1 -77 3 -3 7 0
7 8 1 8 5 -4 8 -25 7 -43 26 -59 28 -25 3 30 20 46 34 32 7 -7 6 -14 -3 -25
-7 -7 -18 -23 -24 -33 -6 -11 -22 -22 -35 -23 -32 -5 -49 -20 -42 -39 3 -8 1
-18 -5 -22 -6 -4 -9 -17 -5 -29 3 -12 9 -19 14 -16 5 3 9 0 9 -6 0 -6 -8 -10
-17 -8 -18 3 -35 -43 -34 -93 0 -16 -6 -26 -14 -26 -11 0 -12 4 -4 14 13 15 1
17 -20 4 -13 -9 -13 -15 11 -93 12 -41 19 -46 37 -24 8 10 9 16 1 21 -13 8
-13 45 0 45 6 0 10 13 10 30 0 18 7 33 19 39 13 7 17 18 14 35 -4 17 1 27 16
35 11 6 18 17 16 24 -5 13 13 69 32 102 9 15 15 17 23 9 15 -15 2 -64 -16 -57
-9 3 -12 -2 -9 -18 3 -12 1 -27 -4 -33 -11 -14 -20 -76 -10 -76 4 0 12 13 17
29 6 16 23 47 39 69 26 35 31 38 41 23 9 -14 11 -13 12 9 0 22 2 23 11 7 5 -9
7 -23 2 -30 -4 -6 6 -4 21 7 25 16 28 16 23 2 -4 -9 -2 -16 2 -16 5 0 11 7 15
15 3 8 11 15 19 15 26 0 70 58 69 90 0 17 6 46 14 65 8 19 14 37 14 40 0 3 0
10 0 16 0 7 11 9 29 6 27 -6 29 -4 35 33 4 26 12 40 21 40 8 0 15 9 15 19 0
21 43 58 48 42 2 -6 10 -7 18 -4 11 4 12 9 3 19 -6 8 -15 11 -20 8 -5 -3 -9 1
-9 9 0 8 6 17 13 19 19 8 37 -2 37 -21 0 -9 9 -24 20 -34 25 -21 25 -33 1 -47
-14 -7 -22 -7 -26 0 -4 6 -11 8 -16 4 -6 -3 -3 -11 8 -19 15 -11 16 -16 4 -41
-14 -29 -17 -42 -24 -101 -2 -18 -12 -42 -21 -52 -16 -18 -19 -18 -37 -3 -17
15 -17 17 -2 34 11 12 24 16 37 12 17 -5 16 -3 -6 15 -31 25 -42 27 -34 6 3
-9 0 -15 -10 -15 -13 0 -15 -7 -9 -37 9 -50 23 -67 41 -52 20 16 18 -5 -2 -44
-9 -18 -21 -40 -26 -50 -4 -9 -6 -28 -2 -41 3 -15 -1 -34 -11 -49 -10 -15 -14
-34 -10 -50 4 -16 1 -30 -10 -41 -10 -10 -14 -24 -10 -36 4 -11 0 -29 -9 -41
-10 -15 -12 -27 -6 -40 7 -12 5 -19 -6 -23 -11 -4 -14 -14 -10 -33 8 -38 -6
-55 -45 -60 -36 -4 -54 -22 -38 -38 7 -7 13 -4 20 8 6 10 22 17 39 17 28 0 29
-1 19 -30 -12 -32 -27 -38 -47 -18 -9 9 -12 8 -12 -5 0 -10 -8 -17 -20 -17
-24 0 -26 -13 -5 -30 13 -11 18 -10 28 3 15 18 57 32 57 18 0 -32 -21 -60 -52
-67 -18 -4 -36 -7 -40 -6 -12 3 -10 -2 19 -54 19 -34 29 -44 31 -31 4 19 17
23 27 6 8 -12 -14 -69 -26 -69 -5 0 -8 5 -6 11 1 6 -8 13 -20 15 -17 3 -20 0
-16 -16 3 -11 1 -20 -5 -20 -15 0 -22 -41 -11 -62 8 -15 7 -23 -8 -34 -27 -20
-43 -17 -44 9 -1 21 -1 21 -8 -3 -5 -14 -18 -41 -29 -60 -12 -19 -22 -43 -22
-52 0 -11 -8 -18 -20 -18 -11 0 -20 -4 -20 -10 0 -5 -7 -10 -16 -10 -8 0 -12
-5 -9 -10 4 -6 10 -8 15 -5 4 3 11 -2 14 -11 4 -9 2 -13 -5 -8 -8 5 -9 -6 -4
-35 8 -49 0 -53 -19 -8 -14 30 -14 31 -15 7 -1 -19 -3 -22 -11 -10 -14 23 -25
2 -26 -53 -2 -63 -18 -127 -36 -139 -11 -8 -11 -10 0 -15 19 -7 -15 -43 -41
-43 -13 0 -17 -5 -13 -15 3 -8 1 -15 -5 -15 -5 0 -12 7 -15 15 -4 8 -10 12
-15 9 -6 -3 -16 0 -24 6 -12 10 -18 5 -35 -31 -21 -46 -24 -69 -14 -106 9 -32
25 -18 18 15 l-5 27 19 -22 c17 -19 20 -35 17 -105 -3 -100 -3 -101 -14 -94
-4 3 -8 -7 -8 -22 -1 -41 -7 -66 -18 -74 -6 -5 -6 -8 2 -8 11 0 153 117 153
126 0 2 -9 4 -20 4 -13 0 -20 -7 -20 -20 0 -13 -5 -18 -15 -14 -17 7 -21 44
-4 44 6 0 18 7 26 16 9 8 24 13 34 11 11 -3 19 2 22 14 6 23 27 25 27 3 0 -10
23 5 65 41 67 59 84 98 48 108 -13 3 -11 5 6 6 18 1 22 5 16 19 -7 16 -9 55
-5 77 6 34 -1 180 -10 189 -7 7 -10 4 -10 -10 0 -13 -7 -20 -21 -21 -29 -3
-19 19 19 37 21 10 32 22 32 37 0 12 5 25 10 28 7 4 7 12 0 24 -5 10 -7 21 -4
24 3 3 6 28 6 56 -1 57 8 68 38 49 25 -16 26 -37 3 -53 -17 -13 -17 -14 0 -32
23 -27 21 -38 -9 -51 l-25 -12 20 -27 c19 -23 20 -28 6 -43 -19 -21 -19 -44 1
-61 14 -11 12 -14 -12 -27 l-27 -14 27 -24 c31 -29 33 -44 7 -44 -28 0 -33
-27 -9 -50 l21 -20 -27 -25 c-15 -14 -24 -30 -21 -35 11 -17 22 -11 50 26 26
34 26 36 10 54 -15 16 -15 22 -5 35 16 19 36 19 44 0 3 -8 13 -15 22 -15 16 0
16 1 1 18 -10 10 -17 26 -17 36 0 9 -4 15 -8 12 -5 -3 -17 5 -27 16 -18 21
-18 22 6 37 13 9 34 26 48 39 13 12 28 22 32 22 5 0 6 12 3 28 -4 20 0 33 15
46 21 19 21 19 21 -7 0 -27 13 -36 25 -18 3 5 18 8 34 6 25 -3 28 -1 24 16 -3
11 -11 18 -18 15 -7 -2 -21 1 -30 8 -15 11 -16 15 -4 34 17 28 38 35 56 21 7
-7 15 -10 18 -8 5 6 31 152 34 194 3 43 23 -6 28 -68 4 -49 1 -80 -16 -130
-11 -37 -21 -73 -21 -82 0 -8 -4 -15 -10 -15 -5 0 -10 -9 -10 -21 0 -17 -4
-20 -23 -15 -32 8 -64 -17 -88 -69 -11 -24 -27 -46 -35 -49 -16 -6 -19 -46 -4
-46 6 0 10 4 10 9 0 22 87 92 128 103 42 10 43 12 41 47 -3 59 -1 63 20 51 18
-9 19 -13 7 -42 -15 -34 -11 -41 31 -65 28 -16 35 -6 19 26 -19 37 -26 84 -18
115 7 24 11 17 35 -56 15 -46 27 -90 27 -99 0 -9 8 -19 19 -22 15 -3 17 1 15
23 -2 18 4 34 18 46 21 19 21 19 8 -6 -12 -23 -12 -24 3 -12 9 8 20 11 26 8 5
-3 7 4 4 16 -4 19 -3 20 7 8 10 -13 11 -11 7 7 -3 13 1 24 9 27 17 6 19 82 3
92 -8 5 -8 9 1 14 9 5 9 17 1 44 -5 21 -7 44 -4 52 6 16 63 19 63 3 0 -5 4 -8
9 -5 4 3 19 -6 31 -19 13 -14 30 -25 38 -25 11 0 12 -3 3 -13 -12 -15 3 -37
27 -37 7 0 11 -4 8 -9 -6 -9 18 -20 86 -41 46 -14 249 -15 257 -1 4 6 22 17
41 26 35 16 35 16 -45 12 -48 -3 -87 0 -98 7 -11 7 -20 8 -25 1 -8 -11 -57
-14 -67 -3 -4 4 -12 5 -19 2 -14 -5 -53 33 -43 42 5 6 87 8 114 3 20 -3 33 2
33 14 0 14 14 18 60 18 54 -1 69 8 76 44 7 39 20 43 65 19 36 -18 35 -19 -17
-39 l-39 -15 40 5 c22 2 45 11 51 20 12 16 34 20 34 6 0 -5 -6 -12 -13 -14 -8
-4 -9 -6 0 -6 6 -1 18 5 26 13 8 8 24 12 40 9 32 -6 67 21 41 31 -9 3 -26 6
-38 6 -12 0 -31 7 -42 15 -18 13 -15 14 28 15 33 0 50 -5 56 -16 7 -13 14 -10
47 20 21 20 43 36 49 36 6 0 4 6 -4 13 -10 8 -15 25 -13 47 4 54 -10 77 -88
143 -8 7 -23 16 -32 20 -9 3 -17 11 -17 17 0 6 -5 8 -10 5 -6 -4 -10 -3 -9 2
4 22 -4 32 -42 58 -27 17 -60 29 -93 32 -28 3 -60 10 -71 16 -11 6 -34 10 -51
8 -18 -1 -35 2 -38 7 -3 5 -17 7 -31 4 -15 -2 -25 0 -25 8 0 7 -5 6 -15 -4
-14 -13 -21 -13 -62 -1 -40 12 -49 12 -55 1 -5 -8 -26 -17 -49 -21 -23 -4 -50
-16 -62 -28 -11 -11 -22 -16 -24 -10 -2 5 -14 8 -28 6 -20 -4 -23 -2 -18 16 4
15 1 21 -11 21 -9 0 -16 6 -16 14 0 8 -6 17 -12 19 -10 4 -9 8 2 16 13 9 8 15
-11 13 -10 -1 -2 61 11 91 7 15 19 27 27 27 7 0 13 5 13 10 0 6 -4 10 -10 10
-5 0 -10 9 -10 20 0 11 6 20 13 20 8 0 7 4 -3 10 -8 5 -10 10 -4 10 15 0 25
38 13 46 -5 3 -6 12 0 21 4 9 6 24 4 34 -4 13 0 19 11 19 10 0 14 5 11 10 -3
6 -2 10 4 10 5 0 13 9 16 20 3 11 11 20 16 20 5 0 9 -9 9 -20 0 -11 4 -20 9
-20 15 0 41 42 34 53 -3 6 -1 7 4 4 14 -9 37 19 28 33 -4 6 0 19 9 29 9 10 16
22 14 27 -3 12 46 64 61 64 6 0 11 5 11 10 0 6 -4 10 -9 10 -5 0 -8 11 -8 25
0 15 5 25 13 25 8 0 13 3 13 8 -4 22 2 42 11 37 6 -3 10 1 10 9 0 9 12 18 28
21 40 9 57 20 61 41 2 10 12 25 22 32 11 7 17 18 14 23 -4 5 -1 9 4 9 6 0 11
5 11 10 0 6 -11 10 -25 10 -35 0 -31 17 5 22 21 3 34 0 40 -11 10 -18 12 -13
24 40 3 15 19 41 36 59 16 18 27 36 24 41 -3 5 0 9 5 9 6 0 11 5 11 11 0 7
-10 9 -25 5 -14 -4 -25 -2 -25 3 0 17 19 22 41 11 17 -10 21 -8 26 9 4 17 9
19 24 10 15 -7 21 -6 25 6 3 8 13 15 20 15 28 0 64 32 64 57 0 36 32 65 66 61
29 -4 26 -8 -22 -23 -15 -5 -15 -7 2 -23 29 -26 61 -66 47 -58 -7 4 -13 4 -13
-1 0 -4 11 -13 24 -19 21 -10 26 -8 34 10 6 11 11 16 11 9 1 -7 8 -10 16 -6
13 4 15 -1 10 -27 -5 -29 -4 -32 9 -20 9 7 13 16 10 21 -3 5 0 9 6 9 7 0 10 6
7 14 -3 8 1 17 9 20 22 8 26 7 19 -4 -3 -5 -1 -10 6 -10 6 0 9 -8 6 -20 -7
-27 -3 -26 37 15 39 38 67 44 112 20 41 -21 74 -20 74 4 0 16 5 18 28 12 31
-9 39 -34 21 -67 -17 -33 -2 -44 20 -16 15 21 19 22 30 9 7 -9 11 -24 9 -34
-4 -26 24 -22 38 6 l12 23 13 -28 c9 -17 26 -31 44 -35 26 -7 28 -7 12 5 -16
13 -16 14 8 18 22 5 24 3 18 -21 -3 -14 -10 -34 -15 -45 -6 -11 -6 -16 -1 -13
5 4 10 0 10 -7 0 -9 -7 -12 -16 -9 -11 4 -13 3 -6 -4 16 -17 83 -35 105 -28
11 3 20 13 20 21 0 8 5 14 10 14 6 0 10 -6 10 -14 0 -8 13 -20 29 -27 17 -8
27 -18 24 -26 -3 -7 0 -13 7 -13 6 0 8 -5 4 -11 -4 -8 -9 -7 -15 2 -9 15 -9
15 -13 -18 -2 -13 2 -23 8 -23 6 0 21 -3 32 -6 17 -5 24 0 32 25 6 17 14 31
17 31 3 0 -2 -16 -10 -36 -19 -45 -19 -55 0 -30 8 11 18 16 22 11 5 -4 2 -10
-4 -12 -18 -6 -16 -23 2 -23 8 0 15 -7 15 -16 0 -12 7 -14 33 -9 17 4 29 4 25
0 -4 -4 -3 -18 2 -30 7 -19 5 -25 -8 -28 -10 -3 -9 -3 3 -2 11 1 29 6 40 11
17 6 18 5 8 -7 -10 -12 -8 -18 7 -32 11 -9 25 -17 30 -17 6 0 10 -8 10 -17 0
-34 24 -82 44 -87 20 -6 20 -7 -4 -25 -22 -18 -23 -20 -7 -27 13 -5 15 -10 6
-20 -11 -14 2 -51 18 -47 4 1 7 -5 5 -13 -2 -8 4 -14 13 -14 9 0 15 -9 15 -25
0 -17 4 -23 14 -19 19 7 29 -12 17 -33 -6 -10 -11 -12 -11 -5 0 6 -4 12 -9 12
-6 0 -3 -16 5 -35 18 -45 18 -45 -10 -45 -30 0 -48 -22 -40 -46 6 -18 6 -18
-8 0 -10 13 -17 15 -22 8 -12 -19 3 -32 45 -38 27 -5 39 -12 39 -23 0 -9 16
-27 35 -40 42 -29 34 -48 -26 -57 -21 -4 -36 -10 -33 -15 9 -15 -25 -22 -40
-9 -11 8 -20 8 -34 1 -23 -12 -35 -38 -21 -45 5 -2 4 -3 -3 -2 -7 2 -20 -2
-28 -8 -8 -7 -70 -23 -137 -35 -107 -20 -131 -29 -204 -72 -80 -48 -118 -56
-105 -23 3 9 6 26 6 39 0 26 39 67 120 126 30 21 64 46 75 55 11 8 30 17 43
20 12 4 22 12 22 20 0 8 9 14 20 14 28 0 25 28 -5 42 -18 8 -28 8 -39 -1 -8
-7 -33 -13 -55 -14 -23 -1 -41 -4 -41 -8 0 -4 -23 -13 -50 -20 -28 -7 -50 -16
-50 -21 0 -4 -8 -8 -17 -8 -22 -1 -43 -17 -66 -50 -15 -22 -17 -23 -18 -5 -1
11 -5 4 -9 -15 -7 -27 -5 -39 7 -53 15 -16 15 -17 -7 -15 -17 2 -25 -3 -28
-17 -2 -11 -11 -27 -19 -36 -9 -11 -12 -26 -7 -43 4 -19 2 -26 -9 -26 -15 0
-19 -51 -4 -66 4 -4 7 -15 7 -23 0 -24 34 -49 62 -46 31 4 108 51 108 67 0 6
3 9 6 5 10 -10 -26 -62 -57 -83 -30 -20 -34 -30 -21 -52 7 -9 16 -6 37 15 18
19 29 24 32 16 6 -16 103 -18 103 -2 0 7 -10 9 -26 5 -14 -4 -34 -4 -45 -1
-17 6 -16 9 13 33 18 15 41 35 51 46 19 18 20 17 37 -20 25 -58 36 -63 100
-52 82 15 100 25 127 77 1 1 6 0 12 -4 7 -4 1 -16 -14 -33 -32 -35 -31 -42 5
-42 20 0 30 5 30 15 0 10 10 15 30 15 l29 0 -17 -29 c-9 -16 -22 -27 -29 -24
-16 6 -45 -16 -37 -28 3 -5 -5 -9 -18 -8 -13 0 -54 -7 -91 -17 -94 -23 -75
-39 29 -25 91 13 164 38 164 56 0 7 18 20 40 29 22 9 40 23 40 31 0 8 4 15 9
15 14 0 20 64 7 72 -6 5 -2 8 11 8 16 0 23 8 28 30 4 17 10 30 15 30 8 0 21
39 17 51 -1 4 5 15 14 25 9 11 19 27 22 36 4 11 13 15 26 11 23 -6 29 -38 9
-46 -9 -3 -8 -9 5 -18 9 -8 19 -32 22 -54 2 -22 7 -56 11 -75 4 -19 8 -52 8
-72 0 -28 5 -38 17 -38 9 0 19 -8 23 -17 12 -37 61 -117 74 -121 16 -5 13 48
-2 60 -5 3 -10 15 -12 25 -1 10 -5 36 -9 58 -6 34 -3 43 14 59 12 11 21 25 21
33 0 7 6 13 14 13 10 0 19 -20 26 -57 17 -81 16 -112 -8 -163 -13 -30 -23 -77
-27 -140 -6 -85 -15 -116 -47 -170 -5 -8 -14 -27 -21 -43 -6 -15 -17 -25 -24
-23 -7 3 -13 -2 -13 -10 0 -20 -18 -37 -57 -53 -18 -7 -33 -17 -33 -22 0 -4
-15 -12 -32 -18 -18 -5 -53 -17 -77 -26 -24 -9 -50 -14 -58 -11 -7 3 -13 2
-13 -2 0 -5 -36 1 -79 11 -73 18 -131 18 -131 -1 0 -4 17 -15 38 -25 20 -9 60
-31 88 -48 43 -27 50 -35 49 -60 -2 -36 -36 -66 -89 -80 -67 -17 -96 -30 -115
-55 -10 -13 -21 -21 -24 -17 -3 3 -28 -2 -54 -10 -112 -37 -198 -58 -221 -54
-15 3 -26 -1 -29 -10 -5 -12 -7 -12 -14 -1 -6 9 -11 10 -16 2 -5 -6 -18 -16
-30 -23 -17 -9 -24 -8 -30 3 -8 14 -53 32 -53 21 0 -4 7 -14 16 -23 19 -18 18
-19 -49 -25 -40 -4 -47 -2 -45 12 2 9 -3 15 -10 13 -8 -1 -11 2 -8 7 19 31
-79 35 -244 11 -102 -15 -111 -15 -207 -12 -58 2 -63 4 -63 25 0 40 -11 66
-26 60 -17 -6 -37 42 -28 71 3 11 20 36 37 53 17 18 28 35 25 38 -8 8 -60 -14
-83 -34 -28 -26 -91 -53 -112 -49 -10 2 -19 12 -21 23 -2 11 -5 27 -8 35 -8
23 -24 -10 -18 -36 3 -12 1 -25 -5 -28 -6 -4 -11 -17 -11 -30 0 -12 -5 -27
-11 -33 -6 -6 -12 -21 -14 -34 -8 -66 -24 -147 -34 -172 -18 -46 -138 -153
-187 -167 -57 -16 -76 -37 -29 -32 47 6 44 -9 -11 -56 l-47 -40 17 -32 c9 -18
16 -47 16 -65 0 -17 5 -36 10 -41 18 -18 -8 -108 -41 -145 l-29 -33 0 30 0 29
-23 -27 c-16 -18 -31 -26 -45 -23 -12 2 -22 1 -22 -3 0 -4 -13 -13 -29 -19
-26 -9 -29 -9 -24 6 5 13 3 13 -15 -3 -12 -11 -25 -16 -29 -13 -3 4 -22 -3
-41 -15 -26 -16 -36 -18 -42 -8 -5 9 -9 9 -14 1 -4 -6 -14 -11 -23 -11 -13 0
-13 3 -3 15 19 23 -1 18 -27 -7 -19 -18 -23 -19 -23 -5 0 14 -3 14 -27 2 -24
-13 -28 -12 -43 6 -10 10 -27 19 -39 19 -23 0 -27 10 -10 27 5 5 11 21 13 34
1 14 6 30 10 37 4 7 3 12 -3 12 -5 0 -12 -9 -16 -19 -3 -11 -12 -22 -20 -25
-15 -6 -11 17 9 44 22 30 43 76 56 122 14 52 32 73 54 65 10 -4 20 7 32 39 9
24 21 44 25 44 5 0 8 4 6 8 -1 5 13 21 31 36 17 15 29 33 25 39 -4 6 0 8 10 4
8 -3 21 0 27 8 6 8 18 11 26 8 8 -3 22 1 32 9 9 8 25 18 35 21 15 6 17 3 12
-14 -6 -18 -3 -20 27 -18 20 2 39 12 48 25 18 25 140 137 167 153 17 9 17 11
-5 27 -20 14 -23 22 -17 52 10 52 28 84 74 125 46 41 39 51 -7 12 -35 -29 -42
-31 -42 -10 0 11 -7 14 -23 10 -29 -8 -54 25 -63 85 -10 63 -19 55 -19 -18 0
-57 -3 -67 -18 -70 -33 -7 -87 8 -87 23 0 8 -8 15 -19 15 -11 0 -25 13 -35 33
l-16 32 0 -44 c0 -34 -10 -62 -42 -115 -23 -39 -50 -82 -60 -95 -10 -13 -18
-32 -18 -43 0 -11 -14 -39 -30 -63 -17 -24 -30 -47 -30 -52 0 -4 -14 -22 -30
-40 -17 -18 -30 -36 -30 -42 0 -5 -16 -36 -35 -68 -39 -65 -41 -73 -20 -73 24
0 6 -31 -44 -78 -31 -30 -42 -45 -33 -51 8 -5 1 -21 -26 -58 -33 -45 -41 -51
-75 -51 -33 -1 -37 2 -32 19 4 11 2 19 -4 19 -15 0 -14 30 2 31 14 1 -22 17
-40 18 -7 1 -13 -5 -13 -13 0 -8 -7 -17 -17 -20 -14 -6 -14 -8 3 -21 15 -11
16 -16 7 -26 -10 -10 -19 -9 -43 9 -17 13 -27 16 -24 9 3 -8 19 -24 35 -36 25
-18 28 -25 18 -37 -7 -9 -20 -12 -33 -8 -18 6 -19 5 -7 -10 7 -9 9 -16 3 -16
-5 0 -15 7 -22 15 -7 8 -23 15 -36 15 -20 0 -22 -4 -18 -33 5 -25 1 -37 -19
-55 -22 -20 -28 -22 -48 -12 -20 11 -21 10 -14 -6 9 -21 18 -106 9 -86 -3 6
-9 12 -14 12 -9 0 -23 -39 -21 -57 1 -7 -3 -13 -9 -13 -5 0 -10 -7 -10 -16 0
-8 5 -12 10 -9 6 3 10 -3 10 -14 0 -12 -5 -21 -11 -21 -19 0 -40 -29 -38 -53
3 -29 -11 -98 -20 -93 -3 2 -11 -2 -18 -9 -10 -11 -10 -15 0 -19 9 -3 9 -7 1
-13 -18 -13 -31 -45 -39 -90 -5 -31 -12 -43 -23 -43 -14 0 -14 -2 -3 -9 17
-11 1 -66 -19 -66 -9 0 -22 -33 -38 -95 -13 -52 -27 -96 -32 -98 -5 -2 -7 -9
-4 -16 3 -7 -2 -19 -10 -26 -9 -7 -13 -16 -10 -21 2 -5 -7 -33 -21 -62 -14
-30 -25 -66 -25 -81 0 -15 -15 -57 -32 -94 -18 -37 -33 -70 -33 -74 0 -3 -3
-10 -7 -14 -5 -4 -8 -17 -8 -28 0 -16 -3 -18 -9 -7 -6 9 -8 5 -9 -14 0 -25 -6
-45 -38 -108 -8 -16 -14 -35 -14 -43 0 -8 -5 -14 -11 -14 -6 0 -8 -9 -4 -20 4
-12 1 -27 -5 -35 -6 -8 -9 -19 -5 -25 3 -5 2 -10 -4 -10 -5 0 -8 -14 -6 -30 2
-17 1 -30 -3 -30 -11 0 -31 -50 -26 -65 3 -7 0 -16 -5 -20 -6 -3 -9 -11 -5
-16 3 -5 0 -16 -6 -24 -6 -8 -9 -19 -5 -25 3 -5 0 -13 -9 -16 -8 -3 -14 -17
-14 -33 1 -16 -3 -34 -8 -42 -5 -8 -10 -23 -11 -34 -2 -10 -7 -22 -12 -25 -5
-3 -12 -21 -16 -40 -4 -19 -16 -50 -26 -68 -22 -39 -24 -46 -7 -36 17 10 -13
-28 -30 -39 -11 -7 -11 -12 -1 -24 11 -12 10 -17 -3 -24 -9 -5 -19 -26 -23
-46 -4 -21 -10 -42 -15 -48 -4 -5 -16 -41 -25 -80 -10 -38 -24 -74 -31 -78 -8
-4 -14 -19 -14 -32 0 -13 -5 -27 -10 -30 -6 -4 -8 -15 -5 -26 4 -13 2 -19 -6
-17 -9 2 -12 -12 -10 -48 2 -35 -2 -54 -13 -63 -8 -7 -18 -26 -21 -42 -4 -17
-11 -26 -17 -23 -7 5 -9 0 -6 -14 4 -13 0 -23 -8 -26 -8 -3 -14 -11 -14 -17 0
-7 -8 -18 -17 -26 -17 -13 -17 -13 1 -11 10 2 21 -3 23 -9 3 -7 -2 -13 -11
-13 -8 0 -20 -10 -27 -21 -8 -15 -8 -19 0 -15 16 10 13 -10 -3 -24 -8 -6 -12
-18 -9 -26 3 -8 0 -14 -5 -14 -6 0 -13 10 -16 23 -2 12 -3 3 -2 -20 3 -34 0
-44 -15 -48 -14 -5 -17 -13 -13 -29 4 -18 0 -25 -18 -31 -19 -6 -20 -8 -5 -12
9 -2 17 -9 17 -14 0 -6 -9 -7 -21 -4 -19 6 -21 4 -15 -19 5 -21 3 -25 -11 -20
-17 5 -17 5 0 -6 23 -15 22 -27 -5 -67 -15 -21 -32 -33 -48 -34 -17 -1 -19 -3
-7 -6 10 -3 17 -14 17 -30 0 -18 -4 -24 -15 -20 -22 9 -28 -10 -8 -23 15 -10
15 -11 1 -6 -22 6 -30 -4 -17 -21 9 -10 5 -13 -22 -14 -28 0 -31 -2 -14 -9 11
-5 16 -9 10 -9 -5 -1 -3 -6 5 -11 8 -5 10 -10 4 -10 -5 0 -20 -13 -32 -29
l-21 -29 22 5 c20 5 20 4 -5 -18 -26 -23 -39 -47 -19 -35 5 3 11 -3 14 -14 3
-11 1 -20 -3 -20 -17 0 -24 -71 -9 -82 11 -8 10 -9 -3 -4 -12 3 -18 0 -18 -9
0 -8 -6 -15 -14 -15 -7 0 -26 -18 -41 -40 -15 -22 -32 -40 -36 -40 -5 0 -9 -5
-9 -11 0 -7 12 -10 29 -7 20 3 27 0 24 -8 -2 -7 -10 -11 -17 -8 -16 6 -50 -31
-41 -45 4 -7 -3 -11 -16 -11 -22 0 -22 0 -3 -14 10 -8 15 -18 11 -23 -9 -8
-14 -9 -43 -12 -13 -1 -14 -4 -4 -16 7 -8 9 -15 5 -15 -4 0 -2 -6 4 -14 9 -11
9 -15 -1 -19 -9 -4 -7 -6 4 -6 9 -1 19 5 22 12 5 10 7 10 12 0 7 -16 329 -19
339 -3 3 6 11 10 16 10 6 0 7 -4 4 -10 -3 -5 3 -10 15 -10 17 0 20 4 15 23
l-7 22 21 -22 c26 -27 60 -30 67 -5 3 9 12 31 20 47 8 17 16 46 17 65 2 19 10
46 19 60 28 43 31 86 12 140 -20 55 -34 65 -31 23 1 -20 -2 -27 -13 -26 -12 2
-15 -11 -13 -80 1 -74 1 -78 -9 -42 -12 48 -16 165 -5 172 4 2 7 -1 7 -8 0 -8
4 -8 16 2 13 11 15 27 9 93 -4 58 -3 77 4 66 6 -8 11 -21 11 -28 0 -7 7 -20
15 -28 11 -11 13 -26 9 -53 -8 -48 8 -81 36 -74 12 3 20 0 20 -6 0 -7 4 -9 10
-6 5 3 10 13 10 22 0 11 -7 14 -25 11 -14 -3 -25 -1 -25 3 0 5 0 12 0 17 0 4
6 7 13 7 6 0 14 14 15 30 4 27 -11 199 -24 278 -4 29 -3 28 13 -10 23 -53 30
-59 38 -34 3 12 11 21 16 21 12 0 12 -57 0 -64 -10 -6 -8 -57 3 -74 5 -9 13
-9 26 -2 22 12 24 80 3 80 -18 0 -16 32 2 56 15 18 15 18 13 -6 -2 -14 2 -27
7 -30 6 -3 11 10 13 28 2 21 -2 34 -11 38 -12 4 -13 12 -7 35 18 62 23 166 9
205 -7 22 -12 51 -10 66 1 16 -6 35 -18 47 -24 24 -15 28 15 6 16 -10 20 -21
16 -41 -3 -19 -1 -25 7 -20 7 5 11 0 11 -13 0 -11 7 -42 16 -68 9 -26 17 -80
18 -120 1 -40 5 -76 10 -80 11 -11 5 176 -7 211 -6 16 -6 31 -1 35 5 3 10 14
12 25 3 14 -1 17 -12 13 -20 -8 -21 7 -1 23 8 7 15 23 15 36 0 48 17 31 29
-29 16 -77 15 -104 -4 -133 -17 -26 -20 -95 -5 -110 7 -7 6 -36 -1 -90 -6 -43
-12 -88 -12 -99 -1 -23 -31 -82 -39 -75 -3 3 -12 -1 -20 -8 -13 -10 -17 -10
-22 0 -3 7 -4 -5 -3 -27 2 -33 6 -40 22 -40 11 0 28 -10 38 -23 10 -12 22 -22
26 -22 14 0 44 140 38 180 -4 30 -2 37 9 33 20 -8 42 14 49 49 4 17 15 32 24
35 22 6 54 60 47 79 -3 7 -1 14 4 14 6 0 10 5 10 11 0 6 -7 9 -15 5 -13 -5
-13 -2 0 25 9 16 21 27 26 23 8 -4 7 -9 -2 -15 -7 -4 -11 -10 -8 -13 10 -10
50 26 45 40 -4 10 2 14 19 14 33 0 33 30 0 67 l-24 28 -1 -42 c0 -24 -4 -43
-9 -43 -5 0 -7 9 -4 20 3 11 0 26 -6 34 -9 10 -9 16 -1 21 6 4 10 14 9 23 -3
30 1 35 16 22 13 -11 15 -8 15 14 0 28 -9 33 -28 14 -9 -9 -12 -6 -12 16 0 24
2 27 15 16 10 -9 15 -9 15 -1 0 25 20 8 40 -34 18 -37 20 -48 9 -61 -10 -12
-9 -18 6 -32 17 -16 17 -16 11 2 -4 10 -1 35 6 55 11 35 12 35 19 11 8 -24 8
-24 7 5 0 17 0 35 1 41 1 14 38 11 53 -4 7 -7 18 -12 25 -12 7 0 13 -5 13 -11
0 -5 4 -8 9 -5 5 3 8 0 7 -7 0 -6 4 -13 9 -15 10 -2 16 23 15 66 0 12 6 22 14
22 8 0 28 12 45 27 24 22 31 35 31 65 0 36 -2 38 -31 38 -22 0 -41 -10 -64
-33 -18 -18 -37 -31 -42 -30 -5 2 -18 -6 -28 -17 -10 -11 -24 -20 -32 -20 -8
0 -20 -15 -28 -32 -8 -18 -15 -28 -15 -23 -1 6 -7 -3 -15 -20 l-13 -30 1 29
c1 16 -4 31 -11 34 -29 9 -44 36 -39 68 3 17 0 37 -5 42 -8 8 -3 10 17 6 16
-3 32 -7 36 -10 4 -2 10 9 14 24 3 16 19 39 35 51 16 11 48 49 70 82 31 46 39
67 34 87 -4 21 -3 24 5 12 9 -13 11 -13 11 3 0 9 5 17 11 17 12 0 7 195 -5
207 -3 3 -14 -1 -24 -10 -40 -36 -44 -11 -6 39 15 19 21 34 15 34 -6 0 -11 17
-11 40 0 22 5 40 10 40 6 0 10 -10 10 -22 0 -19 2 -20 10 -8 5 8 9 30 8 48 -1
18 4 38 10 44 8 8 11 -1 10 -37 0 -28 4 -51 11 -53 7 -2 6 -12 -4 -32 -18 -34
-19 -44 -5 -35 5 3 10 0 10 -7 0 -7 8 -22 16 -33 14 -18 16 -19 25 -3 7 14 14
14 38 5 17 -6 27 -15 25 -19 -3 -5 0 -16 7 -24 11 -13 10 -15 -2 -14 -32 5
-48 0 -43 -14 3 -8 13 -12 25 -9 14 4 19 0 19 -13 0 -26 26 23 35 67 6 27 5
31 -9 26 -9 -4 -16 -1 -16 5 0 6 -3 9 -6 5 -3 -3 -19 -1 -35 5 -24 8 -29 15
-29 43 0 19 -4 36 -9 39 -5 3 -9 29 -9 57 0 33 -5 55 -13 60 -12 7 -12 9 0 9
11 0 12 12 7 58 -4 31 -6 86 -5 122 1 36 0 72 -1 80 -4 41 2 115 10 118 14 5
12 26 -2 40 -9 9 -14 8 -22 -3 -14 -19 -76 -32 -76 -16 0 6 5 12 10 12 6 1 15
3 20 4 6 1 18 3 27 4 12 1 14 4 6 12 -8 8 -23 5 -56 -11 -25 -12 -51 -20 -58
-17 -10 4 -7 8 8 12 12 4 24 13 27 21 3 8 2 13 -2 11 -4 -1 -9 2 -11 8 -2 5
23 23 55 40 53 28 84 65 54 65 -22 0 -59 32 -53 46 8 21 18 17 31 -11 15 -33
42 -32 76 4 25 26 29 60 5 46 -5 -4 -9 1 -9 9 0 24 -29 46 -62 46 -21 0 -31 6
-35 20 -3 11 -10 20 -17 20 -6 0 -6 4 3 9 10 7 8 12 -10 25 -22 15 -22 17 -5
29 16 12 15 15 -13 51 -43 53 -39 74 5 29 26 -29 34 -44 30 -63 -5 -27 13 -60
33 -60 7 0 21 -9 33 -20 26 -24 58 -26 58 -5 0 8 5 15 10 15 6 0 5 8 -2 20
-10 16 -10 23 4 36 14 14 19 15 30 3 24 -24 29 -61 11 -81 -9 -10 -11 -18 -5
-18 6 0 9 -13 7 -30 -2 -16 0 -32 6 -35 5 -4 9 -14 9 -23 0 -12 -3 -13 -12 -4
-20 20 -30 13 -14 -10 21 -30 20 -41 -3 -28 -26 13 -36 -3 -19 -30 10 -16 10
-24 1 -40 -7 -10 -10 -26 -7 -35 4 -8 1 -22 -6 -30 -6 -8 -9 -22 -6 -32 3 -10
1 -43 -5 -73 -6 -30 -10 -69 -10 -87 1 -20 -6 -36 -17 -43 -15 -10 -14 -11 6
-7 33 7 31 -39 -3 -55 -13 -6 -22 -15 -19 -20 3 -5 11 -5 18 1 7 6 16 8 19 4
13 -12 7 -42 -10 -52 -10 -5 -14 -13 -10 -17 5 -5 11 -4 15 2 9 13 42 14 42 1
0 -5 -7 -7 -15 -4 -11 5 -13 0 -9 -22 6 -26 3 -30 -26 -36 -24 -5 -29 -10 -19
-16 9 -5 23 -2 36 7 14 8 23 10 23 4 0 -7 6 -8 19 0 11 5 33 10 50 10 28 0 30
2 21 25 -5 14 -7 31 -4 39 10 27 -16 96 -40 106 -15 5 -25 20 -30 40 -9 48 -7
88 4 95 6 4 8 10 6 14 -3 4 7 8 22 9 24 2 30 -5 55 -66 15 -38 27 -73 27 -79
0 -12 39 -25 51 -18 4 3 10 27 14 53 3 26 11 54 16 62 9 13 6 -37 -5 -104 0
-5 5 -11 12 -13 11 -4 18 34 13 74 -2 18 18 26 34 13 19 -16 19 -22 -3 -46
-10 -10 -18 -22 -19 -27 -4 -42 -14 -66 -26 -61 -17 6 -30 -33 -15 -42 5 -3 7
-12 4 -20 -3 -9 2 -14 14 -14 26 0 25 -12 -3 -38 -12 -12 -23 -34 -24 -49 0
-15 1 -20 4 -10 2 9 9 17 14 17 6 0 7 5 3 12 -5 8 -2 9 10 5 10 -4 16 -2 15 6
-4 25 21 69 36 63 8 -3 15 -1 15 4 0 6 -7 10 -16 10 -8 0 -12 4 -9 10 3 5 1
10 -4 10 -6 0 -11 7 -11 16 0 13 3 14 15 4 21 -17 31 13 16 46 -9 20 -7 31 8
60 11 19 22 31 25 25 4 -5 2 -12 -4 -16 -15 -9 -2 -25 19 -25 21 0 34 33 19
48 -11 11 -19 64 -8 57 4 -3 8 16 8 41 1 25 7 53 14 61 19 24 18 83 -4 136
-11 26 -23 47 -27 47 -3 0 -22 -13 -41 -30 -26 -22 -37 -26 -47 -18 -10 8 -19
6 -34 -8 -20 -18 -20 -18 -14 8 7 28 -11 49 -21 24 -8 -20 -24 -21 -24 -1 0 8
-7 15 -16 15 -13 0 -13 2 -2 14 8 8 23 16 34 19 16 4 16 5 2 6 -20 1 -21 3 -9
53 6 27 5 38 -5 42 -7 3 -15 0 -18 -7 -2 -7 -5 -4 -5 6 -1 9 4 17 9 17 6 0 10
7 10 15 0 17 45 21 55 5 3 -5 1 -10 -4 -10 -6 0 -11 -7 -11 -16 0 -24 28 1 32
29 2 12 10 22 18 22 9 0 15 9 14 21 0 13 6 21 15 20 11 -1 16 9 17 32 1 20 -4
32 -12 32 -15 0 -10 21 14 58 19 29 32 17 34 -31 1 -30 4 -35 15 -26 15 13 17
45 3 54 -17 10 9 54 33 55 4 0 7 -7 7 -15 0 -8 -5 -15 -11 -15 -7 0 -9 -14 -5
-43 19 -124 19 -121 -8 -150 -18 -19 -26 -38 -25 -60 2 -27 2 -28 6 -7 5 22
19 39 33 40 3 0 11 -14 17 -31 11 -28 14 -30 29 -19 14 13 14 15 0 26 -24 17
-21 43 4 37 17 -5 19 -2 14 24 -4 20 -1 33 10 42 14 12 15 8 12 -35 -3 -43 -2
-46 10 -29 8 10 14 25 14 33 0 22 -20 53 -31 47 -5 -4 -9 8 -9 24 0 17 -4 31
-10 31 -5 0 -6 7 -3 17 4 11 3 14 -5 9 -19 -11 -14 2 8 24 24 24 26 48 5 56
-9 4 -15 19 -15 41 0 19 -4 32 -9 28 -6 -3 -7 9 -4 30 5 31 3 37 -16 42 -12 3
-21 13 -21 24 0 24 9 24 26 1 12 -16 13 -16 14 0 0 9 -4 20 -10 23 -13 8 -13
56 1 75 9 13 10 12 5 -2 -3 -11 0 -18 7 -18 23 0 37 23 37 59 0 27 -3 32 -10
21 -5 -8 -10 -10 -10 -5 0 6 4 17 10 25 6 9 5 17 -3 22 -7 5 -2 7 12 6 13 -2
26 3 29 11 3 8 0 11 -7 7 -7 -5 -9 2 -5 23 4 20 1 39 -10 56 -19 28 -21 61 -4
71 7 4 8 3 4 -4 -4 -7 -1 -12 8 -12 8 0 16 5 18 11 6 17 48 1 48 -17 0 -8 -4
-12 -10 -9 -12 7 -13 -5 -2 -22 5 -8 13 -9 22 -3 8 6 23 10 33 10 15 0 16 -3
7 -20 -6 -11 -15 -18 -19 -16 -10 7 -13 -65 -3 -80 13 -20 49 -26 56 -9 4 10
11 13 18 8 18 -11 39 -10 68 4 31 16 38 8 15 -17 -17 -19 -15 -33 6 -36 20 -3
21 -4 12 -16 -6 -7 -13 -25 -17 -41 -3 -15 -13 -27 -22 -27 -11 0 -13 6 -9 21
5 15 4 19 -4 15 -13 -8 -14 -45 -2 -65 5 -7 13 -11 19 -7 5 3 13 -1 16 -10 4
-11 14 -14 33 -10 16 3 34 2 42 -3 11 -7 11 -12 -2 -31 -14 -21 -15 -21 -28
-2 -20 27 -64 36 -84 16 -12 -13 -19 -14 -28 -5 -8 8 -8 11 1 11 7 0 12 9 12
20 0 11 -4 20 -10 20 -5 0 -10 -7 -10 -16 0 -9 -7 -14 -17 -12 -11 2 -18 12
-17 26 0 12 -2 20 -5 17 -2 -3 -15 18 -28 46 -16 35 -21 55 -14 62 13 13 57
-15 66 -43 10 -31 34 -25 33 9 -1 19 -5 28 -14 24 -6 -2 -30 5 -53 17 -34 17
-41 18 -41 5 0 -8 -4 -15 -9 -15 -5 0 -8 12 -6 28 1 15 -2 30 -7 33 -7 4 -6
14 1 28 12 22 7 41 -10 41 -5 0 -9 -7 -9 -16 0 -9 -5 -12 -12 -8 -6 4 -8 3 -4
-4 3 -6 2 -13 -3 -16 -9 -6 26 -85 44 -98 5 -4 6 -10 2 -14 -4 -4 0 -18 9 -32
8 -13 13 -27 9 -30 -3 -4 -10 0 -15 7 -5 10 -8 6 -7 -12 1 -15 8 -27 15 -27 6
0 12 -5 12 -11 0 -5 -5 -7 -11 -3 -13 8 -29 -13 -29 -38 0 -14 5 -15 32 -7 26
7 34 6 41 -7 7 -12 12 -13 23 -3 11 9 14 7 14 -12 0 -13 -7 -32 -14 -42 -11
-14 -15 -15 -25 -3 -9 11 -8 15 5 20 15 6 15 8 -1 26 -13 14 -22 17 -29 10 -5
-5 -18 -10 -28 -10 -10 0 -18 -4 -18 -10 0 -5 6 -10 13 -10 8 0 7 -4 -3 -10
-14 -9 -7 -14 13 -11 5 1 11 -7 14 -18 5 -20 29 -35 43 -26 13 8 20 -51 10
-87 -13 -44 -13 -48 8 -49 10 0 12 -3 5 -6 -10 -3 -9 -12 2 -39 8 -19 11 -33
7 -30 -4 2 -7 -20 -7 -49 l0 -54 29 30 c23 23 27 35 22 59 -4 23 -2 30 10 30
10 0 14 6 10 15 -3 8 -1 15 4 15 5 0 10 -12 12 -27 2 -14 9 -28 17 -31 10 -3
11 3 6 27 -4 20 -3 31 4 31 6 0 11 9 11 20 0 11 5 20 11 20 6 0 9 6 6 14 -3 7
0 19 6 25 6 6 7 11 2 11 -6 0 -4 4 4 9 12 8 12 12 2 25 -8 10 -9 20 -3 32 8
14 11 11 21 -16 8 -24 8 -36 0 -46 -6 -8 -9 -23 -6 -34 6 -23 -18 -120 -31
-129 -5 -3 -12 -15 -14 -26 -2 -11 -11 -19 -19 -17 -8 2 -18 4 -23 5 -5 1 -13
-14 -18 -34 -8 -31 -13 -36 -30 -31 -17 4 -20 2 -15 -12 4 -10 7 -19 7 -21 0
-2 9 -1 20 2 11 3 20 1 20 -5 0 -6 -14 -13 -31 -17 -21 -5 -29 -11 -25 -22 3
-8 6 -19 6 -24 0 -17 18 -9 23 11 3 11 12 20 21 20 15 0 21 -17 17 -47 -1 -7
7 -13 17 -13 10 0 28 -11 40 -25 13 -14 27 -23 32 -20 6 3 10 2 10 -3 0 -5 15
-17 33 -26 17 -8 26 -16 19 -16 -10 0 -10 -4 0 -20 10 -15 10 -26 0 -53 -15
-42 -7 -73 14 -56 8 6 14 18 14 27 0 8 3 12 7 9 3 -4 15 5 25 20 10 16 18 24
18 19 0 -5 7 -3 15 4 20 17 19 55 -2 76 -21 21 -45 65 -39 72 3 2 11 -7 17
-22 8 -16 20 -26 33 -25 12 0 15 3 9 6 -7 2 -13 9 -13 14 0 4 7 6 16 2 11 -4
14 -13 9 -30 -4 -18 -1 -29 12 -39 17 -13 17 -14 -2 -7 -20 6 -20 6 -1 -16 16
-18 21 -19 28 -7 11 19 -2 77 -15 69 -6 -4 -8 0 -5 8 7 18 -28 63 -42 54 -5
-3 -7 0 -4 9 3 8 -1 25 -9 38 -22 34 -40 129 -29 151 2 4 23 -14 48 -39 24
-26 46 -45 49 -43 9 9 -8 49 -20 49 -7 0 -15 7 -19 15 -3 8 -27 25 -53 37 -55
26 -72 44 -66 69 3 10 -3 31 -12 47 -15 24 -16 35 -7 62 7 18 10 36 7 40 -3 4
3 25 12 46 22 52 24 95 5 117 -14 16 -13 17 8 17 18 0 22 4 18 25 -3 13 -1 26
5 28 5 1 -3 22 -18 45 -15 23 -32 39 -38 35 -6 -4 -8 0 -4 10 3 9 -1 21 -10
29 -14 11 -16 10 -10 -12 3 -14 0 -36 -7 -49 -13 -23 -13 -21 -11 25 1 27 -4
62 -12 78 -11 21 -12 26 -2 20 14 -8 69 -14 69 -7 0 2 -13 9 -30 14 -23 9 -28
14 -21 27 7 12 1 26 -20 52 -16 19 -29 43 -28 55 0 20 0 20 9 -1 9 -24 36 -38
45 -24 10 15 52 12 58 -5 4 -8 2 -17 -2 -20 -5 -3 -11 2 -15 10 -7 19 -26 19
-26 0 0 -8 5 -15 10 -15 6 0 10 -7 10 -16 0 -8 4 -12 10 -9 5 3 21 -5 34 -19
13 -14 31 -26 40 -26 9 0 16 -7 16 -15 0 -9 6 -12 15 -9 11 5 15 -1 15 -19 0
-14 4 -29 10 -32 6 -3 10 -23 11 -43 0 -27 2 -32 8 -18 6 15 10 10 20 -23 6
-23 9 -46 6 -51 -3 -6 3 -10 15 -10 17 0 19 -2 8 -14 -7 -8 -14 -10 -16 -5 -9
24 -24 5 -20 -26 2 -19 1 -35 -2 -35 -3 0 -7 -14 -8 -31 -2 -19 2 -28 8 -24
13 8 13 3 0 -30 -8 -20 -7 -30 4 -40 13 -14 26 -10 26 7 0 5 -5 6 -10 3 -5 -3
-10 1 -10 10 0 9 5 13 10 10 6 -3 10 -1 10 6 0 7 9 1 20 -11 16 -18 19 -32 14
-54 -10 -48 -34 -88 -55 -93 -10 -3 -16 -9 -13 -14 3 -5 0 -9 -6 -9 -10 0 -10
-29 -1 -88 1 -2 4 -1 9 1 4 2 18 -7 31 -20 15 -14 19 -23 11 -23 -9 0 -5 -8 9
-21 16 -15 20 -24 12 -32 -18 -18 -12 -27 19 -27 17 0 30 5 30 11 0 6 -7 8
-16 5 -8 -3 -12 -2 -9 4 3 5 -1 23 -10 41 -9 17 -14 33 -11 37 3 3 6 1 6 -3 0
-5 7 0 16 11 15 18 15 18 10 -7 -7 -35 12 -58 52 -63 31 -3 33 -1 29 19 -5 29
16 23 31 -8 l11 -22 0 23 c1 14 10 26 26 32 14 5 25 14 25 19 0 17 38 32 84
35 39 2 43 0 39 -18 -4 -21 -4 -21 8 -1 22 36 55 43 42 8 -4 -11 -2 -14 8 -11
7 2 16 15 20 29 5 16 7 18 8 7 1 -10 8 -18 16 -18 8 0 12 6 9 14 -3 7 2 16 10
19 9 4 16 16 16 27 0 15 7 20 29 20 24 0 30 5 35 30 3 17 11 30 18 30 14 0 98
86 98 101 0 4 -6 6 -14 3 -8 -3 -16 -2 -19 3 -3 5 4 9 15 9 12 0 38 -18 59
-41 21 -22 39 -35 39 -30 0 6 -15 26 -33 46 -48 51 -121 138 -130 155 -5 9 23
-17 62 -58 39 -40 71 -68 71 -61 0 6 -5 15 -11 18 -7 5 -3 16 12 31 12 13 27
21 32 17 6 -4 8 0 5 8 -3 8 -9 22 -13 32 -6 13 -2 17 19 17 29 0 34 20 11 44
-21 21 -19 24 15 20 16 -2 32 1 35 6 4 6 11 8 16 5 5 -4 9 -2 9 4 0 5 -6 12
-12 14 -8 3 -6 6 5 6 9 1 17 6 17 11 0 6 9 10 19 10 11 0 27 10 36 23 l16 22
-6 -26 c-4 -16 -2 -30 5 -34 16 -10 23 0 23 31 0 25 1 26 13 10 7 -10 17 -15
23 -11 6 3 19 1 28 -4 15 -8 15 -11 3 -12 -8 -1 -23 -1 -32 0 -10 1 -18 -3
-18 -8 0 -6 12 -12 28 -13 15 -1 41 -3 57 -4 17 -1 49 -3 73 -4 43 -2 47 -15
7 -22 -14 -2 -20 -12 -21 -41 -2 -20 1 -37 7 -37 5 0 9 5 9 10 0 6 5 10 11 10
6 0 8 -9 4 -20 -7 -21 10 -29 18 -7 2 7 8 8 13 3 5 -5 4 -11 -3 -13 -23 -8
-15 -35 10 -31 16 2 21 9 19 26 -1 15 11 40 34 68 33 40 35 45 20 59 -22 22
-20 35 5 35 16 0 19 4 14 20 -5 15 -2 20 12 22 10 0 23 2 28 3 6 2 14 3 19 4
6 0 1 8 -10 16 -18 14 -18 14 10 15 21 0 27 -4 22 -15 -5 -14 2 -17 39 -17 81
0 87 1 83 25 -4 20 -1 23 18 19 13 -2 30 4 41 15 11 10 26 19 34 21 8 2 19 10
25 18 6 7 16 14 22 14 5 0 13 11 16 25 4 14 13 25 21 25 8 0 15 5 15 10 0 6 7
10 16 10 17 0 64 44 64 59 0 5 7 11 15 15 11 4 14 13 9 32 -5 19 -3 25 4 20
13 -8 52 23 52 41 0 7 7 13 15 13 9 0 18 7 22 16 3 9 9 11 12 6 8 -11 133 -23
126 -12 -3 5 -3 21 1 35 5 19 12 25 28 23 16 -2 21 -9 19 -32 -3 -39 -31 -131
-55 -179 -19 -39 -20 -59 -1 -35 10 13 47 106 78 191 9 26 21 47 26 47 5 0 9
7 9 15 0 8 4 23 9 33 5 9 12 25 15 35 5 17 56 26 56 9 0 -4 30 -16 68 -26 37
-11 76 -25 87 -33 25 -16 39 -17 28 0 -10 15 -11 337 0 337 4 0 7 9 7 20 0 11
-4 20 -10 20 -18 0 -11 58 8 69 16 9 16 10 0 16 -31 12 -10 23 27 15 20 -5 35
-4 35 1 0 5 -14 12 -30 16 -32 6 -36 26 -7 31 10 2 17 -3 17 -12 0 -9 5 -16
10 -16 6 0 10 9 10 20 0 11 5 20 10 20 6 0 10 9 10 20 0 26 17 26 25 0 3 -11
13 -20 21 -20 8 0 14 -4 14 -10 0 -5 7 -7 16 -3 16 6 15 7 0 18 -16 12 -16 14
0 30 11 10 25 14 39 11 15 -4 25 -1 29 10 9 23 7 31 -3 15 -5 -8 -16 -11 -27
-7 -16 6 -16 7 1 20 10 7 15 18 11 24 -4 7 -2 12 3 12 6 0 11 -6 11 -14 0 -10
10 -13 38 -9 20 2 47 5 59 6 12 1 28 8 35 15 11 11 8 12 -13 7 -22 -5 -27 -2
-33 17 -10 38 -7 56 5 36 10 -18 40 -24 53 -11 4 4 13 8 19 9 41 3 77 18 78
33 0 10 2 11 6 4 7 -19 23 -16 23 5 1 16 1 16 14 0 17 -23 35 -23 31 0 -1 9 0
11 2 5 5 -15 83 -18 83 -3 0 6 -17 11 -37 12 l-38 1 35 4 c19 3 37 8 40 13 3
5 17 0 30 -11 21 -16 23 -20 10 -29 -13 -9 -13 -10 0 -10 8 0 24 -3 36 -6 18
-5 20 -2 16 31 -3 28 -7 34 -14 24 -7 -11 -8 -9 -4 4 3 10 6 23 6 28 0 5 5 9
10 9 6 0 10 -18 10 -40 0 -22 5 -40 10 -40 6 0 10 11 10 25 0 37 18 31 23 -7
3 -28 4 -27 5 10 2 40 3 42 23 32 15 -8 34 -8 70 -1 60 13 59 13 59 3 0 -5
-12 -13 -27 -19 -27 -10 -27 -11 -5 -12 34 -2 56 26 54 68 0 20 2 29 5 21 3
-8 12 -23 21 -32 14 -16 13 -18 -3 -18 -13 0 -15 -3 -6 -13 6 -8 26 -12 47
-11 31 3 34 1 23 -12 -10 -12 -9 -16 8 -20 15 -4 20 -13 18 -30 -1 -13 2 -24
6 -24 5 0 9 4 9 10 0 5 9 19 19 29 17 17 21 18 38 4 17 -14 17 -14 -4 -10 -41
9 -34 -12 7 -23 23 -6 48 -14 56 -17 10 -4 13 1 12 18 -2 13 -7 27 -13 31 -21
15 5 18 38 4 33 -13 36 -13 39 2 2 11 10 4 22 -22 14 -29 20 -35 27 -25 8 12
11 12 19 -1 5 -8 7 -23 4 -34 -4 -12 -2 -16 6 -11 7 4 9 18 5 37 -5 21 -3 33
6 39 10 6 10 9 2 9 -6 0 -14 -4 -17 -9 -9 -13 -46 -1 -46 15 0 7 -11 16 -25
20 -41 10 -29 26 18 23 35 -3 42 0 40 15 0 11 4 15 13 12 7 -3 16 -1 19 3 3 5
14 7 25 4 16 -4 20 0 20 21 0 14 5 26 11 26 6 0 9 -7 5 -15 -3 -8 -1 -14 3
-12 5 1 9 -2 9 -8 0 -5 -4 -9 -9 -8 -4 2 -13 -6 -19 -17 -6 -11 -15 -20 -21
-20 -6 0 -7 5 -4 10 11 18 -15 10 -36 -11 -28 -28 -19 -47 22 -41 30 4 31 6
14 18 -17 13 -16 14 14 14 20 0 30 -4 26 -10 -4 -6 -2 -17 5 -25 14 -16 -1
-27 -20 -14 -17 10 -37 12 -27 2 4 -3 -1 -12 -11 -20 -16 -13 -15 -14 7 -9 14
3 31 0 38 -6 10 -8 13 -6 13 6 0 12 10 16 40 16 29 0 40 -4 40 -15 0 -8 -8
-15 -17 -15 -15 0 -16 -2 -3 -10 10 -6 20 -3 32 10 27 29 21 47 -14 41 -5 0
-8 6 -8 15 0 12 -6 15 -25 10 -30 -8 -32 4 -5 29 19 17 20 17 31 -9 13 -27 46
-38 35 -11 -4 10 1 15 14 15 11 0 20 4 20 9 0 13 -27 21 -45 15 -11 -5 -13 -2
-9 10 7 18 20 21 29 6 3 -5 13 -10 21 -10 8 0 12 5 9 10 -3 6 -3 20 0 31 7 21
7 21 19 -2 9 -19 9 -27 -1 -37 -7 -8 -11 -18 -8 -23 3 -4 -1 -19 -9 -31 -9
-16 -11 -30 -5 -45 12 -31 19 -29 15 5 -2 15 -1 21 1 15 8 -22 21 -14 15 9 -4
17 -2 20 15 16 27 -7 38 1 47 34 5 22 3 26 -9 22 -8 -4 -15 -12 -15 -20 0 -8
-7 -14 -15 -14 -27 0 -16 25 25 54 23 17 24 17 3 11 -13 -3 -31 -2 -40 4 -15
9 -13 10 13 11 36 0 44 13 44 71 0 24 -5 39 -12 39 -9 0 -10 3 -2 8 15 10 18
270 3 288 -8 10 -8 14 0 14 8 0 11 700 11 2605 l0 2604 -292 0 c-211 -1 -295
-4 -300 -12 -6 -9 -8 -9 -8 0 0 9 -30 12 -110 12 -76 0 -110 -3 -110 -11 0 -9
-3 -9 -12 0 -7 7 -38 12 -69 12 -46 0 -58 -3 -62 -17 -4 -15 -5 -15 -6 -2 -1
13 -16 16 -90 16 -81 1 -90 -1 -99 -21 l-11 -21 0 23 c-1 18 -7 22 -36 22 -19
0 -35 -4 -35 -10 0 -5 -7 -10 -15 -10 -8 0 -15 -4 -15 -8 0 -13 47 -35 59 -28
6 4 11 2 11 -3 0 -6 -4 -11 -9 -11 -5 0 -7 -8 -4 -19 3 -10 0 -22 -6 -25 -7
-5 -11 3 -11 19 0 18 -7 28 -24 35 -13 5 -26 15 -29 22 -4 8 -8 5 -12 -9 -4
-13 -11 -23 -16 -23 -12 0 -11 27 1 35 5 3 7 11 4 18 -6 16 -175 19 -186 4 -4
-7 -12 -6 -22 2 -8 7 -21 11 -28 8 -8 -4 -7 -6 5 -6 20 -1 25 -51 5 -52 -7 0
-4 -4 7 -9 20 -8 20 -9 -1 -9 -12 -1 -33 -12 -48 -26 -20 -18 -26 -20 -26 -8
0 12 -3 13 -14 4 -10 -8 -16 -8 -25 3 -14 16 -59 27 -67 15 -5 -9 -34 -1 -32
9 2 19 -4 30 -17 36 -12 4 -13 2 -6 -13 6 -10 8 -21 5 -23 -2 -3 2 -11 11 -18
8 -7 15 -18 15 -24 0 -7 8 -21 19 -32 10 -11 22 -31 26 -45 7 -22 7 -23 -11
-9 -35 28 -41 35 -36 49 3 8 -1 12 -8 9 -19 -6 -19 -46 -1 -53 13 -5 14 -7 1
-15 -12 -8 -13 -13 -3 -29 15 -23 2 -35 -26 -26 -11 3 -22 1 -26 -5 -3 -5 -14
-10 -22 -10 -14 0 -13 4 5 20 12 11 28 20 37 20 9 0 14 4 10 10 -3 5 -12 7
-20 3 -8 -3 -15 0 -15 6 0 6 6 11 14 11 7 0 16 11 18 25 3 14 1 25 -3 25 -5 0
-9 -4 -9 -10 0 -5 -5 -10 -11 -10 -6 0 -9 14 -7 33 2 21 -1 31 -9 30 -8 -2
-13 7 -13 21 0 17 -7 26 -24 30 -30 7 -116 -4 -116 -15 0 -5 -9 -9 -21 -9 -11
0 -17 -4 -14 -10 3 -5 17 -10 31 -10 14 0 23 -3 21 -7 -7 -11 -161 -9 -166 3
-3 5 -14 17 -25 26 -13 11 -16 17 -8 18 9 0 11 7 7 19 -3 11 -1 22 5 26 11 7
-4 35 -20 35 -9 0 -7 -117 3 -126 4 -4 2 -13 -5 -21 -15 -18 -2 -29 16 -14 8
7 20 10 26 6 5 -3 15 -3 22 1 21 13 73 8 70 -6 -2 -11 0 -11 12 -1 10 8 16 9
21 1 3 -5 1 -10 -4 -10 -6 0 -11 -4 -11 -10 0 -5 9 -10 20 -10 11 0 20 -4 20
-9 0 -5 -9 -11 -20 -14 -21 -5 -28 -41 -10 -52 6 -4 8 -11 5 -16 -4 -5 0 -12
8 -15 17 -6 20 -54 3 -54 -13 0 -38 59 -30 71 3 5 0 17 -6 28 -7 13 -7 22 0
26 14 9 12 35 -2 35 -15 0 -48 -54 -48 -76 0 -8 7 -17 16 -21 9 -3 14 -13 11
-24 -3 -11 -1 -19 4 -19 16 0 10 -15 -12 -28 -20 -13 -21 -12 -14 17 4 20 3
31 -4 31 -6 0 -11 7 -11 15 0 8 -4 15 -10 15 -5 0 -7 -7 -4 -15 4 -9 0 -15
-10 -15 -9 0 -16 8 -16 20 0 11 7 20 15 20 21 0 19 26 -5 50 -11 11 -19 25
-17 31 1 6 -4 14 -10 16 -7 3 -13 0 -13 -6 0 -6 -8 -11 -17 -11 -14 0 -11 -6
12 -25 l30 -26 -32 6 c-27 6 -32 4 -27 -9 5 -13 -1 -16 -26 -16 -17 0 -29 4
-25 10 3 5 13 7 23 3 11 -3 9 0 -5 11 -13 10 -23 26 -23 37 0 25 16 25 23 -1
6 -25 29 -27 26 -2 -1 9 1 25 6 35 4 9 3 29 -1 45 -8 25 -9 24 -12 -16 -2 -28
-7 -42 -15 -39 -7 2 -13 9 -13 15 -1 7 -2 17 -3 23 0 5 -6 7 -11 4 -6 -4 -8
-16 -5 -28 2 -12 2 -16 -1 -9 -3 6 -10 12 -16 12 -6 0 -6 -6 2 -15 6 -8 9 -23
5 -35 -4 -13 -2 -20 6 -20 10 0 10 -3 2 -11 -6 -6 -9 -18 -6 -25 3 -8 0 -14
-5 -14 -19 0 -24 20 -10 37 12 15 8 16 -40 10 -48 -6 -52 -5 -41 9 10 13 10
17 -1 24 -8 5 -11 13 -6 17 4 4 13 0 20 -10 14 -18 66 -24 66 -7 0 6 -12 10
-26 10 -15 0 -32 7 -39 17 -17 23 -38 7 -30 -25 5 -22 4 -24 -10 -12 -18 15
-21 13 -30 -23 -5 -18 -3 -27 5 -27 7 0 10 7 6 15 -8 21 21 19 33 -2 9 -16 13
-16 31 -5 12 7 25 11 28 8 3 -3 2 -6 -3 -6 -4 0 -1 -8 6 -17 12 -15 12 -16 -7
-11 -12 3 -28 2 -35 -3 -11 -7 -11 -9 -1 -9 12 0 20 -15 37 -69 6 -20 4 -23
-9 -18 -9 4 -16 3 -16 -2 0 -5 10 -12 23 -16 12 -3 17 -9 10 -11 -7 -3 -22 0
-33 6 -20 11 -20 13 -6 29 21 24 20 30 -4 24 -11 -3 -25 -14 -31 -24 -11 -22
-34 -26 -26 -4 4 8 2 17 -3 20 -22 14 -8 26 26 23 20 -2 39 2 41 8 2 6 -16 10
-45 11 -46 0 -48 -1 -44 -23 4 -22 -5 -29 -30 -25 -5 0 -8 -8 -8 -19 0 -11 -4
-20 -10 -20 -14 0 -13 26 2 50 7 10 9 23 4 27 -4 4 -12 0 -17 -10 -14 -25 -38
-21 -49 8 -10 27 -17 30 -40 15 -12 -7 -10 -13 13 -34 15 -14 27 -28 27 -33 0
-4 -5 -2 -12 5 -18 18 -28 15 -28 -8 0 -11 -4 -20 -10 -20 -6 0 -6 9 0 26 13
33 13 34 -6 34 -11 0 -14 5 -10 16 5 12 1 14 -16 9 l-21 -7 22 23 c19 20 23
21 31 9 6 -10 10 -11 10 -3 0 7 7 10 15 7 10 -4 15 0 15 11 0 13 -6 16 -24 11
-34 -9 -55 18 -26 34 20 11 21 10 15 -12 -3 -13 -3 -18 2 -12 4 7 19 11 33 10
22 -1 25 -6 22 -34 -1 -17 2 -32 8 -32 11 0 12 47 2 70 -4 8 -16 15 -27 15
-11 0 -19 5 -18 12 3 12 -54 36 -68 28 -4 -3 -5 -28 -2 -55 5 -42 3 -50 -11
-50 -9 0 -16 -8 -16 -20 0 -11 -4 -20 -10 -20 -5 0 -10 11 -10 25 0 15 6 25
14 25 8 0 18 4 21 10 9 14 -25 60 -44 60 -13 -1 -12 -4 6 -19 19 -16 20 -21 8
-31 -8 -6 -27 -11 -42 -10 -50 4 -63 0 -63 -15 0 -8 -4 -15 -9 -15 -5 0 -14 7
-21 15 -10 13 -9 15 9 15 25 0 28 15 5 28 -11 6 -13 11 -5 16 16 10 14 26 -4
26 -8 0 -15 4 -15 8 0 10 -66 10 -75 0 -4 -4 -13 -4 -21 -1 -8 3 -14 0 -14 -7
0 -8 9 -10 24 -6 17 4 28 1 34 -10 8 -15 10 -15 15 0 11 28 36 19 32 -11 -2
-16 -4 -45 -4 -65 -1 -35 -3 -38 -30 -38 -16 0 -32 -6 -35 -12 -3 -7 -4 -4 -3
7 2 14 9 19 25 17 20 -3 22 1 22 37 0 23 -4 41 -10 41 -5 0 -10 -4 -10 -9 0
-5 -11 -12 -25 -15 -16 -4 -22 -11 -19 -21 4 -9 0 -15 -10 -15 -9 0 -16 7 -16
15 0 8 -7 15 -15 15 -8 0 -15 5 -15 10 0 6 15 10 34 10 19 0 38 5 41 10 8 13
-20 13 -63 1 -28 -8 -34 -7 -38 7 -15 46 -24 56 -19 20 6 -40 35 -103 35 -78
1 19 23 -16 27 -42 4 -25 -18 -22 -24 3 -4 16 -11 19 -29 15 -14 -4 -24 -2
-24 4 0 5 5 10 10 10 6 0 10 7 10 16 0 14 -3 14 -15 4 -12 -10 -19 -10 -27 -2
-14 14 -62 16 -54 3 3 -4 20 -11 38 -15 30 -6 31 -8 16 -20 -10 -7 -18 -19
-18 -26 0 -19 -11 -6 -14 17 -4 23 -34 30 -42 8 -6 -14 -7 -14 -18 1 -10 14
-16 14 -35 5 -18 -10 -20 -15 -10 -27 6 -8 10 -16 8 -17 -2 -1 -12 -9 -22 -17
-17 -12 -18 -11 -11 16 4 16 7 34 7 41 0 7 6 13 14 13 7 0 13 9 13 21 0 12 5
19 12 17 7 -3 13 -10 13 -16 0 -7 5 -12 10 -11 6 1 9 6 7 11 -2 6 4 18 12 27
14 15 13 17 -4 17 -10 0 -16 -4 -13 -9 3 -5 -1 -8 -8 -6 -42 5 -71 -2 -65 -16
3 -8 -1 -20 -8 -28 -8 -7 -13 -29 -12 -48 0 -19 -3 -35 -9 -36 -5 -1 -9 13 -8
32 2 34 1 34 -35 33 -20 -1 -31 -3 -24 -6 6 -2 12 -15 12 -28 0 -14 7 -27 15
-30 21 -8 19 -21 -5 -27 -21 -5 -37 8 -21 17 10 6 -9 56 -21 56 -15 0 -20 -23
-7 -31 11 -8 10 -12 -5 -24 -11 -8 -27 -15 -35 -15 -13 1 -13 3 2 11 14 8 15
14 7 24 -9 11 -16 9 -37 -11 -14 -13 -28 -22 -31 -19 -9 8 27 53 48 60 11 4
18 10 15 15 -3 5 1 10 7 13 7 2 9 8 5 13 -5 5 -15 1 -22 -10 -8 -10 -18 -15
-23 -12 -6 3 -12 0 -15 -6 -2 -7 -7 -10 -11 -7 -4 4 1 15 11 24 20 21 27 51
13 60 -6 3 -10 -3 -10 -14 0 -12 -7 -21 -15 -21 -8 0 -15 -9 -15 -20 0 -12 -5
-17 -14 -14 -10 4 -12 -2 -9 -20 3 -16 1 -26 -6 -26 -6 0 -11 9 -11 21 0 11
-4 17 -10 14 -5 -3 -10 -15 -10 -26 0 -10 -5 -19 -11 -19 -6 0 -17 -7 -25 -15
-18 -17 -34 -20 -34 -5 0 6 -7 10 -15 10 -8 0 -15 5 -15 10 0 13 13 13 28 -2
9 -9 16 -7 32 7 11 10 20 23 20 29 0 6 -5 5 -12 -2 -20 -20 -40 -15 -33 8 4
12 2 20 -5 20 -25 0 -38 -28 -38 -80 0 -49 2 -52 14 -35 10 13 17 16 24 9 15
-15 -22 -46 -44 -38 -12 5 -16 14 -12 30 4 13 1 24 -6 26 -9 3 -8 15 4 46 17
44 14 54 -8 25 -10 -15 -15 -16 -25 -5 -20 18 -27 15 -22 -12 3 -13 0 -27 -6
-30 -7 -5 -11 4 -11 23 0 26 -4 31 -25 31 -17 0 -25 -6 -26 -17 0 -13 -3 -11
-10 7 -6 13 -7 35 -4 47 4 18 1 23 -14 23 -10 0 -24 7 -31 15 -7 8 -22 15 -34
14 -21 0 -21 0 2 -9 32 -13 27 -23 -8 -15 -19 4 -30 3 -30 -4 0 -6 7 -11 15
-11 8 0 15 -5 15 -11 0 -7 12 -10 30 -7 32 5 41 -6 14 -16 -25 -10 -56 -7 -49
4 10 16 -21 23 -44 10 -12 -6 -19 -16 -15 -21 4 -7 10 -7 17 0 16 16 27 14 27
-5 0 -8 -5 -12 -11 -9 -6 4 -17 -1 -24 -11 -13 -18 -14 -18 -15 -1 0 9 -5 17
-11 17 -5 0 -7 5 -4 10 3 6 1 10 -4 10 -6 0 -11 -4 -11 -9 0 -5 -13 -14 -30
-19 -25 -9 -30 -8 -35 8 -3 11 -1 28 4 39 6 11 11 30 10 43 -1 22 -2 22 -12
-4 -12 -32 -27 -37 -28 -10 0 14 -3 13 -16 -5 -11 -17 -26 -23 -52 -24 -32 0
-33 -1 -13 -9 22 -10 31 -30 11 -30 -5 0 -7 -5 -4 -10 8 -12 -3 -50 -14 -50
-5 0 -11 18 -15 40 -3 22 -11 40 -16 40 -6 0 -10 -4 -10 -10 0 -15 -26 -12
-40 5 -16 19 -44 20 -37 1 6 -16 -16 -40 -26 -29 -13 12 -7 43 8 43 21 0 19
13 -6 28 -18 12 -21 11 -26 -7 -3 -12 -10 -21 -15 -21 -6 0 -8 6 -5 14 3 7 0
19 -6 25 -8 8 -7 11 3 11 11 1 10 4 -3 11 -10 6 -21 8 -24 5 -4 -3 -2 -6 3 -6
5 0 9 -18 9 -41 -1 -44 -14 -59 -58 -59 -24 0 -27 -3 -22 -20 4 -12 2 -20 -5
-20 -7 0 -14 9 -17 20 -3 12 -14 20 -27 21 -16 1 -15 3 8 9 16 5 33 7 38 4 4
-3 8 11 8 31 0 25 4 35 13 32 7 -2 11 -16 9 -32 -2 -19 1 -26 10 -23 7 3 14
19 16 36 3 28 0 32 -22 32 -18 0 -26 6 -27 18 -1 9 -4 1 -8 -18 -4 -21 -14
-39 -27 -45 -46 -23 -52 -33 -46 -82 3 -32 2 -44 -6 -39 -6 4 -9 13 -5 21 3 8
0 15 -6 15 -6 0 -11 11 -11 25 0 26 -14 33 -25 15 -5 -8 -11 -8 -20 0 -9 8
-14 6 -19 -5 -3 -8 -10 -15 -15 -15 -5 0 -5 12 2 30 8 22 14 27 24 18 7 -6 22
-8 33 -5 11 3 20 1 20 -4 0 -5 5 -9 10 -9 6 0 10 9 10 21 0 14 -5 19 -14 16
-21 -8 -26 2 -16 29 5 13 6 24 2 24 -10 0 -39 -20 -29 -20 9 0 -18 -30 -27
-30 -3 0 -6 9 -6 20 0 11 -4 20 -10 20 -5 0 -10 -13 -10 -29 0 -26 -3 -30 -27
-28 -38 3 -43 34 -9 47 33 12 34 24 1 16 -14 -4 -25 -2 -25 4 0 5 -7 10 -15
10 -8 0 -15 -4 -15 -10 0 -5 7 -10 16 -10 13 0 14 -3 5 -14 -7 -8 -11 -22 -9
-32 5 -26 -17 -28 -30 -2 -6 13 -11 17 -11 11 -1 -16 -31 -17 -31 -2 0 6 9 13
20 16 37 10 21 26 -20 20 -27 -3 -43 -1 -51 9 -7 8 -9 17 -5 21 3 3 6 0 6 -8
0 -12 2 -12 9 1 12 18 5 30 -20 30 -11 0 -19 7 -19 18 0 14 -2 14 -9 3 -6 -9
-6 -22 0 -33 14 -26 1 -68 -22 -68 -10 0 -19 -6 -19 -12 0 -7 -11 -14 -25 -14
-27 -2 -33 14 -13 34 10 10 10 15 -2 22 -29 18 -38 11 -34 -27 3 -29 2 -33 -5
-18 -9 18 -10 18 -10 -6 -1 -27 -17 -39 -52 -39 -24 0 -25 -15 -1 -30 15 -10
15 -11 -5 -7 -13 3 -24 -1 -27 -9 -7 -18 -26 -18 -26 0 0 8 -7 16 -15 20 -18
6 -20 26 -4 26 7 0 17 -7 23 -16 10 -14 14 -12 26 10 13 25 6 51 -8 30 -4 -6
-19 -13 -34 -16 -21 -4 -28 -1 -28 11 0 13 11 17 55 17 40 1 55 -3 55 -12 0
-8 4 -14 10 -14 5 0 7 7 3 16 -3 8 4 25 16 38 17 18 19 25 9 29 -10 4 -10 6 0
6 7 1 12 14 12 31 0 17 5 30 10 30 6 0 10 -6 10 -12 0 -7 13 -26 28 -43 27
-30 52 -43 52 -26 0 5 3 16 6 25 4 11 1 16 -11 16 -12 0 -15 5 -9 23 3 12 3
19 -1 15 -5 -4 -14 -3 -22 3 -9 9 -13 8 -13 0 0 -6 5 -11 10 -11 6 0 10 -7 10
-15 0 -23 -16 -18 -34 10 -9 13 -16 26 -16 29 0 3 23 6 50 8 l50 3 -26 30
c-25 28 -26 28 -19 6 7 -22 5 -24 -24 -18 -23 5 -31 3 -31 -8 0 -8 -4 -15 -10
-15 -5 0 -10 6 -10 13 0 8 -3 8 -9 -2 -5 -8 -7 -20 -4 -27 6 -17 -16 -29 -30
-15 -9 9 -8 14 3 21 11 7 5 10 -23 10 -25 0 -36 -4 -31 -11 4 -8 -1 -9 -16 -4
-15 5 -20 4 -16 -4 12 -18 -4 -34 -20 -20 -8 6 -14 7 -14 2 0 -5 -16 -9 -35
-9 -38 1 -48 20 -15 29 20 5 28 27 10 27 -5 0 -10 -5 -10 -11 0 -7 -10 -9 -25
-5 -31 8 -56 -28 -32 -47 8 -7 17 -20 21 -31 5 -14 2 -17 -10 -12 -8 3 -18 6
-20 6 -2 0 -4 7 -4 15 0 8 -9 15 -20 15 -11 0 -20 -5 -20 -11 0 -5 4 -8 9 -4
5 3 12 1 16 -4 3 -5 -2 -14 -12 -19 -14 -9 -15 -13 -4 -26 7 -9 20 -16 29 -16
17 0 41 -28 42 -48 0 -7 -5 -10 -10 -7 -6 4 -8 10 -6 14 3 4 -11 13 -30 20
-22 8 -36 21 -40 37 -6 24 -28 32 -39 14 -3 -5 -3 -16 1 -22 19 -30 12 -88
-10 -88 -9 0 -13 13 -12 38 1 38 1 38 -44 25 -8 -2 -24 3 -35 12 -20 16 -20
16 4 11 34 -7 71 20 70 53 0 23 -1 24 -8 6 -7 -17 -9 -16 -15 13 -5 21 -3 38
4 47 6 8 10 22 7 32 -4 15 -5 14 -6 -3 0 -12 -8 -25 -17 -28 -11 -4 -14 -13
-11 -28 4 -12 1 -28 -5 -35 -7 -9 -6 -14 6 -19 9 -3 13 -10 10 -15 -3 -5 -14
-5 -25 1 -28 15 -42 2 -35 -31 4 -22 2 -29 -9 -29 -8 0 -15 5 -15 12 0 9 -3 9
-12 0 -7 -7 -27 -12 -44 -12 -18 0 -35 -4 -38 -9 -10 -15 -59 -23 -66 -10 -14
21 -32 -1 -25 -31 5 -23 2 -30 -14 -35 -11 -3 -29 -1 -38 5 -13 8 -14 10 -3 9
30 -3 40 1 40 17 0 8 -3 13 -7 11 -5 -3 -9 7 -9 21 -1 15 1 21 3 14 4 -10 8
-8 18 5 12 16 16 16 36 4 17 -10 24 -10 27 -2 2 6 17 11 33 11 16 0 32 6 35
14 3 8 15 11 31 8 24 -4 25 -3 19 22 -5 21 -3 26 12 26 26 0 54 33 46 54 -8
22 -28 15 -32 -11 -2 -11 -14 -26 -28 -33 -13 -7 -24 -20 -24 -29 0 -12 -2
-13 -8 -3 -7 9 -13 8 -27 -8 -10 -11 -24 -20 -32 -20 -18 0 -16 27 3 34 8 3
13 10 10 14 -3 5 6 15 19 22 14 7 25 16 25 20 0 9 -61 43 -67 36 -3 -3 6 -11
21 -17 32 -15 33 -23 1 -37 -14 -6 -25 -17 -25 -23 0 -7 -8 -18 -17 -25 -16
-12 -16 -15 -3 -24 20 -13 4 -13 -22 1 l-20 11 21 14 c12 9 21 24 21 35 0 10
5 19 11 19 16 0 5 25 -12 25 -8 1 -13 6 -11 13 1 7 -2 12 -8 12 -11 0 -14 -33
-3 -44 10 -10 12 -36 3 -36 -18 0 -40 -33 -35 -51 4 -11 2 -19 -4 -19 -6 0
-11 7 -11 15 0 8 -7 15 -15 15 -8 0 -15 9 -15 20 0 22 16 27 23 8 2 -7 10 7
16 32 7 25 15 53 18 64 3 13 1 17 -8 14 -8 -3 -13 -13 -13 -22 1 -9 -3 -16 -8
-16 -6 0 -8 -9 -5 -20 3 -11 1 -23 -4 -26 -9 -5 -13 15 -11 49 1 9 -3 17 -8
17 -6 0 -10 -16 -10 -36 0 -28 -3 -35 -15 -30 -8 3 -15 1 -15 -4 0 -6 -9 -10
-20 -10 -26 0 -26 -16 0 -23 13 -3 20 0 20 9 0 24 17 15 24 -12 9 -34 2 -40
-29 -26 -15 7 -26 8 -30 1 -9 -14 -27 1 -21 17 3 7 1 16 -5 19 -5 4 -6 11 -3
17 4 6 2 8 -3 5 -6 -4 -11 -23 -11 -43 0 -19 -2 -38 -6 -41 -3 -3 1 -11 8 -18
17 -17 69 -7 62 11 -3 8 -1 14 3 14 11 0 21 -26 21 -53 -1 -22 -1 -22 -16 -2
-12 17 -16 18 -24 5 -7 -11 -14 -12 -32 -3 -13 6 -31 14 -40 17 -22 7 -24 26
-3 26 8 0 15 5 15 10 0 6 -7 10 -15 10 -8 0 -15 -4 -15 -9 0 -5 -12 -11 -27
-13 -16 -2 -32 -12 -39 -25 -12 -26 -24 -20 -24 13 0 13 -5 26 -10 29 -6 4 -8
16 -4 27 5 18 3 20 -12 13 -11 -4 -30 -10 -44 -13 -14 -3 -37 -18 -51 -35 -17
-21 -28 -27 -33 -19 -4 7 -2 12 3 12 17 0 13 17 -5 24 -9 4 -22 2 -29 -4 -7
-6 -15 -6 -22 1 -8 8 -13 8 -17 0 -14 -21 -26 -10 -26 23 0 45 -24 66 -42 37
-13 -22 -38 -29 -38 -11 0 6 -7 10 -17 10 -15 0 -15 -1 0 -18 19 -20 23 -62 7
-62 -5 0 -9 -3 -9 -7 3 -20 -2 -27 -11 -13 -6 10 -4 20 8 33 16 17 15 19 -1
28 -9 6 -17 17 -17 24 0 8 -4 15 -10 15 -5 0 -9 6 -7 13 1 6 -7 12 -18 12 -11
0 -25 10 -31 23 -10 20 -12 21 -18 7 -3 -9 -3 -28 0 -42 5 -18 3 -24 -5 -19
-6 4 -11 14 -11 22 0 8 -4 14 -10 14 -9 0 -15 -54 -11 -89 2 -7 -4 -11 -11 -9
-16 6 -15 111 1 116 6 2 11 11 11 19 0 11 -6 8 -20 -10 -11 -14 -20 -37 -20
-52 0 -15 -4 -24 -10 -20 -6 4 -8 11 -5 16 4 5 -1 9 -9 9 -10 0 -13 -6 -10
-15 4 -9 0 -15 -10 -15 -22 0 -20 -36 3 -59 11 -11 22 -17 25 -13 3 3 6 1 6
-5 0 -6 -7 -13 -15 -17 -9 -3 -15 0 -15 9 0 8 -8 15 -19 15 -14 0 -17 6 -13
26 4 20 2 25 -8 19 -9 -5 -11 -4 -6 4 4 6 0 18 -8 27 -23 23 -20 44 7 43 12 0
16 -3 10 -6 -20 -8 -15 -33 7 -33 13 0 18 5 14 15 -4 10 0 15 11 15 9 0 15 6
12 13 -2 6 -11 11 -20 9 -12 -2 -16 6 -15 38 0 23 7 47 14 55 8 8 11 21 7 31
-6 16 -7 16 -14 -2 -7 -18 -8 -17 -8 3 -1 24 -16 37 -31 28 -7 -5 -8 -11 -1
-19 10 -12 -3 -46 -13 -35 -9 8 -9 62 -1 82 5 12 3 17 -9 17 -9 0 -16 -6 -16
-12 0 -9 -3 -9 -9 1 -6 9 -16 11 -27 7 -18 -7 -18 -8 1 -18 43 -24 41 -42 -5
-52 -17 -3 -29 -10 -25 -15 3 -5 1 -12 -5 -16 -6 -4 -8 -10 -5 -15 3 -5 1 -11
-5 -15 -13 -8 -13 31 0 56 6 10 21 19 33 20 21 1 19 2 -22 15 -10 3 -11 7 -2
18 10 11 8 16 -9 21 -28 9 -36 0 -19 -21 12 -15 11 -16 -9 -10 -16 5 -24 3
-28 -8 -3 -9 -12 -16 -19 -16 -18 0 4 48 25 54 8 2 -142 4 -335 4 -246 1 -345
-2 -335 -9 12 -8 10 -9 -5 -3 -11 5 -71 10 -132 12 l-113 3 0 -1474z m6245
1453 c3 -5 15 -10 26 -10 12 0 19 -7 19 -20 0 -23 -18 -27 -26 -5 -10 25 -27
17 -22 -10 6 -28 -6 -34 -16 -9 -8 21 -19 11 -23 -21 -4 -27 6 -32 25 -13 9 9
12 8 12 -5 0 -10 8 -17 20 -17 17 0 19 4 14 25 -6 24 -4 25 19 20 25 -7 26 -6
17 23 -6 23 -5 34 6 43 20 17 26 6 14 -25 -5 -15 -7 -32 -4 -37 3 -6 -10 -25
-30 -43 -29 -28 -37 -32 -47 -20 -11 13 -29 11 -29 -5 0 -4 9 -17 20 -29 12
-12 16 -22 10 -22 -16 0 -12 -28 5 -32 12 -2 11 -6 -6 -16 -11 -8 -18 -9 -15
-3 4 5 -4 17 -16 26 l-23 15 22 6 c42 11 13 24 -42 19 -34 -4 -55 -2 -55 5 0
5 -9 10 -20 10 -11 0 -20 5 -20 10 0 6 -5 10 -11 10 -5 0 -7 -4 -4 -10 4 -6
-3 -9 -16 -7 -12 1 -24 -4 -26 -10 -3 -7 2 -13 11 -13 23 0 20 -14 -13 -49
-27 -29 -29 -30 -45 -12 -18 20 -10 37 10 20 10 -8 17 -7 29 4 19 20 19 27 -1
27 -10 0 -14 6 -10 15 3 8 -6 27 -19 43 -14 16 -22 32 -18 36 12 11 21 6 27
-16 5 -19 8 -21 16 -8 7 10 12 12 18 4 4 -6 21 -11 39 -11 17 0 39 -7 48 -16
19 -20 50 -23 39 -4 -6 10 -4 10 7 0 18 -18 49 -16 49 2 0 8 -4 15 -10 15 -5
0 -10 -4 -10 -10 0 -5 -5 -10 -11 -10 -6 0 -9 9 -6 20 3 11 1 23 -4 26 -5 3
-9 0 -9 -5 0 -6 -7 -11 -15 -11 -26 0 -16 21 16 32 28 9 30 14 25 41 -5 25 -4
28 9 17 19 -16 40 -3 24 16 -9 11 -8 14 4 14 9 0 19 -4 22 -10z m-2001 -2742
c33 -31 -4 -60 -86 -67 -10 0 -18 -8 -18 -16 0 -8 -9 -15 -20 -15 -11 0 -20
-4 -20 -10 0 -5 -11 -10 -25 -10 -17 0 -23 -4 -19 -14 3 -9 -3 -17 -15 -21
-28 -9 -26 -26 4 -49 18 -13 22 -23 16 -35 -5 -9 -6 -22 -4 -28 3 -7 -2 -13
-10 -13 -13 0 -74 106 -65 115 2 2 17 21 33 41 17 20 37 43 47 52 16 15 82 43
106 44 11 1 16 12 13 31 -2 12 49 8 63 -5z m-3924 -360 c0 -4 5 -8 10 -8 6 0
10 9 10 20 0 20 1 20 30 5 23 -12 30 -13 31 -3 0 10 2 10 5 1 3 -7 12 -9 20
-6 9 3 12 0 9 -9 -5 -12 1 -15 24 -14 16 1 29 5 28 9 -1 5 8 16 21 24 20 14
22 14 16 0 -4 -12 2 -18 20 -23 13 -3 30 -3 35 1 6 3 11 -1 11 -10 0 -12 5
-15 16 -11 9 3 20 6 25 6 6 0 8 10 5 23 -3 12 -3 17 0 11 3 -7 13 -10 23 -7
10 3 22 0 25 -6 4 -6 12 -11 17 -11 6 0 7 5 4 10 -3 6 -1 10 5 10 7 0 9 -8 5
-21 -6 -17 -4 -20 12 -15 10 3 30 8 45 12 16 3 26 10 23 14 -9 14 16 23 28 11
6 -6 22 -11 35 -11 20 0 23 4 19 21 -5 17 -3 19 6 10 6 -6 12 -19 12 -29 0 -9
7 -17 15 -17 8 0 14 5 13 11 -1 7 20 10 60 9 48 -2 63 -6 65 -19 4 -18 18 -21
28 -5 4 8 9 8 17 0 16 -16 27 -14 27 5 0 8 5 12 10 9 6 -3 10 -15 10 -26 0
-12 10 -23 26 -29 32 -12 34 -12 34 0 0 6 -12 10 -26 10 -16 0 -23 4 -18 11 3
6 19 9 35 5 16 -3 29 -1 31 6 3 7 11 6 26 -3 19 -12 24 -12 31 0 11 17 31 5
31 -19 0 -10 9 -21 20 -25 30 -10 114 6 127 24 10 14 11 13 6 -6 -5 -20 -1
-23 26 -23 17 0 31 -5 31 -11 0 -6 -9 -8 -22 -3 -13 4 -70 6 -128 5 -95 -1
-103 0 -85 13 11 9 15 16 9 16 -5 0 -19 -7 -30 -15 -23 -17 -43 -20 -26 -3 16
16 15 38 -2 38 -8 0 -16 -10 -18 -22 -2 -15 -11 -22 -28 -24 -40 -3 -70 7 -70
25 0 13 -2 14 -9 2 -14 -22 -61 -26 -61 -5 0 14 -2 15 -16 3 -20 -17 -145 -13
-156 5 -4 6 -8 7 -8 1 0 -6 -32 -10 -74 -11 -64 -1 -73 1 -69 15 3 11 2 12 -4
4 -16 -22 -229 -16 -243 7 -8 12 -10 12 -10 1 0 -11 -25 -12 -137 -7 -76 4
-178 8 -226 10 -49 2 -91 7 -94 10 -4 3 3 6 15 6 12 0 22 5 22 10 0 6 7 10 16
10 8 0 12 -4 9 -10 -11 -18 95 -15 108 4 6 8 10 8 14 -1 2 -7 12 -13 20 -13
12 0 13 3 4 13 -8 11 -4 14 22 14 17 0 38 -5 46 -11 12 -9 13 -6 8 19 -7 28
-6 29 8 11 8 -11 15 -23 15 -28z m3452 -1191 c16 -16 88 -38 100 -31 4 3 8 -1
8 -8 0 -8 14 -19 31 -25 34 -13 54 -9 43 9 -4 6 1 8 12 5 11 -3 32 -8 47 -11
23 -5 26 -10 18 -20 -9 -10 -7 -15 6 -20 15 -6 15 -8 3 -16 -12 -7 -11 -10 5
-16 11 -3 34 -12 52 -20 17 -8 34 -14 38 -14 4 0 24 -12 45 -27 47 -34 50 -66
8 -84 -23 -9 -32 -8 -55 7 -24 16 -47 19 -158 19 -71 -1 -146 -5 -165 -11 -55
-16 -75 -6 -77 40 -3 46 -8 53 -27 37 -18 -15 -66 -4 -66 15 0 8 -9 14 -20 14
-17 0 -19 5 -13 33 7 37 14 47 20 29 3 -6 9 -9 15 -6 7 4 6 9 -2 14 -8 5 -4
16 14 35 20 22 23 30 14 37 -15 9 -7 11 46 8 25 -1 36 2 32 9 -10 15 10 14 26
-2z m1606 -67 c23 0 30 -14 12 -25 -6 -4 -8 -10 -5 -15 9 -14 -19 -18 -73 -9
-46 7 -56 5 -73 -12 -21 -21 -78 -26 -97 -7 -9 9 -12 8 -12 -7 0 -10 -3 -16
-6 -12 -4 3 -18 0 -33 -7 -14 -7 -32 -11 -38 -9 -7 3 -13 -1 -13 -8 0 -9 -5
-8 -17 3 -15 16 -15 18 8 37 65 55 157 82 259 76 36 -2 75 -4 88 -5z m-1283
-230 c47 -23 48 -25 25 -31 -14 -3 -35 -4 -48 -2 -12 3 -28 1 -35 -5 -20 -17
-96 -25 -111 -12 -10 8 -16 8 -21 0 -5 -8 -11 -7 -22 1 -12 10 -16 10 -24 -2
-5 -8 -9 -9 -9 -4 0 6 -4 4 -9 -4 -8 -12 -13 -12 -33 1 -23 15 -25 15 -36 -3
-10 -16 -16 -17 -33 -9 -11 6 -17 15 -14 21 10 15 106 62 145 70 68 15 172 5
225 -21z m-1010 -30 c3 -11 4 -28 1 -38 -5 -15 0 -18 29 -19 19 -1 38 3 41 8
3 5 -4 9 -15 9 -16 0 -21 6 -21 25 0 28 21 33 40 10 16 -19 30 -19 30 -1 0 8
8 14 19 13 20 -1 34 -51 36 -122 0 -31 -29 -70 -45 -60 -6 4 -10 2 -10 -4 0
-5 -9 -9 -20 -8 -15 1 -18 6 -14 20 4 13 0 20 -14 24 -12 3 -25 18 -31 34 -5
16 -13 29 -16 29 -4 0 -5 -6 -2 -12 2 -7 -2 -21 -11 -30 -10 -12 -11 -18 -4
-18 15 0 16 -35 2 -60 -9 -17 -14 -18 -35 -8 -31 14 -31 24 -2 49 l22 19 -25
20 -25 20 23 19 c28 24 29 51 2 51 -23 0 -24 3 -8 30 16 26 45 26 53 0z m2548
-804 c4 4 7 2 7 -4 0 -7 -4 -12 -8 -12 -5 0 -14 -25 -21 -55 -17 -75 -66 -169
-94 -182 -16 -8 -31 -31 -47 -72 -12 -34 -27 -64 -32 -67 -19 -12 -68 -126
-81 -189 -11 -54 -11 -69 -1 -83 18 -23 17 -33 -3 -25 -12 5 -15 2 -10 -10 4
-10 2 -17 -4 -17 -6 0 -9 -6 -6 -14 3 -9 -4 -21 -19 -30 -13 -9 -24 -23 -24
-32 0 -8 -11 -27 -24 -41 -13 -14 -30 -37 -38 -52 -14 -28 -86 -101 -100 -101
-4 0 -8 -4 -8 -8 0 -8 -72 -30 -102 -31 -61 -3 -78 -5 -78 -11 0 -4 -19 -10
-42 -13 -24 -3 -59 -14 -78 -23 -42 -21 -213 -25 -232 -6 -7 7 -18 12 -26 12
-28 0 -88 34 -147 84 -66 55 -95 83 -95 90 0 3 -13 25 -30 49 -16 25 -30 50
-30 56 0 6 -4 11 -8 11 -10 0 -45 60 -39 67 3 3 12 -4 19 -16 7 -12 18 -21 25
-21 30 0 8 34 -78 122 -110 112 -135 149 -143 208 -20 159 -28 192 -40 179 -4
-4 -14 -65 -47 -299 -6 -41 -16 -84 -22 -95 -6 -11 -10 -24 -9 -29 2 -4 -5
-14 -14 -21 -10 -7 -15 -19 -11 -28 3 -9 0 -18 -9 -21 -8 -3 -14 -16 -14 -30
0 -55 -46 -126 -81 -126 -9 0 -23 -8 -30 -17 -11 -15 -11 -16 1 -5 15 13 52
16 63 6 6 -6 -8 -45 -45 -121 -18 -37 -23 -41 -40 -32 -12 6 -23 7 -27 3 -5
-8 -29 -10 -67 -5 -7 0 -20 17 -29 37 -22 47 -15 109 20 169 14 24 22 45 18
48 -8 5 -31 -15 -36 -30 -1 -4 -8 -8 -15 -9 -10 -2 -11 5 -5 29 4 18 8 60 8
95 0 37 4 61 10 58 5 -1 9 -15 7 -30 -2 -18 1 -25 7 -21 6 3 11 -1 11 -9 0 -9
5 -16 10 -16 6 0 10 -7 10 -16 0 -8 5 -12 11 -9 6 5 8 22 4 47 -5 29 -4 39 4
34 6 -4 9 -13 5 -19 -3 -7 3 -1 14 13 11 13 18 29 14 34 -20 34 17 149 71 220
15 19 27 38 27 42 0 29 75 237 87 241 8 3 28 -4 45 -17 16 -12 33 -18 36 -15
4 4 1 10 -6 12 -18 7 -34 51 -27 73 3 10 18 20 33 22 l28 4 -1 -66 c0 -44 4
-71 15 -83 8 -10 20 -32 26 -49 6 -20 18 -32 32 -34 15 -3 20 0 16 11 -11 27
21 16 56 -20 18 -19 37 -32 43 -28 5 3 13 -1 18 -8 8 -12 11 -12 19 1 8 13 10
12 10 -2 0 -10 5 -18 12 -18 6 0 3 -7 -8 -15 -13 -11 -14 -14 -4 -13 8 2 20
10 26 18 10 12 17 12 38 2 38 -17 48 -15 41 9 -6 19 -4 20 24 14 30 -6 32 -6
25 19 -8 34 19 45 57 24 24 -14 30 -14 40 -2 6 8 18 14 25 14 8 0 23 6 35 13
17 10 22 9 33 -6 10 -13 15 -14 19 -5 3 8 28 14 67 16 34 2 71 9 82 15 15 9
20 9 27 -1 7 -11 9 -11 14 2 7 18 63 35 111 32 20 -1 37 3 39 8 5 16 107 12
118 -4 5 -8 9 -10 9 -5 0 11 46 35 67 35 7 0 13 -9 13 -20 0 -24 8 -25 32 -3
17 15 18 15 18 -11 0 -35 7 -32 73 32 31 28 64 52 74 52 10 0 28 16 41 35 21
33 52 48 52 25 0 -5 5 -10 11 -10 7 0 10 22 8 63 -3 61 3 87 21 87 13 0 40
-54 40 -80 0 -11 5 -20 10 -20 6 0 10 12 10 26 0 35 17 63 43 73 19 7 23 4 32
-26 6 -19 13 -31 18 -27z m-1643 -574 c0 -10 14 -26 30 -35 17 -10 30 -23 30
-29 0 -6 8 -18 18 -27 10 -9 35 -51 56 -93 29 -58 37 -85 33 -107 -4 -19 -2
-31 7 -34 14 -6 31 -59 41 -128 6 -42 5 -46 -20 -57 -63 -29 -100 -5 -146 92
-27 57 -29 69 -29 186 0 73 -4 120 -9 115 -14 -16 -20 -123 -10 -184 9 -57 -2
-89 -40 -118 -13 -9 -11 -10 12 -6 27 5 27 5 27 -50 0 -95 -7 -111 -51 -125
-21 -7 -47 -12 -57 -12 -25 0 -72 47 -73 74 -3 73 6 108 56 211 42 86 58 134
75 220 12 61 23 116 26 123 5 18 24 5 24 -16z m-3093 -1518 c3 -9 1 -25 -6
-35 -7 -12 -7 -19 -1 -19 5 0 10 -8 9 -17 0 -10 -3 -13 -5 -7 -5 12 -51 7 -60
-7 -4 -8 25 -14 49 -10 11 2 9 -17 -3 -24 -5 -3 -10 -16 -9 -28 0 -19 3 -17
16 11 9 17 19 32 23 32 3 0 5 14 4 30 -2 25 1 29 12 20 13 -12 11 -48 -6 -100
-5 -14 -16 -55 -26 -92 -16 -65 -18 -68 -47 -68 l-30 0 26 23 c30 26 34 37 12
37 -8 0 -15 5 -15 10 0 6 -6 10 -14 10 -15 0 -30 -45 -21 -60 4 -6 2 -10 -4
-10 -14 0 -26 43 -12 48 6 2 11 10 11 18 0 8 4 14 9 14 12 0 1 74 -11 78 -11
5 -10 22 2 22 15 0 42 -59 35 -79 -3 -12 0 -21 10 -25 13 -4 14 1 9 37 -10 64
-22 90 -39 83 -11 -4 -15 2 -15 19 0 14 -5 25 -11 25 -6 0 -9 -7 -6 -15 4 -8
2 -17 -2 -20 -5 -2 -11 6 -13 20 -4 19 -1 25 14 25 15 0 17 5 12 25 -5 19 -2
25 11 25 12 0 15 -5 10 -20 -5 -16 -2 -20 19 -20 28 0 32 10 16 41 -9 16 -7
19 15 19 14 0 28 -7 32 -16z m1882 -270 c2 -2 1 -7 -2 -11 -4 -4 -12 -2 -19 5
-8 8 -15 5 -25 -15 -10 -20 -11 -28 -2 -34 6 -4 9 -11 5 -17 -3 -6 -1 -14 5
-17 6 -4 13 2 16 14 3 12 12 21 19 21 8 0 14 7 14 15 0 8 9 15 20 15 12 0 20
7 20 17 0 16 1 16 18 0 16 -17 16 -19 -5 -35 -24 -18 -55 -94 -54 -129 0 -12
-4 -25 -9 -28 -6 -3 -7 1 -4 9 7 19 -9 21 -34 5 -13 -8 -27 -7 -57 7 -34 15
-37 18 -18 21 14 3 20 9 16 19 -3 8 -9 14 -15 14 -5 0 -16 7 -24 15 -13 12
-13 15 -1 15 7 0 17 -3 21 -7 9 -9 56 -12 56 -3 0 3 -9 12 -20 20 -28 20 -25
50 7 77 23 21 54 23 72 7z m-349 -505 c0 -11 -7 -22 -16 -26 -10 -4 -14 -13
-10 -28 7 -28 -13 -46 -41 -39 -11 3 -24 0 -28 -7 -6 -9 -2 -11 13 -7 14 4 19
2 15 -8 -4 -12 -34 -27 -58 -29 -5 0 -9 -9 -7 -19 2 -11 -2 -31 -10 -44 -10
-20 -10 -26 0 -29 23 -8 12 -30 -18 -36 -20 -5 -30 -12 -30 -25 0 -10 -12 -22
-30 -29 -29 -11 -30 -11 -30 20 0 24 3 28 10 17 15 -24 36 5 39 56 1 7 10 14
21 17 23 6 17 37 -8 37 -11 0 -8 6 10 23 13 12 27 30 31 40 3 9 12 17 19 17 7
0 19 9 26 20 7 11 21 20 31 20 14 0 19 7 17 28 0 15 3 27 7 27 5 0 13 8 18 18
12 21 29 13 29 -14z m-13 -316 c5 -16 6 -41 3 -58 l-6 -30 -17 30 -18 30 6
-29 c4 -17 13 -35 22 -41 9 -7 14 -18 11 -26 -3 -8 -1 -26 3 -41 4 -16 4 -28
-2 -28 -5 0 -9 -8 -9 -17 0 -10 -15 -37 -33 -60 -29 -36 -35 -39 -44 -25 -10
15 -13 15 -35 -7 -22 -22 -22 -23 -1 -10 12 7 25 10 29 6 8 -7 -41 -57 -57
-57 -5 0 -8 27 -7 60 2 44 6 56 13 46 8 -10 16 -11 28 -5 23 13 21 36 -3 44
-13 4 -20 15 -20 33 0 25 -20 70 -20 46 0 -13 -29 -23 -47 -17 -7 2 -10 10 -7
18 3 7 1 16 -5 20 -6 3 -11 20 -11 37 0 30 1 31 19 14 21 -19 41 -14 41 9 0 8
4 17 10 20 5 3 7 0 4 -8 -3 -8 -1 -18 5 -22 6 -3 11 -1 11 4 0 6 5 11 10 11 6
0 10 -6 10 -13 0 -7 5 -18 11 -24 14 -14 49 14 49 40 0 23 28 77 39 77 5 0 13
-12 18 -27z"/>
<path d="M5351 4524 c-1 -17 -60 -74 -76 -74 -8 0 -15 -7 -15 -15 0 -8 -7 -15
-14 -15 -8 0 -33 -25 -54 -55 -22 -30 -42 -52 -46 -48 -3 3 -6 -1 -6 -11 0
-13 -5 -16 -20 -11 -14 4 -20 2 -20 -8 0 -27 -49 -63 -112 -81 -35 -11 -67
-22 -73 -27 -5 -4 -28 -10 -50 -14 -22 -3 -64 -13 -93 -22 -39 -11 -56 -12
-66 -4 -7 6 -21 9 -30 5 -9 -3 -30 -1 -46 6 -17 7 -54 13 -82 14 -47 1 -53 4
-56 24 -2 12 -9 22 -16 22 -8 0 -19 7 -26 15 -7 8 -19 15 -27 15 -16 0 -83 64
-83 81 0 8 -4 9 -13 0 -10 -8 -17 -7 -26 2 -11 10 -12 7 -6 -12 l7 -24 -36 21
c-20 12 -36 19 -36 16 0 -9 121 -164 158 -202 17 -19 32 -38 32 -43 0 -5 14
-12 31 -16 19 -4 34 -14 39 -28 5 -14 24 -28 47 -36 47 -15 244 -21 286 -7 18
5 46 12 62 14 17 3 34 10 40 15 5 5 16 9 25 9 8 0 28 7 44 15 15 8 32 12 37 9
5 -3 9 -1 9 4 0 5 15 16 33 23 40 16 159 139 152 157 -3 7 0 10 6 7 12 -8 38
22 39 43 0 8 6 28 14 45 52 115 77 180 72 190 -3 8 -5 8 -5 1z"/>
<path d="M1570 10226 c0 -21 -18 -30 -34 -17 -7 6 -16 8 -19 5 -4 -4 5 -15 18
-26 16 -12 25 -30 25 -48 0 -15 7 -33 15 -40 13 -11 13 -15 3 -21 -10 -7 -9
-9 4 -9 27 0 31 -19 6 -29 -17 -7 -19 -10 -5 -10 9 -1 17 -6 17 -12 0 -5 -3
-8 -7 -6 -5 2 -21 -2 -38 -9 l-30 -13 36 -1 c40 0 60 15 52 39 -3 12 0 11 12
-4 9 -11 24 -19 33 -17 15 2 15 1 2 -7 -8 -6 -25 -11 -37 -11 -13 0 -23 -5
-23 -10 0 -14 72 -1 82 13 9 14 1 27 -16 27 -8 0 -16 9 -19 20 -4 16 0 20 18
20 12 0 29 8 36 17 12 15 12 16 -3 10 -13 -5 -18 -1 -18 13 0 13 7 20 20 20
11 0 20 -4 20 -10 0 -5 5 -10 10 -10 6 0 10 7 10 15 0 8 5 15 10 15 6 0 10 -7
10 -16 0 -8 4 -13 9 -10 5 4 8 17 6 31 -1 14 1 25 6 25 5 0 6 7 3 15 -4 8 -11
15 -18 15 -19 0 -41 -18 -33 -27 5 -4 12 -1 17 7 8 13 10 13 10 -1 0 -22 -29
-46 -38 -32 -4 5 -17 12 -29 15 -24 6 -27 0 -23 -54 1 -25 -1 -27 -34 -25 -32
2 -36 5 -36 30 0 15 -4 27 -10 27 -14 0 -12 27 3 33 7 3 5 6 -5 6 -19 1 -26
31 -8 31 6 0 10 9 10 20 0 11 -4 20 -10 20 -5 0 -10 -6 -10 -14z"/>
<path d="M3420 7720 c0 -5 -7 -7 -16 -3 -22 8 -66 -18 -59 -36 3 -8 -6 -2 -21
12 -15 15 -31 27 -35 27 -13 0 -11 -18 3 -22 17 -6 2 -39 -21 -45 -22 -6 -26
-53 -5 -53 8 0 14 -4 14 -10 0 -20 19 -10 23 13 4 19 4 18 6 -5 1 -37 26 -36
59 2 26 29 46 38 55 23 2 -5 2 -2 1 5 -2 6 3 12 11 12 8 0 15 7 15 15 0 8 -5
15 -11 15 -6 0 -1 14 11 30 l21 30 -25 0 c-14 0 -26 -4 -26 -10z"/>
<path d="M4009 7703 c-1 -5 -1 -17 0 -28 0 -11 -2 -14 -5 -7 -8 18 -34 15 -35
-5 0 -10 -3 -13 -5 -6 -4 8 -19 2 -46 -17 -23 -17 -48 -30 -56 -30 -8 0 -31
-12 -50 -26 -19 -15 -61 -40 -93 -55 -76 -37 -102 -58 -179 -147 -32 -36 -23
-39 13 -4 33 32 51 34 40 4 -5 -10 -3 -13 6 -8 7 5 10 14 7 22 -3 7 -1 16 4
19 6 4 10 1 10 -6 0 -6 9 0 21 15 14 18 27 25 39 21 20 -6 36 10 20 20 -6 4
-7 11 -4 17 4 7 9 6 14 -2 5 -7 13 -2 24 15 14 21 20 24 32 14 8 -7 14 -7 14
-1 0 5 10 8 22 4 14 -3 19 -1 14 6 -7 12 76 72 99 72 6 0 17 9 25 20 8 11 21
20 30 20 9 0 33 9 55 20 22 11 32 20 22 20 -10 0 -17 8 -17 20 0 18 -19 29
-21 13z"/>
<path d="M3205 7213 c-5 -13 -9 -14 -12 -5 -4 10 -9 8 -20 -5 -8 -10 -12 -13
-9 -7 3 7 -5 14 -20 17 -27 5 -36 -7 -49 -66 -4 -23 -9 -26 -29 -21 -27 6 -44
-12 -27 -29 8 -8 11 -8 11 1 0 7 9 12 20 12 24 0 24 -3 5 -40 -9 -17 -15 -33
-15 -37 0 -27 -14 -74 -26 -84 -8 -6 -11 -15 -8 -20 3 -5 -2 -9 -10 -9 -20 0
-21 34 -1 50 8 7 15 23 15 36 0 12 5 26 10 29 6 3 10 10 10 15 0 12 -25 19
-39 10 -10 -6 -11 -12 -1 -30 10 -19 10 -24 -4 -32 -9 -5 -16 -20 -16 -32 0
-13 -7 -26 -15 -30 -8 -3 -15 -12 -15 -19 0 -20 -78 -54 -109 -48 -13 2 -13 0
-1 -14 10 -12 10 -19 2 -27 -8 -8 -13 -7 -18 5 -7 20 -30 23 -36 5 -3 -7 2
-19 10 -27 7 -8 12 -25 9 -38 -2 -12 -1 -23 4 -23 12 0 27 33 22 48 -3 6 -1
12 4 12 13 0 32 -49 22 -56 -5 -3 -9 -14 -9 -24 0 -10 -5 -20 -12 -22 -8 -3
-8 -9 -1 -23 9 -16 15 -10 42 46 17 35 31 68 30 74 0 5 -5 1 -10 -10 -7 -16
-8 -12 -6 17 2 27 -1 38 -13 41 -12 3 -11 5 4 12 13 6 23 3 31 -9 8 -10 16
-13 19 -7 4 6 18 6 39 0 39 -11 37 -11 37 1 0 6 -7 10 -16 10 -14 0 -14 3 -4
15 14 17 0 21 -17 4 -16 -16 -35 -8 -23 11 6 9 23 14 49 13 30 -1 41 2 41 13
0 7 4 14 9 14 5 0 11 10 13 23 2 12 8 21 14 20 14 -2 14 30 1 39 -7 4 0 12 15
19 27 12 46 39 28 39 -6 0 -10 5 -10 11 0 5 5 7 10 4 6 -3 10 -2 10 3 0 6 11
13 25 16 14 4 25 13 25 22 0 8 9 32 20 54 22 44 24 50 11 50 -5 0 -12 -8 -16
-17z"/>
<path d="M2755 6808 c-2 -7 -5 -24 -7 -38 -2 -19 -9 -25 -27 -24 -29 1 -63
-30 -55 -50 7 -18 -36 -78 -51 -72 -6 2 -9 -11 -7 -35 4 -34 2 -38 -17 -34
-17 3 -21 -1 -21 -26 0 -19 -5 -29 -15 -29 -18 0 -19 -9 -5 -46 10 -25 9 -26
-20 -22 -22 3 -27 2 -19 -8 5 -7 14 -26 19 -43 8 -29 7 -31 -16 -25 -23 6 -24
4 -24 -40 0 -29 -4 -46 -12 -46 -9 0 -9 -3 0 -12 14 -14 16 -32 3 -24 -5 3
-12 -1 -15 -10 -3 -8 -10 -13 -15 -9 -5 3 -12 1 -15 -4 -3 -5 3 -11 14 -14 22
-6 28 -51 9 -63 -6 -3 -9 -17 -6 -31 3 -15 -1 -27 -9 -30 -8 -3 -11 -9 -8 -14
3 -5 0 -9 -7 -9 -7 0 -9 -8 -6 -21 12 -44 -21 -68 -42 -31 -9 15 -10 15 -11
-5 0 -14 6 -23 15 -23 8 0 15 -4 15 -9 0 -5 2 -15 5 -23 3 -7 1 -19 -4 -27 -8
-13 -12 -13 -27 0 -16 12 -16 11 1 -16 11 -16 20 -32 22 -34 7 -10 33 24 33
43 0 15 3 17 9 8 7 -11 10 -10 15 3 11 30 7 45 -11 39 -11 -4 -14 -2 -8 3 6 4
19 27 29 50 22 50 51 80 61 63 11 -17 23 -2 18 23 -3 14 2 29 11 36 9 8 16 20
16 27 0 8 5 14 11 14 5 0 8 -4 5 -9 -4 -5 0 -11 6 -14 10 -3 8 -9 -5 -24 -10
-12 -15 -27 -11 -37 11 -29 29 -11 32 31 3 34 -1 44 -23 61 -15 12 -21 23 -15
27 16 10 11 28 -6 21 -15 -6 -15 -4 0 18 18 28 22 76 6 76 -5 0 -10 -4 -10
-10 0 -5 -4 -10 -10 -10 -5 0 -10 7 -10 15 0 8 6 14 13 13 14 -3 11 45 -4 50
-5 2 -9 11 -9 20 0 13 2 13 14 -3 11 -15 17 -17 28 -7 8 6 17 10 19 7 3 -2 6
6 6 18 1 12 7 23 12 25 6 2 0 13 -12 25 -13 12 -16 16 -7 9 19 -14 30 -7 30
20 0 12 7 18 21 18 15 0 19 4 15 16 -3 9 -6 20 -6 25 0 6 -5 7 -10 4 -6 -4 -7
-11 -4 -17 4 -6 3 -8 -3 -5 -5 3 -7 22 -5 41 3 28 9 36 24 36 16 0 18 3 9 14
-9 10 -8 16 4 26 10 9 15 9 15 1 0 -14 27 -14 36 1 4 6 0 16 -9 23 -15 11 -14
13 7 24 13 7 33 10 44 7 17 -6 20 -13 15 -41 -3 -19 -2 -35 3 -35 5 0 9 10 9
23 1 12 4 32 9 45 5 16 4 22 -5 20 -7 -2 -15 11 -19 30 -6 24 -4 32 6 32 17 0
18 12 2 28 -15 15 -28 15 -33 0z"/>
<path d="M2889 6315 c-1 -3 -3 -9 -4 -15 -1 -5 -3 -23 -4 -39 -1 -34 -24 -46
-46 -25 -8 9 -15 12 -15 7 0 -4 -4 -2 -9 6 -12 18 -31 5 -31 -21 0 -12 -6 -29
-14 -37 -11 -13 -22 -66 -26 -133 0 -5 -7 -8 -15 -8 -10 0 -14 -10 -12 -36 2
-41 -16 -56 -32 -26 -10 20 -4 65 8 57 21 -12 -1 70 -22 86 -4 3 -9 19 -11 35
-2 16 -4 32 -5 37 0 4 -8 7 -17 7 -13 0 -14 -3 -4 -15 7 -8 10 -24 7 -35 -3
-11 -1 -20 4 -20 4 0 6 -6 3 -14 -3 -7 2 -16 10 -19 24 -10 20 -40 -4 -34 -13
3 -20 0 -20 -10 0 -10 6 -12 21 -8 19 6 21 4 16 -16 -4 -13 -7 -35 -7 -48 0
-33 -13 -18 -14 16 -1 24 -5 28 -31 29 -16 0 -35 -1 -40 -3 -12 -4 -12 -69 0
-80 4 -5 6 1 3 13 -6 25 8 54 26 54 8 0 16 -9 19 -19 3 -12 0 -18 -7 -15 -10
4 -18 -57 -16 -134 0 -16 -7 -26 -20 -29 -11 -3 -20 -12 -20 -20 0 -13 3 -13
15 -3 13 11 15 8 15 -16 0 -16 -5 -36 -10 -44 -7 -12 -11 -10 -19 10 -5 14
-10 19 -10 12 -1 -7 4 -23 10 -35 9 -16 9 -22 0 -25 -6 -2 -9 -8 -6 -13 3 -4
-2 -20 -11 -34 -9 -14 -14 -34 -11 -46 4 -16 3 -18 -8 -9 -9 8 -14 7 -19 -5
-8 -22 -37 -20 -30 3 5 14 4 14 -4 2 -6 -8 -9 -18 -6 -22 7 -11 -15 -48 -28
-48 -13 0 -61 -50 -54 -57 3 -3 17 7 31 22 15 14 30 24 33 20 3 -3 12 9 19 26
7 18 16 29 20 25 4 -3 1 -12 -5 -18 -18 -18 -15 -38 6 -38 14 0 14 -2 3 -9
-12 -8 -13 -14 -3 -36 7 -14 12 -37 12 -51 0 -20 -4 -24 -17 -20 -10 3 -24 2
-32 -3 -15 -10 -41 -4 -41 9 0 5 7 16 16 24 16 16 8 21 -20 10 -21 -8 -20 -18
3 -68 11 -23 23 -50 27 -61 6 -18 8 -18 11 -2 3 9 9 17 14 17 14 0 11 -27 -5
-33 -16 -6 -39 -67 -25 -67 5 0 9 -9 9 -21 0 -12 4 -18 11 -13 6 3 15 0 20 -7
7 -11 11 -10 22 5 8 11 19 16 25 12 15 -9 16 -46 1 -46 -5 0 -9 -8 -8 -17 2
-10 -5 -32 -14 -50 -21 -39 -21 -40 -2 -40 8 0 15 6 15 14 0 7 5 13 10 13 6 0
10 6 9 13 -1 6 2 37 7 67 12 73 11 75 -6 75 -24 0 -22 199 2 241 18 31 18 32
-2 37 l-21 6 20 20 c12 12 25 21 30 21 5 0 9 14 9 30 -1 17 2 33 6 37 12 12
23 -17 18 -45 -3 -15 -2 -24 2 -21 3 3 7 17 8 31 2 19 7 24 20 20 10 -2 18
-11 18 -19 0 -11 4 -11 21 -3 13 7 19 19 17 33 -2 13 2 21 9 20 7 -2 10 4 7
12 -8 21 -21 19 -27 -5 -5 -20 -47 -29 -47 -10 0 5 -7 7 -16 3 -12 -4 -15 0
-12 18 2 16 11 25 26 27 12 2 22 10 22 19 0 11 -6 14 -25 9 -33 -8 -32 7 1 24
20 11 24 19 19 38 -7 30 2 62 20 62 7 0 15 -10 19 -22 8 -33 7 -50 -3 -44 -5
3 -11 -1 -15 -9 -3 -8 -1 -17 4 -20 6 -4 10 -14 10 -25 0 -10 7 -20 15 -24 8
-3 15 -13 15 -23 0 -14 2 -15 9 -5 7 11 9 10 15 -3 9 -24 24 -9 19 19 -3 13
-13 26 -23 29 -13 3 -16 11 -13 33 3 16 10 35 16 42 8 10 5 14 -11 19 -26 6
-29 23 -6 23 14 0 16 9 12 55 -3 41 -1 56 10 60 10 4 13 14 9 35 -5 23 -2 32
15 41 16 8 18 13 8 19 -11 7 -10 13 3 34 9 14 17 34 17 44 0 35 19 42 56 20
l34 -20 0 21 c0 12 5 21 11 21 6 0 9 9 6 20 -3 13 0 20 8 20 7 0 16 14 20 30
4 17 11 28 15 25 9 -6 30 25 30 44 0 6 -9 11 -19 11 -11 0 -23 5 -26 10 -6 10
-24 14 -26 5z"/>
<path d="M2957 6105 c-15 -25 -27 -51 -27 -58 1 -7 6 -3 13 8 7 11 19 21 27
23 8 2 18 9 22 15 5 7 5 -4 1 -23 -3 -19 -19 -46 -35 -61 -32 -28 -53 -97 -42
-131 5 -16 8 -18 15 -7 7 11 9 11 9 -3 0 -9 4 -20 10 -23 7 -4 7 3 0 20 -10
27 1 65 20 65 6 0 10 9 10 19 0 10 7 21 15 25 8 3 15 13 15 22 0 10 5 14 15
10 12 -4 14 0 9 18 -3 14 0 29 10 39 14 13 14 17 -4 40 -11 14 -20 30 -20 36
0 28 -37 7 -63 -34z"/>
<path d="M2390 5838 c0 -5 -6 -8 -14 -8 -11 0 -13 -9 -9 -35 5 -29 3 -35 -12
-35 -14 0 -16 -6 -13 -31 4 -22 0 -33 -15 -40 -13 -7 -17 -17 -13 -32 2 -12
-2 -31 -9 -41 -8 -11 -12 -29 -9 -41 3 -13 -1 -27 -10 -34 -18 -15 -21 -56 -6
-66 15 -9 12 -32 -6 -39 -8 -3 -13 -2 -11 2 3 4 -1 13 -9 20 -16 14 -17 11
-14 -35 1 -18 -3 -33 -9 -33 -6 0 -11 -12 -11 -27 0 -14 -7 -34 -15 -43 -19
-21 -11 -46 18 -54 18 -5 19 -8 7 -16 -8 -5 -24 -7 -36 -4 -19 5 -21 2 -17
-20 4 -21 8 -23 24 -13 25 16 36 1 15 -22 -10 -11 -25 -17 -37 -14 -10 3 -19
1 -19 -5 0 -19 21 -24 51 -12 24 10 29 18 29 44 -1 17 2 44 6 60 5 22 3 32
-11 43 -18 12 -18 14 2 33 12 11 23 16 25 11 2 -4 12 1 23 12 11 11 14 17 7
13 -10 -6 -10 -2 -1 18 7 14 27 32 45 41 32 15 46 35 24 35 -5 0 -10 13 -10
30 0 21 8 35 26 46 17 12 21 19 13 24 -7 5 -9 18 -5 36 4 16 8 37 9 46 1 9 5
14 10 11 15 -9 26 19 20 48 -6 30 11 46 31 30 10 -8 16 -8 25 2 6 8 8 17 4 20
-3 4 -1 7 5 7 6 0 14 -4 17 -10 3 -5 11 -10 17 -10 7 0 6 5 -2 15 -7 8 -10 21
-7 29 4 9 -2 17 -14 21 -11 4 -16 11 -13 17 5 7 1 9 -8 5 -9 -3 -19 -3 -23 1
-9 9 -65 9 -65 0z"/>
<path d="M2239 5149 c-6 -11 -8 -27 -5 -35 4 -10 2 -12 -7 -7 -17 11 -71 10
-79 -2 -13 -18 -8 -24 18 -22 24 2 27 -2 29 -36 2 -20 -1 -40 -6 -43 -5 -3 -9
-10 -9 -15 0 -6 15 1 33 15 40 31 84 36 69 9 -6 -10 -6 -24 0 -38 10 -23 -5
-75 -22 -75 -5 0 -10 -4 -10 -10 0 -5 7 -10 15 -10 28 0 15 -28 -20 -44 -19
-9 -35 -22 -34 -29 0 -9 2 -9 6 1 2 6 20 12 39 12 30 0 34 3 34 25 0 18 10 30
38 44 20 11 31 20 24 21 -7 0 -24 -7 -38 -16 -13 -9 -27 -14 -31 -11 -8 9 26
59 36 53 5 -3 17 4 27 15 16 18 17 19 0 13 -12 -5 -19 -1 -23 15 -3 11 -10 21
-17 21 -6 1 0 10 14 21 l25 21 -24 19 c-21 17 -23 23 -12 46 6 14 10 26 9 27
-2 0 -18 9 -35 18 -32 16 -33 16 -44 -3z"/>
<path d="M5080 5077 c0 -18 -43 -57 -63 -57 -9 0 -18 -4 -21 -8 -3 -5 -31 -15
-63 -22 -50 -12 -138 -52 -153 -70 -3 -3 -29 -7 -58 -8 -29 -1 -61 -6 -70 -11
-19 -10 -82 -3 -82 9 0 4 -12 6 -27 3 -19 -2 -23 -1 -11 4 10 5 -31 8 -91 8
-110 1 -113 2 -161 49 -31 30 -34 12 -6 -31 14 -21 28 -52 32 -69 10 -52 49
-67 181 -70 71 -1 120 -7 129 -15 20 -17 159 -7 182 14 22 19 144 73 199 87
49 12 63 32 87 127 19 72 19 73 6 73 -5 0 -10 -6 -10 -13z"/>
<path d="M2385 4950 c20 -38 13 -75 -17 -91 -18 -10 -20 -9 -15 6 5 11 3 15
-5 13 -7 -3 -13 -19 -14 -36 -1 -17 -4 -39 -8 -48 -4 -12 -2 -15 9 -11 11 5
13 0 8 -26 -3 -18 -12 -37 -20 -44 -10 -8 -14 -25 -11 -52 2 -23 0 -41 -4 -41
-5 0 -8 -4 -8 -10 0 -5 7 -10 16 -10 11 0 15 6 11 20 -3 11 -2 20 3 20 4 0 15
34 25 75 9 41 20 77 26 80 5 4 5 -3 0 -17 -6 -16 -4 -34 4 -53 13 -29 14 -29
20 -8 4 13 12 20 17 17 6 -4 14 0 19 7 6 10 9 6 9 -14 0 -16 4 -26 9 -23 4 3
7 18 5 33 -1 15 1 32 5 38 5 5 12 20 15 32 7 20 4 22 -29 21 -28 -1 -34 -5
-30 -18 3 -10 -1 -23 -9 -29 -12 -10 -14 -9 -12 6 2 10 -1 20 -5 24 -5 3 5 21
21 40 17 18 30 30 29 24 -1 -5 -1 -16 0 -23 2 -20 41 9 41 32 0 15 -3 16 -14
7 -28 -23 -81 25 -74 66 2 10 -5 19 -15 21 -18 4 -18 2 -2 -28z"/>
<path d="M2560 4811 c0 -32 -4 -50 -10 -46 -5 3 -7 21 -4 39 3 24 1 35 -10 39
-20 8 -33 -32 -15 -44 10 -6 6 -11 -14 -18 l-28 -11 21 -22 21 -23 -20 -17
c-20 -16 -20 -55 0 -42 5 3 9 1 9 -5 0 -5 -5 -13 -10 -16 -6 -4 -8 -10 -6 -14
3 -4 1 -13 -5 -21 -6 -10 -9 -11 -9 -2 0 6 -4 12 -10 12 -5 0 -10 -7 -10 -15
0 -8 5 -15 10 -15 6 0 10 -7 10 -15 0 -8 -6 -12 -14 -9 -14 5 -43 -32 -33 -43
3 -2 11 5 17 17 9 17 14 19 20 10 6 -9 14 0 29 28 12 23 21 47 21 55 0 21 51
62 60 47 5 -8 9 -7 13 4 4 9 3 16 -2 16 -5 0 -9 32 -10 72 -1 40 -5 76 -11 82
-7 7 -10 -8 -10 -43z"/>
<path d="M2149 4820 c-8 -5 -28 -11 -45 -13 -24 -3 -29 -8 -26 -28 1 -13 7
-28 12 -33 5 -5 7 -1 3 12 -3 14 2 24 16 32 20 10 21 9 15 -17 -4 -15 -11 -36
-15 -45 -17 -31 -10 -46 19 -44 34 1 42 -16 13 -29 -11 -5 -21 -13 -21 -17 0
-4 -6 -5 -14 -2 -8 3 -17 1 -21 -5 -3 -6 -17 -11 -31 -11 -15 0 -24 -6 -24
-16 0 -13 3 -14 13 -5 10 8 17 7 25 -1 8 -8 7 -14 -5 -23 -15 -11 -14 -14 5
-33 12 -12 22 -29 22 -37 0 -8 7 -15 15 -15 18 0 20 -21 3 -38 -6 -6 -13 -35
-14 -64 -2 -35 0 -47 6 -38 6 8 10 31 10 51 0 20 6 42 13 48 20 16 13 75 -11
106 -12 15 -19 31 -16 36 9 15 51 10 58 -7 3 -8 10 -12 16 -9 5 3 10 3 10 -2
0 -4 17 -8 37 -9 20 0 39 -6 41 -12 2 -7 8 -10 13 -6 15 9 10 24 -9 24 -24 0
-32 8 -25 26 4 10 10 11 23 4 26 -14 25 -15 27 38 2 40 0 44 -10 27 -12 -21
-37 -32 -37 -16 0 5 7 14 15 21 9 7 13 21 10 30 -4 12 1 20 17 25 13 4 26 7
29 6 4 0 5 9 2 19 -3 11 -13 20 -22 20 -28 0 -70 -24 -74 -42 -3 -11 -11 -15
-26 -11 -12 3 -21 1 -21 -6 0 -6 -9 -11 -20 -11 -33 0 -27 46 7 55 24 6 26 8
12 18 -12 9 -14 18 -8 35 9 25 10 25 -12 12z"/>
<path d="M2360 4605 c-25 -13 -48 -21 -51 -19 -4 2 -10 -3 -13 -12 -3 -8 -2
-12 4 -9 6 3 10 -3 10 -14 0 -11 6 -26 14 -33 17 -16 3 -53 -32 -85 -30 -27
-36 -29 -28 -6 6 15 5 15 -11 2 -29 -22 -60 -38 -66 -32 -11 10 5 32 19 26 10
-4 14 3 14 23 0 15 5 43 12 61 13 36 3 58 -24 48 -17 -7 -33 -52 -48 -135 -5
-30 -12 -65 -16 -76 -4 -14 0 -23 11 -28 9 -3 13 -2 10 4 -3 6 1 20 9 32 9 12
16 17 16 10 0 -7 5 -10 10 -7 6 3 10 1 10 -5 0 -6 5 -8 10 -5 7 4 6 13 -1 26
-12 24 -2 40 12 19 8 -13 10 -13 19 0 5 8 10 11 10 6 0 -6 5 -5 12 2 18 18 28
15 28 -8 0 -14 -6 -20 -17 -18 -10 2 -19 -4 -20 -12 -5 -23 45 -23 52 0 3 10
12 21 20 24 17 6 20 52 5 61 -13 8 -13 25 1 25 6 0 13 -10 17 -22 4 -16 10 -6
27 45 12 37 25 64 30 60 4 -5 3 1 -3 12 -8 15 -7 24 4 36 25 28 -6 30 -56 4z"/>
<path d="M6445 3581 c-24 -10 -81 -72 -147 -158 -25 -33 -68 -76 -95 -94 -26
-18 -52 -39 -56 -46 -5 -8 -35 -46 -68 -86 -79 -95 -181 -241 -209 -297 -12
-25 -44 -83 -71 -130 -49 -86 -72 -144 -160 -395 -76 -220 -112 -366 -112
-461 0 -44 5 -90 11 -101 12 -22 13 -38 8 -283 -4 -220 -11 -246 -115 -425
-25 -44 -73 -108 -106 -142 l-60 -62 -155 -15 c-94 -9 -193 -25 -250 -41 -52
-15 -128 -35 -168 -46 -145 -39 -186 -67 -306 -204 -134 -154 -252 -245 -319
-245 -67 0 -306 177 -472 349 -60 63 -178 185 -262 271 -86 89 -155 168 -158
183 -6 20 1 40 26 79 18 29 40 59 48 67 14 11 13 12 -8 6 -16 -5 -21 -4 -17 4
4 6 2 11 -3 11 -19 0 -12 20 7 20 16 1 16 2 -2 15 -19 14 -16 45 4 45 16 0 12
30 -5 37 -14 5 -14 7 0 23 9 10 15 22 13 27 -2 6 8 20 22 31 l25 20 -38 7
c-31 6 -44 3 -67 -14 -31 -22 -45 -27 -35 -11 3 5 -13 2 -37 -7 -24 -8 -53
-15 -65 -14 -15 0 -23 -5 -24 -17 0 -14 -2 -14 -9 3 -8 18 -9 18 -9 2 -1 -11
-10 -21 -21 -24 -17 -5 -20 -14 -20 -62 0 -31 3 -73 6 -94 6 -36 7 -37 21 -17
15 21 38 26 48 10 3 -6 -5 -14 -19 -20 -14 -5 -26 -14 -26 -20 0 -5 -7 -10
-15 -10 -11 0 -15 11 -15 38 0 23 -3 32 -8 24 -5 -7 -7 -47 -6 -90 2 -42 0
-69 -2 -59 -3 9 -14 17 -25 17 -20 0 -26 -15 -9 -25 14 -9 8 -55 -7 -55 -7 0
-13 -6 -13 -14 0 -8 -7 -16 -15 -20 -8 -3 -13 -11 -10 -18 10 -27 -13 -40 -79
-45 -36 -3 -66 -10 -66 -14 0 -5 -9 -9 -20 -9 -11 0 -20 5 -20 10 0 6 9 10 21
10 15 0 19 5 15 15 -6 17 21 35 44 28 9 -3 11 -1 5 4 -19 15 -16 40 6 46 15 4
20 11 15 23 -5 12 -2 15 10 10 8 -3 22 -6 31 -6 10 0 13 -6 9 -16 -4 -11 0
-15 16 -12 26 4 47 63 28 82 -8 8 -12 5 -16 -11 -5 -18 -9 -20 -19 -10 -7 7
-12 24 -13 38 0 52 -1 53 -27 29 -14 -13 -23 -26 -20 -28 3 -3 -10 -16 -27
-29 -35 -26 -57 -58 -58 -86 0 -17 -19 -57 -31 -67 -3 -3 -12 -16 -18 -28 -12
-22 -11 -23 9 -17 18 6 21 3 18 -16 -2 -12 -8 -24 -14 -26 -11 -4 -19 12 -34
67 l-7 25 -12 -30 c-7 -16 -16 -50 -21 -75 -4 -25 -8 -35 -9 -23 -1 29 -17 38
-24 13 -3 -11 2 -27 10 -35 12 -12 13 -28 8 -76 -7 -61 -7 -61 16 -54 39 12
44 22 44 92 0 83 18 93 31 19 6 -30 7 -53 3 -51 -8 5 -59 -105 -59 -128 0 -9
-5 -19 -10 -22 -6 -4 -8 -15 -5 -26 4 -13 2 -19 -9 -19 -8 0 -17 8 -19 18 -3
10 -5 6 -6 -10 0 -16 3 -28 7 -28 5 0 9 -33 9 -72 0 -40 3 -98 7 -128 5 -37 4
-50 -2 -41 -7 9 -10 -19 -10 -87 0 -56 3 -100 7 -98 4 3 8 -23 9 -57 1 -34 5
-70 8 -79 5 -17 126 -18 2364 -18 l2359 0 4 23 4 22 2 -22 c1 -23 2 -23 156
-23 126 0 155 3 155 14 0 19 -68 372 -79 414 -10 34 -10 34 38 70 l24 19 -17
158 c-10 87 -20 165 -23 174 -4 9 -2 13 3 8 5 -5 28 -57 51 -115 l43 -107 -2
105 c0 58 -4 110 -7 115 -6 10 -10 26 -15 60 -2 11 -4 20 -5 20 -2 0 -4 7 -6
15 -2 8 -7 26 -10 40 -4 14 -8 43 -9 65 -4 46 -7 57 -47 143 -16 35 -29 67
-29 72 0 6 -4 10 -10 10 -5 0 -10 6 -10 14 0 23 -25 63 -36 59 -7 -2 -14 14
-17 38 -3 23 -10 45 -15 48 -4 3 -16 31 -26 61 -10 30 -31 72 -47 92 -16 20
-29 44 -29 52 0 8 -9 21 -20 29 -11 8 -23 29 -27 48 -6 33 -20 52 -96 132 -21
22 -46 51 -54 64 -14 22 -51 35 -38 13 11 -18 -15 -10 -36 11 -12 12 -27 18
-38 14 -11 -3 -21 0 -24 9 -8 20 -67 32 -77 15 -16 -25 -38 51 -69 236 -14 83
-5 405 14 507 16 90 80 233 182 408 84 144 166 223 223 213 17 -2 30 0 30 5 0
19 -154 62 -221 62 -16 0 -55 9 -86 20 -32 11 -74 20 -94 20 -43 0 -122 26
-206 69 -105 52 -233 81 -278 62z"/>
<path d="M3242 2435 c6 -14 14 -25 18 -25 4 0 5 -11 2 -25 -4 -24 -4 -25 24
-10 30 15 40 14 29 -5 -4 -6 -13 -9 -20 -6 -8 3 -17 -7 -24 -25 -7 -19 -17
-29 -30 -29 -26 0 -27 -21 -2 -37 15 -10 19 -24 19 -80 0 -37 -4 -73 -9 -79
-13 -16 0 -47 15 -36 15 12 58 13 51 1 -4 -5 -2 -9 4 -9 5 0 13 5 16 10 3 6 1
10 -5 10 -7 0 -10 7 -7 14 4 10 1 13 -7 10 -10 -4 -14 2 -12 19 0 14 4 23 9
20 4 -2 7 3 7 11 0 9 8 16 18 16 13 0 14 -2 4 -9 -16 -9 -12 -49 3 -41 6 3 9
11 9 17 -1 7 2 10 7 8 4 -3 13 13 19 35 6 22 15 40 21 40 7 0 8 12 4 31 -4 17
-8 37 -9 43 -1 6 -6 17 -10 25 -6 10 -2 20 12 32 12 9 22 23 22 31 -1 9 -5 8
-14 -4 -14 -19 -36 -24 -36 -9 0 5 -8 12 -17 15 -38 14 -63 31 -63 42 0 10
-30 23 -52 24 -4 0 -2 -11 4 -25z"/>
<path d="M3000 2350 c0 -7 -8 -19 -17 -26 -17 -13 -17 -13 0 -14 23 0 22 -35
-3 -62 -13 -15 -17 -25 -10 -32 5 -5 10 -18 10 -27 0 -22 50 -42 84 -33 20 5
25 11 21 25 -7 22 20 28 28 7 3 -8 6 -6 6 5 1 9 -5 17 -12 17 -16 0 -51 46
-62 80 -9 31 -45 78 -45 60z"/>
<path d="M3190 1970 c0 -5 -6 -10 -13 -10 -8 0 -22 -16 -33 -35 -10 -19 -22
-35 -26 -35 -10 0 -10 7 1 28 6 12 3 22 -8 34 -15 15 -16 14 -17 -25 -1 -23
-7 -43 -13 -45 -6 -2 -11 -13 -11 -24 0 -19 1 -19 20 3 24 30 24 26 2 -36 -10
-28 -17 -56 -14 -63 2 -7 0 -18 -6 -25 -14 -18 -33 -77 -39 -120 -4 -31 -2
-36 11 -31 9 3 16 10 16 16 0 5 4 7 9 3 6 -3 36 3 67 14 31 11 61 18 65 15 5
-3 9 2 9 10 0 9 5 16 10 16 16 0 6 61 -13 91 -21 32 -27 149 -10 197 7 18 8
32 2 32 -5 0 -9 -4 -9 -10z"/>
<path d="M2530 795 c-7 -14 -17 -25 -22 -25 -4 0 -8 -13 -8 -29 0 -16 -7 -42
-15 -57 -8 -16 -15 -39 -15 -51 0 -13 -9 -28 -20 -35 -14 -9 -20 -24 -20 -50
0 -33 -20 -68 -20 -36 -1 8 -6 6 -15 -6 -16 -22 -21 -71 -6 -61 6 3 7 -9 4
-30 -4 -25 -2 -36 9 -40 9 -4 15 -23 16 -61 1 -31 6 -62 12 -69 8 -10 8 -15 0
-20 -7 -4 -10 -18 -7 -31 3 -18 0 -24 -14 -24 -11 0 -19 5 -19 10 0 6 -21 11
-47 12 -35 1 -39 2 -17 5 25 3 31 8 27 23 -3 10 -11 21 -19 24 -8 3 -14 16
-14 29 0 14 -6 30 -14 36 -12 10 -17 8 -26 -9 -18 -33 -12 -166 7 -179 5 -3
13 -18 16 -33 4 -15 13 -33 20 -40 14 -13 17 -21 17 -38 0 -6 43 -10 110 -10
l110 0 -2 45 c-1 25 -5 45 -9 45 -4 0 -7 10 -7 23 -3 95 -18 162 -29 130 -3
-7 -8 -13 -13 -13 -13 0 -20 42 -10 59 8 13 9 12 10 -7 0 -13 4 -20 10 -17 17
11 11 43 -10 50 -11 3 -20 15 -20 26 0 25 16 25 23 -1 6 -22 28 -28 26 -7 -3
32 -16 62 -28 62 -19 0 -34 42 -19 51 7 4 14 2 16 -4 2 -7 8 -12 13 -12 12 0
11 44 -1 56 -7 7 -6 21 3 45 8 19 12 40 9 48 -3 9 0 11 8 6 10 -6 11 -1 6 26
-15 70 -18 109 -11 145 5 27 9 34 15 24 7 -12 10 -11 16 3 11 30 -11 40 -26
12z"/>
<path d="M2120 680 c-13 -11 -20 -26 -17 -34 4 -9 2 -18 -4 -22 -6 -4 -4 -13
7 -25 16 -18 17 -19 1 -13 -13 5 -16 2 -11 -10 3 -9 2 -16 -2 -16 -5 0 -10
-16 -11 -35 -1 -19 -9 -42 -17 -51 -9 -8 -16 -28 -16 -43 0 -16 -7 -48 -15
-71 -8 -23 -17 -61 -19 -84 -10 -90 -20 -118 -40 -110 -17 7 -18 53 -2 79 7
11 15 51 18 88 6 65 5 69 -18 77 -13 5 -24 14 -24 21 0 6 -6 9 -12 7 -7 -3
-14 -20 -15 -39 -1 -24 0 -29 6 -15 5 14 10 16 15 7 4 -6 2 -18 -4 -26 -7 -8
-10 -25 -7 -37 3 -13 2 -32 -2 -42 -6 -17 -9 -16 -19 10 -16 42 -31 102 -26
108 2 4 0 3 -5 -1 -6 -5 -6 -28 0 -58 6 -27 7 -85 4 -129 -5 -55 -3 -76 4 -71
6 3 11 13 11 21 0 8 4 14 8 14 4 0 6 17 4 38 -2 26 0 33 6 23 6 -8 8 -20 5
-28 -3 -7 -1 -13 5 -13 6 0 13 6 15 13 4 7 6 6 6 -4 1 -22 -24 -81 -31 -74 -3
3 -4 -10 -2 -30 1 -19 -2 -37 -7 -41 -5 -3 -9 -18 -9 -35 0 -40 37 -42 46 -1
6 30 9 37 28 71 13 21 14 22 19 5 3 -11 5 -38 4 -62 -2 -37 1 -42 20 -42 12 0
24 6 26 13 4 9 8 8 16 -3 10 -13 12 -13 21 0 8 12 12 13 19 2 6 -10 29 -13 80
-11 39 2 71 6 71 10 0 3 -13 25 -30 47 l-30 42 29 44 c24 39 28 54 25 106 -1
33 1 58 5 55 12 -7 50 38 50 60 1 43 4 60 13 66 5 3 8 27 6 54 l-3 48 -32 -46
c-40 -55 -47 -99 -8 -52 13 17 24 25 25 19 0 -6 -6 -17 -14 -24 -8 -6 -12 -19
-9 -27 5 -12 2 -15 -10 -10 -17 6 -49 -34 -51 -64 -1 -10 -11 -27 -23 -39 -26
-24 -32 -50 -8 -30 19 16 24 11 31 -32 5 -25 0 -46 -15 -74 -13 -23 -20 -30
-17 -16 4 23 -2 22 -36 -7 -10 -9 -18 -23 -18 -33 0 -21 -39 -60 -53 -51 -6 3
-6 8 0 12 17 11 22 99 7 118 -13 17 -15 17 -29 -1 -12 -16 -15 -17 -15 -4 0
22 29 87 30 68 2 -19 29 39 30 63 0 10 12 44 26 75 31 66 42 145 24 166 -9 11
-9 19 0 33 10 16 11 16 6 1 -3 -12 0 -18 9 -18 9 0 15 9 15 21 0 11 7 28 16
37 21 20 1 30 -23 10 -15 -12 -15 -11 -5 9 19 35 14 36 -18 3 -29 -30 -30 -30
-30 -8 0 13 9 29 20 36 20 12 27 32 12 32 -5 0 -19 -9 -32 -20z"/>
</g>
</svg>
